<svg width="64" height="32" viewBox="0 0 64 32" fill="none" xmlns="http://www.w3.org/2000/svg">
<rect x="0.5" y="0.5" width="63" height="31" rx="15.5" stroke="black"/>
<circle cx="48" cy="16" r="12" fill="black"/>
<path d="M10.84 22C11.54 22 12.48 22.04 13.46 22.04C17.56 22.04 19.5 19.4 19.5 14.92C19.5 11.42 18.04 8.48 13.84 8.48C12.82 8.48 11.88 8.5 10.84 8.5V22ZM12.5 9.78C12.88 9.76 13.28 9.76 13.66 9.76C16.76 9.76 17.76 12.1 17.76 15.14C17.76 18.92 16.38 20.74 13.8 20.74C13.38 20.74 12.92 20.72 12.5 20.68V9.78Z" fill="black"/>
<path d="M28.9216 22V20.68H24.1016V15.6H28.0016V14.34H24.1016V9.82H28.8416V8.5H22.4416V22H28.9216Z" fill="black"/>
</svg>
