<svg width="64" height="32" viewBox="0 0 64 32" fill="none" xmlns="http://www.w3.org/2000/svg">
<rect x="0.5" y="0.5" width="63" height="31" rx="15.5" stroke="black"/>
<circle cx="16" cy="16" r="12" fill="black"/>
<path d="M40.32 22V20.68H35.5V15.6H39.4V14.34H35.5V9.82H40.24V8.5H33.84V22H40.32Z" fill="black"/>
<path d="M52.6336 22V8.5H51.1936V15.86C51.1936 17.22 51.2736 19.12 51.2736 19.12H51.2536C51.2536 19.12 50.3136 17.3 49.4536 15.82L45.3336 8.5H43.2736V22H44.6936V13.7C44.6936 12.34 44.6136 10.56 44.6136 10.56H44.6336C44.6336 10.56 45.4736 12.2 46.3736 13.78L51.0136 22H52.6336Z" fill="black"/>
</svg>
