<svg width="283" height="50" viewBox="0 0 283 50" fill="none" xmlns="http://www.w3.org/2000/svg">
<path d="M84.0127 36.9505C84.0127 42.2477 82.7876 46.2528 78.0162 49.9996L72.7934 45.6068C75.5015 43.0229 76.4042 41.0849 76.4687 37.9195H72.2776V26.0333H84.0127V36.9505Z" fill="black"/>
<path d="M84.0107 6.33124H72.4045V18.1529H84.0107V6.33124Z" fill="black"/>
<path d="M0 37.9202V0.452637H28.1126V9.36732H11.2837V15.9564H26.823V24.8711H11.2837V37.9202H0Z" fill="black"/>
<path d="M54.3559 37.9202V23.2561H43.3945V37.9202H31.8529V0.452637H43.3945V13.6309H54.2914V0.452637H65.8975V37.9202H54.3559Z" fill="black"/>
<path d="M90.5928 37.9202V0.452637H106.583C113.934 0.452637 117.093 1.22783 119.35 2.71361C122.639 4.90998 124.251 8.46293 124.251 13.1141C124.251 17.4422 122.574 21.189 119.544 23.3853C116.964 25.2587 113.547 26.1631 107.744 26.1631H102.07V37.9202H90.5928ZM106.455 17.4422C108.711 17.4422 110.323 17.1192 111.226 16.4086C112.064 15.698 112.387 14.6645 112.387 13.4371C112.387 12.2743 112.064 11.2407 111.226 10.4655C110.388 9.69032 109.034 9.43192 106.648 9.43192H102.07V17.4422H106.455Z" fill="black"/>
<path d="M144.303 1.80946V4.26423H146.753V5.55621H144.303V9.23837H142.562V0.452881H147.076V1.80946H144.303Z" fill="black"/>
<path d="M151.911 9.23793L151.782 8.59193C151.202 9.04413 150.621 9.43172 149.783 9.43172C148.493 9.43172 147.784 8.78573 147.784 7.55835C147.784 6.20177 148.88 5.29738 151.137 5.29738H151.524V4.78058C151.524 4.13459 151.137 3.8116 150.299 3.8116C149.654 3.8116 148.88 4.00539 148.3 4.19919L148.107 3.16561C148.88 2.84261 149.719 2.58421 150.75 2.58421C152.427 2.58421 153.2 3.3594 153.2 4.58679V9.23793H151.911ZM151.524 6.26637H151.008C149.719 6.26637 149.396 6.65396 149.396 7.29995C149.396 7.81675 149.719 8.13974 150.299 8.13974C150.686 8.13974 151.137 7.94594 151.524 7.55835V6.26637Z" fill="black"/>
<path d="M157.26 9.36713C155.519 9.36713 154.681 8.26894 154.681 6.07257C154.681 4.00539 155.713 2.58421 157.389 2.58421C158.227 2.58421 158.872 2.90721 159.324 3.424L158.743 4.26379C158.421 4.00539 158.098 3.8116 157.647 3.8116C156.873 3.8116 156.422 4.52219 156.422 5.87877C156.422 7.49375 156.873 8.07514 157.583 8.07514C158.098 8.07514 158.55 7.88134 158.937 7.55835L159.452 8.39814C159.001 8.91493 158.292 9.36713 157.26 9.36713Z" fill="black"/>
<path d="M166.032 9.23768H164.356C164.356 7.8811 164.42 6.52451 164.42 5.81392C164.42 4.26354 164.098 3.87595 163.518 3.87595C163.195 3.87595 162.744 4.06975 162.293 4.39274V9.17308H160.616V0H162.293V3.29456C162.744 2.90696 163.389 2.58397 164.098 2.58397C165.388 2.58397 166.097 3.42376 166.097 5.55553C166.097 6.33072 166.032 7.8165 166.032 9.23768Z" fill="black"/>
<path d="M173.317 9.23768H171.641C171.641 7.8811 171.705 6.52451 171.705 5.81392C171.705 4.26354 171.383 3.87595 170.803 3.87595C170.48 3.87595 170.029 4.06975 169.578 4.39274V9.17308H167.901V0H169.578V3.29456C170.029 2.90696 170.674 2.58397 171.383 2.58397C172.673 2.58397 173.382 3.42376 173.382 5.55553C173.382 6.33072 173.317 7.8165 173.317 9.23768Z" fill="black"/>
<path d="M177.702 9.36703C175.832 9.36703 174.801 8.39804 174.801 6.07247C174.801 3.6823 176.026 2.51952 177.96 2.51952C179.83 2.51952 180.862 3.4885 180.862 5.81407C180.862 8.26884 179.636 9.36703 177.702 9.36703ZM177.831 3.8115C177.057 3.8115 176.542 4.32829 176.542 5.81407C176.542 7.62285 176.993 8.13964 177.831 8.13964C178.605 8.13964 179.121 7.62285 179.121 6.13707C179.185 4.26369 178.669 3.8115 177.831 3.8115Z" fill="black"/>
<path d="M184.667 9.36713C182.926 9.36713 182.088 8.26894 182.088 6.07257C182.088 4.00539 183.12 2.58421 184.796 2.58421C185.634 2.58421 186.279 2.90721 186.731 3.424L186.15 4.26379C185.828 4.00539 185.506 3.8116 185.054 3.8116C184.28 3.8116 183.829 4.52219 183.829 5.87877C183.829 7.49375 184.28 8.07514 184.99 8.07514C185.506 8.07514 185.957 7.88134 186.344 7.55835L186.86 8.39814C186.344 8.91493 185.634 9.36713 184.667 9.36713Z" fill="black"/>
<path d="M193.371 9.23768H191.695C191.695 7.8811 191.759 6.52451 191.759 5.81392C191.759 4.26354 191.437 3.87595 190.856 3.87595C190.534 3.87595 190.083 4.06975 189.631 4.39274V9.17308H187.955V0H189.631V3.29456C190.083 2.90696 190.727 2.58397 191.437 2.58397C192.726 2.58397 193.436 3.42376 193.436 5.55553C193.436 6.33072 193.371 7.8165 193.371 9.23768Z" fill="black"/>
<path d="M196.787 9.36703C196.078 9.36703 195.369 9.17323 194.788 8.85023L194.917 7.94584C195.691 8.13964 196.078 8.13964 196.529 8.13964C197.367 8.13964 197.69 7.81665 197.69 7.42905C197.69 6.97686 197.496 6.78306 196.529 6.46006C195.304 6.00787 194.788 5.49108 194.788 4.52209C194.788 3.3593 195.755 2.51952 197.174 2.51952C197.754 2.51952 198.335 2.64871 198.979 2.97171L198.786 3.8761C198.27 3.7469 197.883 3.6823 197.496 3.6823C196.852 3.6823 196.529 4.0053 196.529 4.32829C196.529 4.71589 196.723 4.90968 197.69 5.23268C198.979 5.68487 199.431 6.26627 199.431 7.23525C199.431 8.46264 198.464 9.36703 196.787 9.36703Z" fill="black"/>
<path d="M203.107 9.36713C201.366 9.36713 200.528 8.26894 200.528 6.07257C200.528 4.00539 201.56 2.58421 203.236 2.58421C204.074 2.58421 204.719 2.90721 205.17 3.424L204.59 4.26379C204.268 4.00539 203.945 3.8116 203.494 3.8116C202.72 3.8116 202.269 4.52219 202.269 5.87877C202.269 7.49375 202.72 8.07514 203.43 8.07514C203.945 8.07514 204.397 7.88134 204.784 7.55835L205.299 8.39814C204.784 8.91493 204.074 9.36713 203.107 9.36713Z" fill="black"/>
<path d="M211.811 9.23768H210.134C210.134 7.8811 210.199 6.52451 210.199 5.81392C210.199 4.26354 209.877 3.87595 209.296 3.87595C208.974 3.87595 208.522 4.06975 208.071 4.39274V9.17308H206.395V0H208.071V3.29456C208.522 2.90696 209.167 2.58397 209.877 2.58397C211.166 2.58397 211.875 3.42376 211.875 5.55553C211.875 6.33072 211.811 7.8165 211.811 9.23768Z" fill="black"/>
<path d="M217.744 9.2369L217.615 8.52631C217.035 9.0431 216.39 9.3661 215.681 9.3661C214.327 9.3661 213.682 8.52631 213.682 6.39454C213.682 5.55475 213.747 4.13357 213.747 2.71239H215.423C215.423 4.00437 215.359 5.36095 215.359 6.13614C215.359 7.68652 215.681 8.00952 216.261 8.00952C216.648 8.00952 217.035 7.81572 217.486 7.49273V2.71239H219.163V9.2369H217.744Z" fill="black"/>
<path d="M222.257 9.36688C221.419 9.36688 220.967 9.10848 220.967 8.0749V0H222.644V7.3643C222.644 8.0749 222.708 8.20409 223.095 8.20409C223.224 8.20409 223.353 8.20409 223.418 8.20409L223.482 9.17308C223.16 9.30228 222.773 9.36688 222.257 9.36688Z" fill="black"/>
<path d="M225.996 6.33096V6.39556C225.996 7.62295 226.512 8.07514 227.479 8.07514C228.059 8.07514 228.833 7.94594 229.607 7.68755L229.865 8.65653C229.091 9.04413 228.124 9.36713 227.156 9.36713C225.48 9.36713 224.319 8.52734 224.319 6.13717C224.319 3.8116 225.48 2.58421 227.285 2.58421C228.962 2.58421 230.058 3.5532 229.865 6.33096H225.996ZM228.188 5.23278C228.188 4.19919 227.866 3.6824 227.156 3.6824C226.447 3.6824 226.06 4.32839 225.996 5.23278H228.188Z" fill="black"/>
<path d="M237.023 6.2668H236.636V9.23837H234.896V0.452881C235.734 0.452881 236.572 0.452881 237.475 0.452881C239.86 0.452881 240.699 1.55107 240.699 3.23064C240.699 4.97482 239.731 6.2668 237.023 6.2668ZM237.152 1.68026H236.636V4.97482H237.152C238.313 4.97482 238.829 4.39343 238.829 3.35984C238.829 2.26166 238.377 1.68026 237.152 1.68026Z" fill="black"/>
<path d="M244.435 9.36703C242.565 9.36703 241.534 8.39804 241.534 6.07247C241.534 3.6823 242.759 2.51952 244.693 2.51952C246.563 2.51952 247.595 3.4885 247.595 5.81407C247.595 8.26884 246.37 9.36703 244.435 9.36703ZM244.564 3.8115C243.79 3.8115 243.275 4.32829 243.275 5.81407C243.275 7.62285 243.726 8.13964 244.564 8.13964C245.338 8.13964 245.854 7.62285 245.854 6.13707C245.854 4.26369 245.402 3.8115 244.564 3.8115Z" fill="black"/>
<path d="M250.821 9.36815C249.596 9.36815 249.144 8.91596 249.144 7.68858V3.87722H248.306V2.71444H249.209C249.338 2.13305 249.467 1.55166 249.596 0.841064H250.821V2.71444H252.239V3.87722H250.821V7.23638C250.821 7.88237 250.95 8.14077 251.401 8.14077C251.594 8.14077 251.852 8.14077 252.304 8.01157L252.433 8.98056C251.852 9.23896 251.337 9.36815 250.821 9.36815Z" fill="black"/>
<path d="M255.271 9.36703C254.561 9.36703 253.852 9.17323 253.272 8.85023L253.401 7.94584C254.175 8.13964 254.561 8.13964 255.013 8.13964C255.851 8.13964 256.173 7.81665 256.173 7.42905C256.173 6.97686 255.98 6.78306 255.013 6.46006C253.788 6.00787 253.272 5.49108 253.272 4.52209C253.272 3.3593 254.239 2.51952 255.658 2.51952C256.238 2.51952 256.818 2.64871 257.463 2.97171L257.334 3.8761C256.818 3.7469 256.431 3.6823 256.044 3.6823C255.4 3.6823 255.077 4.0053 255.077 4.32829C255.077 4.71589 255.271 4.90968 256.238 5.23268C257.527 5.68487 257.979 6.26627 257.979 7.23525C257.979 8.46264 256.947 9.36703 255.271 9.36703Z" fill="black"/>
<path d="M263.264 9.23768L263.135 8.59169C262.619 9.04388 261.974 9.43148 261.329 9.43148C259.782 9.43148 259.073 8.0103 259.073 6.26612C259.073 3.61755 260.491 2.58397 262.297 2.58397C262.554 2.58397 262.877 2.58397 263.006 2.64857V0H264.682V9.23768H263.264ZM262.941 3.87595C262.683 3.81135 262.426 3.74675 262.168 3.74675C261.329 3.74675 260.749 4.45734 260.749 6.00772C260.749 7.36431 261.136 8.0749 261.845 8.0749C262.168 8.0749 262.554 7.8811 263.006 7.5581V3.87595H262.941Z" fill="black"/>
<path d="M270.228 9.23793L270.099 8.59193C269.519 9.04413 268.938 9.43172 268.1 9.43172C266.811 9.43172 266.101 8.78573 266.101 7.55835C266.101 6.20177 267.198 5.29738 269.454 5.29738H269.841V4.78058C269.841 4.13459 269.454 3.8116 268.616 3.8116C267.971 3.8116 267.198 4.00539 266.617 4.19919L266.424 3.16561C267.198 2.84261 268.036 2.58421 269.067 2.58421C270.744 2.58421 271.518 3.3594 271.518 4.58679V9.23793H270.228ZM269.841 6.26637H269.325C268.036 6.26637 267.713 6.65396 267.713 7.29995C267.713 7.81675 268.036 8.13974 268.616 8.13974C269.003 8.13974 269.454 7.94594 269.841 7.55835V6.26637V6.26637Z" fill="black"/>
<path d="M282.351 9.23793H280.675C280.675 7.94594 280.74 6.58936 280.74 5.81417C280.74 4.26379 280.482 3.8762 279.901 3.8762C279.579 3.8762 279.063 4.13459 278.676 4.45759C278.741 4.65139 278.741 4.97438 278.741 5.42658V9.17333H277.064V5.81417C277.064 4.26379 276.806 3.8762 276.226 3.8762C275.904 3.8762 275.452 4.06999 275.065 4.39299V9.17333H273.389V2.71341H274.743L274.872 3.424C275.388 2.97181 276.033 2.58421 276.806 2.58421C277.58 2.58421 278.16 2.97181 278.418 3.5532C279.063 2.97181 279.708 2.58421 280.482 2.58421C281.771 2.58421 282.416 3.424 282.416 5.55577C282.416 6.33096 282.351 7.81675 282.351 9.23793Z" fill="black"/>
<path d="M145.658 23.7082C143.595 23.7082 142.499 22.8038 142.499 20.6075V14.7935H144.239V20.4137C144.239 21.8994 144.691 22.4162 145.787 22.4162C146.754 22.4162 147.334 21.964 147.334 20.4783V14.7289H149.075V20.3491C149.075 22.8038 147.657 23.7082 145.658 23.7082Z" fill="black"/>
<path d="M156.489 23.5787H154.812C154.812 22.2867 154.877 20.9301 154.877 20.1549C154.877 18.6045 154.555 18.2815 153.974 18.2815C153.652 18.2815 153.2 18.4753 152.749 18.7983V23.5787H151.073V17.0542H152.427L152.556 17.7647C153.136 17.248 153.781 16.925 154.555 16.925C155.844 16.925 156.553 17.7647 156.553 19.8965C156.553 20.6717 156.489 22.1575 156.489 23.5787Z" fill="black"/>
<path d="M159.263 16.2142C158.489 16.2142 158.231 16.0204 158.231 15.3098C158.231 14.6638 158.424 14.4054 159.263 14.4054C160.101 14.4054 160.23 14.5992 160.23 15.3098C160.23 15.9558 160.036 16.2142 159.263 16.2142ZM158.36 23.5785V17.054H160.036V23.5785H158.36Z" fill="black"/>
<path d="M165.323 23.5789H163.131L161.261 17.0544H163.066L164.098 20.7365L164.356 22.0285C164.871 20.2843 165.258 18.6693 165.452 17.0544H167.193C166.87 19.3153 166.225 21.5117 165.323 23.5789Z" fill="black"/>
<path d="M169.707 20.607V20.6716C169.707 21.899 170.223 22.3512 171.19 22.3512C171.77 22.3512 172.544 22.222 173.318 21.9636L173.576 22.9326C172.802 23.3202 171.835 23.6432 170.868 23.6432C169.191 23.6432 168.031 22.8034 168.031 20.4132C168.031 18.0876 169.191 16.8603 170.997 16.8603C172.673 16.8603 173.769 17.8292 173.576 20.607H169.707V20.607ZM171.964 19.5734C171.964 18.5398 171.641 18.023 170.932 18.023C170.223 18.023 169.836 18.669 169.772 19.5734H171.964Z" fill="black"/>
<path d="M178.733 18.5399C178.475 18.4753 178.281 18.4753 178.152 18.4753C177.765 18.4753 177.508 18.7337 176.863 19.4443V23.5787H175.186V17.0542H176.54L176.669 18.0877C177.314 17.1834 177.765 16.925 178.217 16.925C178.41 16.925 178.604 16.9896 178.862 17.0542L178.733 18.5399Z" fill="black"/>
<path d="M181.636 23.7078C180.927 23.7078 180.217 23.514 179.637 23.191L179.766 22.2866C180.475 22.4804 180.927 22.4804 181.378 22.4804C182.216 22.4804 182.539 22.1574 182.539 21.7698C182.539 21.3176 182.345 21.1238 181.378 20.8008C180.153 20.3486 179.637 19.8318 179.637 18.8628C179.637 17.7 180.604 16.8603 182.023 16.8603C182.603 16.8603 183.183 16.9895 183.828 17.3125L183.635 18.1522C183.119 18.023 182.732 17.9584 182.345 17.9584C181.7 17.9584 181.378 18.2814 181.378 18.6044C181.378 18.992 181.571 19.1858 182.539 19.5088C183.828 19.961 184.279 20.5424 184.279 21.5114C184.279 22.8034 183.312 23.7078 181.636 23.7078Z" fill="black"/>
<path d="M186.535 16.2142C185.762 16.2142 185.504 16.0204 185.504 15.3098C185.504 14.6638 185.697 14.4054 186.535 14.4054C187.374 14.4054 187.502 14.5992 187.502 15.3098C187.502 15.9558 187.309 16.2142 186.535 16.2142ZM185.633 23.5785V17.054H187.309V23.5785H185.633Z" fill="black"/>
<path d="M190.982 23.7078C189.757 23.7078 189.306 23.2556 189.306 22.0282V18.2814H188.468V17.1187H189.37C189.499 16.5373 189.628 15.9559 189.757 15.2453H190.982V17.1187H192.401V18.2814H190.982V21.6406C190.982 22.2866 191.111 22.545 191.563 22.545C191.756 22.545 192.014 22.545 192.465 22.4158L192.594 23.3848C192.014 23.5786 191.498 23.7078 190.982 23.7078Z" fill="black"/>
<path d="M194.144 25.9043C193.886 25.9043 193.499 25.8397 193.177 25.6459V24.677C193.37 24.677 193.693 24.7416 193.822 24.7416C194.209 24.7416 194.531 24.677 194.789 24.4832C195.047 24.2248 195.176 24.031 195.176 23.708C195.176 23.4496 195.111 23.062 194.853 22.416L193.241 17.1189H195.047L196.014 20.6718C196.207 21.3178 196.336 21.8992 196.272 22.2868C196.788 20.7364 197.239 18.7338 197.368 16.9897H199.109C198.077 23.8372 195.95 25.9043 194.144 25.9043Z" fill="black"/>
<path d="M205.685 23.7078C203.816 23.7078 202.784 22.7388 202.784 20.4132C202.784 18.023 204.009 16.8603 205.943 16.8603C207.813 16.8603 208.845 17.8292 208.845 20.1548C208.845 22.6096 207.62 23.7078 205.685 23.7078ZM205.814 18.1522C205.041 18.1522 204.525 18.669 204.525 20.1548C204.525 21.9636 204.976 22.4804 205.814 22.4804C206.588 22.4804 207.104 21.9636 207.104 20.4778C207.104 18.6044 206.653 18.1522 205.814 18.1522Z" fill="black"/>
<path d="M213.615 15.568C213.357 15.4388 213.099 15.4388 212.841 15.4388C212.325 15.4388 212.132 15.6972 212.132 16.2786V17.1184H213.293V18.2812H212.132V23.6429H210.456V18.2812H209.617V17.1184H210.456V16.3432C210.456 15.0512 210.971 14.276 212.261 14.276C212.906 14.276 213.422 14.4698 213.808 14.6636L213.615 15.568Z" fill="black"/>
<path d="M147.01 37.9199C146.881 37.4031 146.752 36.6925 146.624 36.1757H143.722C143.593 36.6925 143.464 37.3385 143.335 37.9199H141.659C142.303 35.0129 143.142 31.9767 144.109 29.1344H146.43C147.462 32.1705 148.235 34.9483 148.88 37.9199H147.01ZM145.141 30.6847C144.754 31.9121 144.367 33.5271 143.98 34.8837H146.301C145.979 33.5271 145.592 32.0413 145.141 30.6847Z" fill="black"/>
<path d="M152.426 38.0485C152.232 38.0485 151.974 38.0485 151.716 37.9839V40.1157H150.04V31.3948H151.394L151.523 32.0408C152.039 31.5886 152.684 31.201 153.328 31.201C154.876 31.201 155.65 32.6222 155.65 34.3664C155.714 36.9503 154.296 38.0485 152.426 38.0485ZM152.942 32.493C152.619 32.493 152.232 32.6868 151.781 33.0098V36.6273C151.974 36.6919 152.297 36.7565 152.555 36.7565C153.393 36.7565 153.973 36.046 153.973 34.4956C153.973 33.2682 153.586 32.493 152.942 32.493Z" fill="black"/>
<path d="M159.584 38.0485C159.39 38.0485 159.133 38.0485 158.875 37.9839V40.1157H157.198V31.3948H158.552L158.681 32.0408C159.197 31.5886 159.842 31.201 160.487 31.201C162.034 31.201 162.808 32.6222 162.808 34.3664C162.808 36.9503 161.454 38.0485 159.584 38.0485ZM160.035 32.493C159.713 32.493 159.326 32.6868 158.875 33.0098V36.6273C159.068 36.6919 159.39 36.7565 159.648 36.7565C160.487 36.7565 161.067 36.046 161.067 34.4956C161.131 33.2682 160.744 32.493 160.035 32.493Z" fill="black"/>
<path d="M165.646 37.985C164.808 37.985 164.356 37.7266 164.356 36.693V28.6827H166.033V36.047C166.033 36.7576 166.097 36.8868 166.484 36.8868C166.613 36.8868 166.742 36.8868 166.807 36.8868L166.871 37.8558C166.549 37.9204 166.162 37.985 165.646 37.985Z" fill="black"/>
<path d="M168.999 30.555C168.225 30.555 167.967 30.3612 167.967 29.6506C167.967 29.0046 168.161 28.7462 168.999 28.7462C169.837 28.7462 169.966 28.94 169.966 29.6506C169.966 30.2966 169.773 30.555 168.999 30.555ZM168.161 37.9193V31.3947H169.837V37.9193H168.161Z" fill="black"/>
<path d="M173.059 34.9478V35.0124C173.059 36.2397 173.575 36.6919 174.542 36.6919C175.122 36.6919 175.896 36.5627 176.67 36.3043L176.928 37.2733C176.154 37.6609 175.187 37.9839 174.22 37.9839C172.543 37.9839 171.383 37.1441 171.383 34.754C171.383 32.4284 172.543 31.201 174.349 31.201C176.025 31.201 177.121 32.17 176.928 34.9478H173.059ZM175.251 33.9142C175.251 32.8806 174.929 32.3638 174.22 32.3638C173.51 32.3638 173.124 33.0098 173.059 33.9142H175.251Z" fill="black"/>
<path d="M182.41 37.9193L182.281 37.2733C181.765 37.7255 181.12 38.1131 180.475 38.1131C178.928 38.1131 178.219 36.6919 178.219 34.9477C178.219 32.2991 179.637 31.2656 181.442 31.2656C181.7 31.2656 182.023 31.2656 182.152 31.3302V28.7462H183.828V37.9839H182.41V37.9193ZM182.087 32.5575C181.829 32.4929 181.571 32.4283 181.314 32.4283C180.475 32.4283 179.895 33.1389 179.895 34.6893C179.895 36.0459 180.282 36.7565 180.991 36.7565C181.314 36.7565 181.7 36.5627 182.152 36.2397V32.5575H182.087Z" fill="black"/>
<path d="M191.243 38.0489C190.211 38.0489 189.373 37.7259 188.599 37.2091L188.986 36.3047C189.696 36.5631 190.405 36.7569 190.856 36.7569C191.759 36.7569 192.339 36.3693 192.339 35.5941C192.339 33.8499 188.664 34.2375 188.664 31.4597C188.664 29.974 189.824 29.005 191.501 29.005C192.339 29.005 193.113 29.1988 193.822 29.7156L193.435 30.62C192.855 30.4262 192.275 30.297 191.823 30.297C190.921 30.297 190.534 30.6846 190.534 31.3305C190.534 33.0747 194.273 32.7517 194.273 35.4649C194.273 36.8861 193.177 38.0489 191.243 38.0489Z" fill="black"/>
<path d="M197.948 38.0498C196.208 38.0498 195.369 36.9517 195.369 34.7553C195.369 32.6881 196.401 31.2669 198.077 31.2669C198.916 31.2669 199.56 31.5899 200.012 32.1067L199.431 32.9465C199.109 32.6881 198.787 32.4943 198.335 32.4943C197.562 32.4943 197.11 33.2049 197.11 34.5615C197.11 36.1765 197.562 36.7579 198.271 36.7579C198.787 36.7579 199.238 36.5641 199.625 36.2411L200.141 37.0809C199.689 37.5976 198.98 38.0498 197.948 38.0498Z" fill="black"/>
<path d="M202.268 30.555C201.494 30.555 201.236 30.3612 201.236 29.6506C201.236 29.0046 201.429 28.7462 202.268 28.7462C203.106 28.7462 203.235 28.94 203.235 29.6506C203.299 30.2966 203.106 30.555 202.268 30.555ZM201.429 37.9193V31.3947H203.106V37.9193H201.429Z" fill="black"/>
<path d="M206.33 34.9478V35.0124C206.33 36.2397 206.846 36.6919 207.813 36.6919C208.394 36.6919 209.167 36.5627 209.941 36.3043L210.199 37.2733C209.425 37.6609 208.458 37.9839 207.491 37.9839C205.815 37.9839 204.654 37.1441 204.654 34.754C204.654 32.4284 205.815 31.201 207.62 31.201C209.296 31.201 210.393 32.17 210.199 34.9478H206.33ZM208.587 33.9142C208.587 32.8806 208.265 32.3638 207.556 32.3638C206.846 32.3638 206.459 33.0098 206.395 33.9142H208.587Z" fill="black"/>
<path d="M217.228 37.9206H215.552C215.552 36.6287 215.616 35.2721 215.616 34.4969C215.616 32.9465 215.294 32.6235 214.714 32.6235C214.391 32.6235 213.94 32.8173 213.489 33.1403V37.9206H211.812V31.3961H213.166L213.295 32.1067C213.875 31.5899 214.52 31.2669 215.294 31.2669C216.584 31.2669 217.293 32.1067 217.293 34.2385C217.293 35.0137 217.228 36.4995 217.228 37.9206Z" fill="black"/>
<path d="M221.354 38.0498C219.613 38.0498 218.775 36.9517 218.775 34.7553C218.775 32.6881 219.807 31.2669 221.483 31.2669C222.321 31.2669 222.966 31.5899 223.417 32.1067L222.837 32.9465C222.515 32.6881 222.192 32.4943 221.741 32.4943C220.967 32.4943 220.516 33.2049 220.516 34.5615C220.516 36.1765 220.967 36.7579 221.677 36.7579C222.192 36.7579 222.644 36.5641 223.031 36.2411L223.546 37.0809C223.031 37.5976 222.321 38.0498 221.354 38.0498Z" fill="black"/>
<path d="M225.932 34.9478V35.0124C225.932 36.2397 226.448 36.6919 227.415 36.6919C227.996 36.6919 228.769 36.5627 229.543 36.3043L229.801 37.2733C229.027 37.6609 228.06 37.9839 227.093 37.9839C225.417 37.9839 224.256 37.1441 224.256 34.754C224.256 32.4284 225.417 31.201 227.222 31.201C228.898 31.201 229.995 32.17 229.801 34.9478H225.932ZM228.189 33.9142C228.189 32.8806 227.867 32.3638 227.157 32.3638C226.448 32.3638 226.061 33.0098 225.997 33.9142H228.189Z" fill="black"/>
<path d="M232.961 38.0485C232.252 38.0485 231.543 37.8547 230.962 37.5317L231.091 36.6273C231.801 36.8211 232.252 36.8211 232.703 36.8211C233.542 36.8211 233.864 36.4981 233.864 36.1105C233.864 35.6584 233.671 35.4646 232.703 35.1416C231.478 34.6894 230.962 34.1726 230.962 33.2036C230.962 32.0408 231.93 31.201 233.348 31.201C233.928 31.201 234.509 31.3302 235.154 31.6532L234.96 32.493C234.444 32.3638 234.057 32.2992 233.671 32.2992C233.026 32.2992 232.703 32.6222 232.703 32.9452C232.703 33.3328 232.897 33.5266 233.864 33.8496C235.154 34.3018 235.605 34.8832 235.605 35.8522C235.605 37.1441 234.638 38.0485 232.961 38.0485Z" fill="black"/>
</svg>
