<svg width="280" height="61" viewBox="0 0 280 61" fill="none" xmlns="http://www.w3.org/2000/svg">
<path d="M77.3289 36.0081V22.5081H74.6289V36.0081H77.3289Z" fill="black"/>
<path d="M88.433 36.0081C88.433 33.8081 88.513 31.5481 88.513 30.3081C88.513 27.0481 87.453 25.7681 85.413 25.7681C84.293 25.7681 83.273 26.3081 82.413 27.0481L82.233 25.9881H80.113V36.0081H82.693V28.6481C83.353 28.1481 84.013 27.8281 84.593 27.8281C85.473 27.8281 85.933 28.3681 85.933 30.7481C85.933 31.9281 85.873 33.9881 85.873 36.0081H88.433Z" fill="black"/>
<path d="M96.0909 34.0681C95.4509 34.2481 95.0309 34.2881 94.7109 34.2881C94.0509 34.2881 93.8109 33.9681 93.8109 32.9481V27.7881H96.0309V25.9881H93.8109V23.0681H91.9309C91.7509 24.1881 91.5709 25.0881 91.3309 25.9881H89.9709V27.7881H91.2309V33.5881C91.2309 35.5081 91.9309 36.2081 93.7709 36.2081C94.5309 36.2081 95.3509 36.0281 96.2909 35.5481L96.0909 34.0681Z" fill="black"/>
<path d="M105.964 31.5081C106.244 27.2081 104.544 25.7681 101.964 25.7681C99.1641 25.7681 97.4241 27.6881 97.4241 31.2681C97.4241 34.9281 99.1641 36.2281 101.784 36.2281C103.264 36.2281 104.704 35.8081 105.924 35.1681L105.544 33.6881C104.384 34.0681 103.204 34.2681 102.304 34.2681C100.864 34.2681 100.064 33.4881 100.064 31.6481V31.5081H105.964ZM100.084 29.9081C100.144 28.4681 100.744 27.4881 101.864 27.4881C102.944 27.4881 103.484 28.2681 103.484 29.8681V29.9081H100.084Z" fill="black"/>
<path d="M113.88 26.0081C113.54 25.8481 113.2 25.7881 112.9 25.7881C112.18 25.7881 111.5 26.2281 110.48 27.5681L110.28 25.9881H108.16V36.0081H110.74V29.6481C111.64 28.5081 112.12 28.1281 112.68 28.1281C112.88 28.1281 113.14 28.1481 113.56 28.2681L113.88 26.0081Z" fill="black"/>
<path d="M122.772 36.0081V28.8881C122.772 26.9881 121.572 25.7681 119.012 25.7681C117.512 25.7681 116.172 26.1481 114.992 26.6681L115.332 28.2281C116.232 27.9081 117.332 27.6281 118.372 27.6281C119.652 27.6281 120.232 28.1281 120.232 29.1481V29.9081H119.592C115.972 29.9081 114.452 31.1881 114.452 33.2681C114.452 35.1081 115.712 36.2281 117.552 36.2281C118.812 36.2281 119.752 35.7281 120.612 34.9881L120.792 36.0081H122.772ZM120.232 33.5281C119.612 34.0881 118.932 34.4081 118.332 34.4081C117.372 34.4081 116.972 33.8881 116.972 33.0481C116.972 32.1081 117.532 31.4881 119.472 31.4881H120.232V33.5281Z" fill="black"/>
<path d="M131.407 33.4281C130.667 34.0281 130.047 34.2681 129.367 34.2681C128.107 34.2681 127.487 33.2881 127.487 30.9081C127.487 28.7681 128.227 27.6881 129.387 27.6881C129.987 27.6881 130.527 27.8881 131.087 28.3481L131.987 27.0281C131.287 26.2281 130.267 25.7681 128.987 25.7681C126.407 25.7681 124.807 27.9681 124.807 31.1281C124.807 34.5281 126.167 36.2081 128.807 36.2081C130.327 36.2081 131.427 35.5481 132.207 34.7481L131.407 33.4281Z" fill="black"/>
<path d="M138.767 34.0681C138.127 34.2481 137.707 34.2881 137.387 34.2881C136.727 34.2881 136.487 33.9681 136.487 32.9481V27.7881H138.707V25.9881H136.487V23.0681H134.607C134.427 24.1881 134.247 25.0881 134.007 25.9881H132.647V27.7881H133.907V33.5881C133.907 35.5081 134.607 36.2081 136.447 36.2081C137.207 36.2081 138.027 36.0281 138.967 35.5481L138.767 34.0681Z" fill="black"/>
<path d="M143.48 23.3481C143.48 22.3081 143.2 22.0081 141.96 22.0081C140.74 22.0081 140.42 22.3481 140.42 23.3481C140.42 24.3681 140.72 24.6881 141.96 24.6881C143.18 24.6881 143.48 24.3481 143.48 23.3481ZM143.24 36.0081V25.9881H140.66V36.0081H143.24Z" fill="black"/>
<path d="M154.556 30.8081C154.556 27.2081 152.956 25.7681 150.116 25.7681C147.136 25.7681 145.276 27.4881 145.276 31.1881C145.276 34.7881 146.876 36.2281 149.716 36.2281C152.696 36.2281 154.556 34.4881 154.556 30.8081ZM151.916 31.2281C151.916 33.5081 151.096 34.3281 149.936 34.3281C148.656 34.3281 147.936 33.5881 147.936 30.7681C147.936 28.4881 148.736 27.6681 149.916 27.6681C151.176 27.6681 151.916 28.4081 151.916 31.2281Z" fill="black"/>
<path d="M164.917 36.0081C164.917 33.8081 164.997 31.5481 164.997 30.3081C164.997 27.0481 163.937 25.7681 161.897 25.7681C160.777 25.7681 159.757 26.3081 158.897 27.0481L158.717 25.9881H156.597V36.0081H159.177V28.6481C159.837 28.1481 160.497 27.8281 161.077 27.8281C161.957 27.8281 162.417 28.3681 162.417 30.7481C162.417 31.9281 162.357 33.9881 162.357 36.0081H164.917Z" fill="black"/>
<path d="M172.5 36.0081C173.52 36.0281 174.64 36.0681 175.78 36.0681C180.12 36.0681 182.12 33.4481 182.12 28.8881C182.12 25.2081 180.58 22.4681 176.26 22.4681C175.06 22.4681 173.86 22.5081 172.5 22.5081V36.0081ZM175.2 24.5081C175.5 24.4881 175.82 24.4881 176.12 24.4881C178.34 24.4881 179.28 26.1281 179.28 29.1881C179.28 32.3081 178.28 34.0081 176.14 34.0081C175.84 34.0081 175.52 33.9881 175.2 33.9681V24.5081Z" fill="black"/>
<path d="M192.214 31.5081C192.494 27.2081 190.794 25.7681 188.214 25.7681C185.414 25.7681 183.674 27.6881 183.674 31.2681C183.674 34.9281 185.414 36.2281 188.034 36.2281C189.514 36.2281 190.954 35.8081 192.174 35.1681L191.794 33.6881C190.634 34.0681 189.454 34.2681 188.554 34.2681C187.114 34.2681 186.314 33.4881 186.314 31.6481V31.5081H192.214ZM186.334 29.9081C186.394 28.4681 186.994 27.4881 188.114 27.4881C189.194 27.4881 189.734 28.2681 189.734 29.8681V29.9081H186.334Z" fill="black"/>
<path d="M193.67 35.3881C194.71 35.9281 195.69 36.2081 196.83 36.2081C199.37 36.2081 200.87 34.8881 200.87 33.0481C200.87 29.5681 196.41 30.3881 196.41 28.5681C196.41 28.0081 196.87 27.5281 197.91 27.5281C198.47 27.5281 199.05 27.6281 199.89 27.8281L200.17 26.5081C199.13 25.9681 198.27 25.7681 197.37 25.7681C195.17 25.7681 193.71 26.9881 193.71 28.7681C193.71 32.2281 198.15 31.4281 198.15 33.2481C198.15 33.8881 197.65 34.3881 196.37 34.3881C195.71 34.3881 194.99 34.3081 193.89 34.0481L193.67 35.3881Z" fill="black"/>
<path d="M205.55 23.3481C205.55 22.3081 205.27 22.0081 204.03 22.0081C202.81 22.0081 202.49 22.3481 202.49 23.3481C202.49 24.3681 202.79 24.6881 204.03 24.6881C205.25 24.6881 205.55 24.3481 205.55 23.3481ZM205.31 36.0081V25.9881H202.73V36.0081H205.31Z" fill="black"/>
<path d="M215.986 26.1881C215.026 25.9681 213.686 25.7681 212.526 25.7681C209.546 25.7681 207.346 27.4281 207.346 31.1881C207.346 33.7481 208.566 35.8681 210.866 35.8681C211.846 35.8681 212.706 35.3881 213.406 34.8681V36.0481C213.406 37.3281 212.786 37.7481 211.426 37.7481C210.526 37.7481 209.426 37.5881 208.346 37.4081L208.146 38.8481C209.466 39.3881 210.646 39.6481 211.706 39.6481C214.066 39.6481 215.986 38.8481 215.986 35.6281V26.1881ZM213.406 33.1081C212.866 33.5681 212.166 33.9481 211.646 33.9481C210.626 33.9481 209.986 32.8681 209.986 30.8081C209.986 28.7081 210.886 27.6081 212.166 27.6081C212.586 27.6081 213.046 27.6881 213.406 27.8081V33.1081Z" fill="black"/>
<path d="M226.91 36.0081C226.91 33.8081 226.99 31.5481 226.99 30.3081C226.99 27.0481 225.93 25.7681 223.89 25.7681C222.77 25.7681 221.75 26.3081 220.89 27.0481L220.71 25.9881H218.59V36.0081H221.17V28.6481C221.83 28.1481 222.49 27.8281 223.07 27.8281C223.95 27.8281 224.41 28.3681 224.41 30.7481C224.41 31.9281 224.35 33.9881 224.35 36.0081H226.91Z" fill="black"/>
<path d="M241.112 36.0081V33.9081H237.192V22.5081H234.492V36.0081H241.112Z" fill="black"/>
<path d="M250.447 36.0081V28.8881C250.447 26.9881 249.247 25.7681 246.687 25.7681C245.187 25.7681 243.847 26.1481 242.667 26.6681L243.007 28.2281C243.907 27.9081 245.007 27.6281 246.047 27.6281C247.327 27.6281 247.907 28.1281 247.907 29.1481V29.9081H247.267C243.647 29.9081 242.127 31.1881 242.127 33.2681C242.127 35.1081 243.387 36.2281 245.227 36.2281C246.487 36.2281 247.427 35.7281 248.287 34.9881L248.467 36.0081H250.447ZM247.907 33.5281C247.287 34.0881 246.607 34.4081 246.007 34.4081C245.047 34.4081 244.647 33.8881 244.647 33.0481C244.647 32.1081 245.207 31.4881 247.147 31.4881H247.907V33.5281Z" fill="black"/>
<path d="M253.043 35.8281C254.003 36.0481 255.183 36.2281 256.423 36.2281C259.563 36.2281 261.683 34.5881 261.683 30.6081C261.683 27.9481 260.503 25.7681 258.123 25.7681C257.183 25.7681 256.323 26.2081 255.623 26.7881V21.8281H253.043V35.8281ZM255.623 28.5881C256.263 28.0281 256.943 27.7481 257.403 27.7481C258.423 27.7481 259.043 28.8881 259.043 30.9681C259.043 33.3281 258.103 34.3881 256.803 34.3881C256.303 34.3881 255.903 34.3081 255.623 34.2081V28.5881Z" fill="black"/>
<path d="M81.2689 45.8081V44.5081H74.9889V58.0081H76.6489V51.8081H80.8689V50.5281H76.6489V45.8081H81.2689Z" fill="black"/>
<path d="M89.9427 58.0081V50.9081C89.9427 49.1681 89.0027 47.9281 86.5627 47.9281C85.1427 47.9281 83.9827 48.3081 83.0627 48.6881L83.3227 49.7081C84.0627 49.4281 85.0827 49.1281 86.1227 49.1281C87.7027 49.1281 88.3627 49.7681 88.3627 51.1481V52.1881H87.5227C83.9627 52.1881 82.5627 53.4881 82.5627 55.4481C82.5627 57.1481 83.7427 58.1681 85.4427 58.1681C86.7027 58.1681 87.6427 57.6481 88.5627 56.8881L88.7027 58.0081H89.9427ZM88.3627 55.8481C87.5027 56.6081 86.6627 57.0081 85.8827 57.0081C84.6027 57.0081 84.1427 56.3281 84.1427 55.2681C84.1427 54.1081 84.7827 53.2481 87.4227 53.2481H88.3627V55.8481Z" fill="black"/>
<path d="M99.0059 55.8881C98.2059 56.6281 97.4859 56.9281 96.7059 56.9281C95.0659 56.9281 94.2859 55.5881 94.2859 52.9681C94.2859 50.5681 95.1659 49.1481 96.6859 49.1481C97.4459 49.1481 98.0459 49.4081 98.7059 49.9681L99.3259 49.1481C98.6459 48.3881 97.6859 47.9281 96.4859 47.9281C94.1859 47.9281 92.6259 49.9681 92.6259 53.1881C92.6259 56.5081 93.9659 58.1681 96.3659 58.1681C97.7859 58.1681 98.7859 57.5681 99.5859 56.7081L99.0059 55.8881Z" fill="black"/>
<path d="M109.261 58.0081C109.261 55.9481 109.321 53.5281 109.321 52.3281C109.321 49.0681 108.161 47.9281 106.341 47.9281C105.261 47.9281 104.261 48.5081 103.401 49.1681V43.8281H101.821V58.0081H103.401V50.3881C104.241 49.6881 105.121 49.2081 105.921 49.2081C107.081 49.2081 107.741 50.1281 107.741 52.6881C107.741 53.9281 107.701 56.1281 107.701 58.0081H109.261Z" fill="black"/>
<path d="M120.062 58.0081C120.062 55.9481 120.122 53.5281 120.122 52.3281C120.122 49.0681 118.962 47.9281 117.142 47.9281C116.062 47.9281 115.062 48.5081 114.202 49.1681V43.8281H112.622V58.0081H114.202V50.3881C115.042 49.6881 115.922 49.2081 116.722 49.2081C117.882 49.2081 118.542 50.1281 118.542 52.6881C118.542 53.9281 118.502 56.1281 118.502 58.0081H120.062Z" fill="black"/>
<path d="M131.163 52.8681C131.163 49.4481 129.663 47.9281 127.163 47.9281C124.503 47.9281 122.763 49.6081 122.763 53.2281C122.763 56.6681 124.243 58.1681 126.743 58.1681C129.403 58.1681 131.163 56.5081 131.163 52.8681ZM129.523 53.2881C129.523 55.8081 128.503 56.9681 126.983 56.9681C125.243 56.9681 124.403 55.8481 124.403 52.8081C124.403 50.3081 125.403 49.1481 126.943 49.1481C128.663 49.1481 129.523 50.2681 129.523 53.2881Z" fill="black"/>
<path d="M139.592 55.8881C138.792 56.6281 138.072 56.9281 137.292 56.9281C135.652 56.9281 134.872 55.5881 134.872 52.9681C134.872 50.5681 135.752 49.1481 137.272 49.1481C138.032 49.1481 138.632 49.4081 139.292 49.9681L139.912 49.1481C139.232 48.3881 138.272 47.9281 137.072 47.9281C134.772 47.9281 133.212 49.9681 133.212 53.1881C133.212 56.5081 134.552 58.1681 136.952 58.1681C138.372 58.1681 139.372 57.5681 140.172 56.7081L139.592 55.8881Z" fill="black"/>
<path d="M149.847 58.0081C149.847 55.9481 149.907 53.5281 149.907 52.3281C149.907 49.0681 148.747 47.9281 146.927 47.9281C145.847 47.9281 144.847 48.5081 143.987 49.1681V43.8281H142.407V58.0081H143.987V50.3881C144.827 49.6881 145.707 49.2081 146.507 49.2081C147.667 49.2081 148.327 50.1281 148.327 52.6881C148.327 53.9281 148.287 56.1281 148.287 58.0081H149.847Z" fill="black"/>
<path d="M152.348 57.4681C153.208 57.9081 154.108 58.1681 155.188 58.1681C157.388 58.1681 158.748 56.9681 158.748 55.2681C158.748 51.8881 154.028 52.8481 154.028 50.5081C154.028 49.7281 154.648 49.0881 155.888 49.0881C156.468 49.0881 157.088 49.1881 157.748 49.3881L157.988 48.5081C157.168 48.0881 156.408 47.9281 155.628 47.9281C153.668 47.9281 152.388 49.0881 152.388 50.6681C152.388 54.0281 157.068 53.0681 157.068 55.4081C157.068 56.2881 156.408 56.9881 154.948 56.9881C154.208 56.9881 153.488 56.8481 152.548 56.5681L152.348 57.4681Z" fill="black"/>
<path d="M166.955 55.8881C166.155 56.6281 165.435 56.9281 164.655 56.9281C163.015 56.9281 162.235 55.5881 162.235 52.9681C162.235 50.5681 163.115 49.1481 164.635 49.1481C165.395 49.1481 165.995 49.4081 166.655 49.9681L167.275 49.1481C166.595 48.3881 165.635 47.9281 164.435 47.9281C162.135 47.9281 160.575 49.9681 160.575 53.1881C160.575 56.5081 161.915 58.1681 164.315 58.1681C165.735 58.1681 166.735 57.5681 167.535 56.7081L166.955 55.8881Z" fill="black"/>
<path d="M177.21 58.0081C177.21 55.9481 177.27 53.5281 177.27 52.3281C177.27 49.0681 176.11 47.9281 174.29 47.9281C173.21 47.9281 172.21 48.5081 171.35 49.1681V43.8281H169.77V58.0081H171.35V50.3881C172.19 49.6881 173.07 49.2081 173.87 49.2081C175.03 49.2081 175.69 50.1281 175.69 52.6881C175.69 53.9281 175.65 56.1281 175.65 58.0081H177.21Z" fill="black"/>
<path d="M187.874 58.0081V48.0881H186.294V55.7281C185.474 56.4081 184.594 56.8881 183.794 56.8881C182.594 56.8881 181.974 55.9281 181.974 53.4081C181.974 52.0081 182.014 49.8881 182.014 48.0881H180.454C180.454 50.0681 180.374 52.4281 180.374 53.7681C180.374 57.0081 181.574 58.1681 183.354 58.1681C184.474 58.1681 185.514 57.5681 186.434 56.8481L186.574 58.0081H187.874Z" fill="black"/>
<path d="M194.215 56.9481C194.055 56.9681 193.795 56.9881 193.615 56.9881C192.975 56.9881 192.835 56.7681 192.835 55.5681V43.8281H191.255V56.1881C191.255 57.8081 191.775 58.1481 192.935 58.1481C193.395 58.1481 193.935 58.0681 194.295 57.9481L194.215 56.9481Z" fill="black"/>
<path d="M203.507 53.2481C203.727 49.4281 202.307 47.9281 199.967 47.9281C197.407 47.9281 195.907 49.8881 195.907 53.3481C195.907 56.8681 197.507 58.1681 199.907 58.1681C201.247 58.1681 202.487 57.7881 203.487 57.2681L203.187 56.3081C202.167 56.7281 201.187 56.9281 200.287 56.9281C198.507 56.9281 197.547 55.9281 197.547 53.4481V53.2481H203.507ZM197.547 52.1881C197.647 50.4281 198.367 49.0681 199.867 49.0681C201.287 49.0681 201.967 50.2081 201.967 52.1081V52.1881H197.547Z" fill="black"/>
<path d="M212.997 58.0081V53.0281H213.777C217.737 53.0281 219.237 51.0281 219.237 48.5281C219.237 46.1281 217.997 44.4881 214.357 44.4881C213.017 44.4881 212.217 44.5081 211.337 44.5081V58.0081H212.997ZM212.997 45.7481H214.117C216.597 45.7481 217.477 46.8481 217.477 48.7281C217.477 50.5681 216.437 51.7481 214.097 51.7481H212.997V45.7481Z" fill="black"/>
<path d="M229.034 52.8681C229.034 49.4481 227.534 47.9281 225.034 47.9281C222.374 47.9281 220.634 49.6081 220.634 53.2281C220.634 56.6681 222.114 58.1681 224.614 58.1681C227.274 58.1681 229.034 56.5081 229.034 52.8681ZM227.394 53.2881C227.394 55.8081 226.374 56.9681 224.854 56.9681C223.114 56.9681 222.274 55.8481 222.274 52.8081C222.274 50.3081 223.274 49.1481 224.814 49.1481C226.534 49.1481 227.394 50.2681 227.394 53.2881Z" fill="black"/>
<path d="M236.146 56.6281C235.406 56.8881 234.946 56.9481 234.586 56.9481C233.626 56.9481 233.406 56.4681 233.406 55.1081V49.2481H236.086V48.0881H233.406V45.2681H232.266C232.146 46.3081 232.006 47.2081 231.846 48.0881H230.246V49.2481H231.826V55.5081C231.826 57.4481 232.426 58.1681 234.106 58.1681C234.766 58.1681 235.546 57.9681 236.346 57.5881L236.146 56.6281Z" fill="black"/>
<path d="M237.68 57.4681C238.54 57.9081 239.44 58.1681 240.52 58.1681C242.72 58.1681 244.08 56.9681 244.08 55.2681C244.08 51.8881 239.36 52.8481 239.36 50.5081C239.36 49.7281 239.98 49.0881 241.22 49.0881C241.8 49.0881 242.42 49.1881 243.08 49.3881L243.32 48.5081C242.5 48.0881 241.74 47.9281 240.96 47.9281C239 47.9281 237.72 49.0881 237.72 50.6681C237.72 54.0281 242.4 53.0681 242.4 55.4081C242.4 56.2881 241.74 56.9881 240.28 56.9881C239.54 56.9881 238.82 56.8481 237.88 56.5681L237.68 57.4681Z" fill="black"/>
<path d="M253.567 58.0081V43.8281H251.987V48.0081C251.647 47.9881 251.067 47.9281 250.607 47.9281C248.107 47.9281 245.907 49.4481 245.907 53.4281C245.907 56.2081 247.207 58.1681 249.207 58.1681C250.287 58.1681 251.247 57.6281 252.127 56.9081L252.287 58.0081H253.567ZM251.987 55.7881C251.127 56.5481 250.267 56.9281 249.687 56.9281C248.347 56.9281 247.547 55.4681 247.547 53.1281C247.547 50.3881 248.767 49.1081 250.407 49.1081C250.927 49.1081 251.487 49.2081 251.987 49.3681V55.7881Z" fill="black"/>
<path d="M263.458 58.0081V50.9081C263.458 49.1681 262.518 47.9281 260.078 47.9281C258.658 47.9281 257.498 48.3081 256.578 48.6881L256.838 49.7081C257.578 49.4281 258.598 49.1281 259.638 49.1281C261.218 49.1281 261.878 49.7681 261.878 51.1481V52.1881H261.038C257.478 52.1881 256.078 53.4881 256.078 55.4481C256.078 57.1481 257.258 58.1681 258.958 58.1681C260.218 58.1681 261.158 57.6481 262.078 56.8881L262.218 58.0081H263.458ZM261.878 55.8481C261.018 56.6081 260.178 57.0081 259.398 57.0081C258.118 57.0081 257.658 56.3281 257.658 55.2681C257.658 54.1081 258.298 53.2481 260.938 53.2481H261.878V55.8481Z" fill="black"/>
<path d="M279.742 58.0081C279.742 56.0281 279.802 53.6681 279.802 52.3281C279.802 49.0881 278.622 47.9281 276.982 47.9281C275.762 47.9281 274.642 48.6481 273.622 49.5081C273.262 48.6881 272.542 47.9281 271.282 47.9281C270.182 47.9281 269.162 48.5281 268.242 49.2681L268.102 48.0881H266.802V58.0081H268.382V50.3881C269.222 49.6881 270.102 49.2081 270.822 49.2081C271.942 49.2081 272.502 50.1681 272.502 52.7081V58.0081H274.082V52.2881C274.082 51.3881 274.002 50.9281 273.922 50.5281C274.902 49.6681 275.802 49.2081 276.522 49.2081C277.642 49.2081 278.222 50.1681 278.222 52.7081C278.222 54.0881 278.162 56.2081 278.162 58.0081H279.742Z" fill="black"/>
<path d="M37.6236 1.25402C45.2804 3.30563 51.8085 8.31482 55.7719 15.1796C59.7353 22.0444 60.8093 30.2026 58.7577 37.8593C56.7061 45.516 51.6969 52.0441 44.8321 56.0075C37.9673 59.9709 29.8092 61.0449 22.1525 58.9933L29.8881 30.1237L37.6236 1.25402Z" fill="#00FF38"/>
<rect y="0.234375" width="29.8881" height="59.7761" fill="#00FF38"/>
</svg>
