<svg width="206" height="50" viewBox="0 0 206 50" fill="none" xmlns="http://www.w3.org/2000/svg">
<path d="M56.9199 25.5975V15.6604H54.9325V25.5975H56.9199Z" fill="black"/>
<path d="M65.0933 25.5975C65.0933 23.9781 65.1522 22.3146 65.1522 21.4018C65.1522 19.0022 64.372 18.06 62.8704 18.06C62.046 18.06 61.2952 18.4575 60.6622 19.0022L60.5297 18.222H58.9692V25.5975H60.8683V20.1799C61.3541 19.8119 61.8399 19.5764 62.2668 19.5764C62.9146 19.5764 63.2532 19.9738 63.2532 21.7257C63.2532 22.5943 63.209 24.1106 63.209 25.5975H65.0933Z" fill="black"/>
<path d="M70.7302 24.1695C70.2591 24.302 69.9499 24.3314 69.7144 24.3314C69.2286 24.3314 69.0519 24.0959 69.0519 23.3451V19.5469H70.686V18.222H69.0519V16.0726H67.6681C67.5356 16.8971 67.4031 17.5595 67.2265 18.222H66.2254V19.5469H67.1529V23.8162C67.1529 25.2294 67.6681 25.7447 69.0225 25.7447C69.5819 25.7447 70.1855 25.6122 70.8774 25.2589L70.7302 24.1695Z" fill="black"/>
<path d="M77.9975 22.2851C78.2037 19.12 76.9523 18.06 75.0532 18.06C72.9922 18.06 71.7115 19.4733 71.7115 22.1085C71.7115 24.8025 72.9922 25.7594 74.9208 25.7594C76.0101 25.7594 77.0701 25.4502 77.9681 24.9792L77.6884 23.8898C76.8346 24.1695 75.966 24.3167 75.3035 24.3167C74.2436 24.3167 73.6547 23.7426 73.6547 22.3882V22.2851H77.9975ZM73.6694 21.1074C73.7136 20.0475 74.1552 19.3261 74.9796 19.3261C75.7746 19.3261 76.1721 19.9002 76.1721 21.078V21.1074H73.6694Z" fill="black"/>
<path d="M83.8242 18.2367C83.5739 18.1189 83.3236 18.0748 83.1028 18.0748C82.5728 18.0748 82.0723 18.3986 81.3215 19.385L81.1743 18.222H79.6138V25.5975H81.5129V20.916C82.1754 20.0769 82.5287 19.7972 82.9409 19.7972C83.0881 19.7972 83.2795 19.8119 83.5886 19.9002L83.8242 18.2367Z" fill="black"/>
<path d="M90.3691 25.5975V20.3566C90.3691 18.9581 89.4858 18.06 87.6015 18.06C86.4974 18.06 85.511 18.3398 84.6425 18.7225L84.8927 19.8708C85.5552 19.6353 86.3649 19.4291 87.1304 19.4291C88.0726 19.4291 88.4995 19.7972 88.4995 20.548V21.1074H88.0284C85.3638 21.1074 84.245 22.0496 84.245 23.5806C84.245 24.935 85.1724 25.7594 86.5268 25.7594C87.4543 25.7594 88.1462 25.3914 88.7792 24.8467L88.9117 25.5975H90.3691ZM88.4995 23.772C88.0431 24.1842 87.5426 24.4197 87.101 24.4197C86.3943 24.4197 86.0999 24.037 86.0999 23.4187C86.0999 22.7268 86.5121 22.2704 87.9401 22.2704H88.4995V23.772Z" fill="black"/>
<path d="M96.7254 23.6984C96.1807 24.14 95.7243 24.3167 95.2238 24.3167C94.2963 24.3167 93.84 23.5953 93.84 21.8435C93.84 20.2683 94.3847 19.4733 95.2385 19.4733C95.6802 19.4733 96.0776 19.6205 96.4898 19.9591L97.1523 18.9875C96.6371 18.3986 95.8863 18.06 94.9441 18.06C93.045 18.06 91.8673 19.6794 91.8673 22.0054C91.8673 24.5081 92.8683 25.7447 94.8116 25.7447C95.9304 25.7447 96.7401 25.2589 97.3142 24.67L96.7254 23.6984Z" fill="black"/>
<path d="M102.143 24.1695C101.672 24.302 101.363 24.3314 101.127 24.3314C100.641 24.3314 100.465 24.0959 100.465 23.3451V19.5469H102.099V18.222H100.465V16.0726H99.0807C98.9482 16.8971 98.8157 17.5595 98.6391 18.222H97.638V19.5469H98.5655V23.8162C98.5655 25.2294 99.0807 25.7447 100.435 25.7447C100.995 25.7447 101.598 25.6122 102.29 25.2589L102.143 24.1695Z" fill="black"/>
<path d="M105.612 16.2787C105.612 15.5132 105.406 15.2924 104.493 15.2924C103.595 15.2924 103.36 15.5427 103.36 16.2787C103.36 17.0295 103.58 17.2651 104.493 17.2651C105.391 17.2651 105.612 17.0148 105.612 16.2787ZM105.435 25.5975V18.222H103.536V25.5975H105.435Z" fill="black"/>
<path d="M113.765 21.7699C113.765 19.12 112.587 18.06 110.496 18.06C108.303 18.06 106.934 19.3261 106.934 22.0496C106.934 24.6995 108.112 25.7594 110.202 25.7594C112.396 25.7594 113.765 24.4786 113.765 21.7699ZM111.821 22.079C111.821 23.7573 111.218 24.3609 110.364 24.3609C109.422 24.3609 108.892 23.8162 108.892 21.7404C108.892 20.0622 109.481 19.4586 110.349 19.4586C111.277 19.4586 111.821 20.0033 111.821 22.079Z" fill="black"/>
<path d="M121.392 25.5975C121.392 23.9781 121.45 22.3146 121.45 21.4018C121.45 19.0022 120.67 18.06 119.169 18.06C118.344 18.06 117.593 18.4575 116.96 19.0022L116.828 18.222H115.267V25.5975H117.167V20.1799C117.652 19.8119 118.138 19.5764 118.565 19.5764C119.213 19.5764 119.551 19.9738 119.551 21.7257C119.551 22.5943 119.507 24.1106 119.507 25.5975H121.392Z" fill="black"/>
<path d="M126.973 25.5975C127.724 25.6122 128.548 25.6416 129.387 25.6416C132.582 25.6416 134.054 23.7131 134.054 20.3566C134.054 17.6478 132.921 15.631 129.741 15.631C128.857 15.631 127.974 15.6604 126.973 15.6604V25.5975ZM128.96 17.1326C129.181 17.1179 129.417 17.1179 129.638 17.1179C131.272 17.1179 131.964 18.325 131.964 20.5774C131.964 22.874 131.228 24.1253 129.652 24.1253C129.432 24.1253 129.196 24.1106 128.96 24.0959V17.1326Z" fill="black"/>
<path d="M141.484 22.2851C141.69 19.12 140.439 18.06 138.54 18.06C136.479 18.06 135.198 19.4733 135.198 22.1085C135.198 24.8025 136.479 25.7594 138.407 25.7594C139.497 25.7594 140.557 25.4502 141.455 24.9792L141.175 23.8898C140.321 24.1695 139.452 24.3167 138.79 24.3167C137.73 24.3167 137.141 23.7426 137.141 22.3882V22.2851H141.484ZM137.156 21.1074C137.2 20.0475 137.642 19.3261 138.466 19.3261C139.261 19.3261 139.659 19.9002 139.659 21.078V21.1074H137.156Z" fill="black"/>
<path d="M142.556 25.1411C143.321 25.5386 144.042 25.7447 144.882 25.7447C146.751 25.7447 147.855 24.7731 147.855 23.4187C147.855 20.8571 144.572 21.4607 144.572 20.1211C144.572 19.7089 144.911 19.3555 145.677 19.3555C146.089 19.3555 146.516 19.4292 147.134 19.5764L147.34 18.6047C146.575 18.2073 145.942 18.06 145.279 18.06C143.66 18.06 142.585 18.9581 142.585 20.2683C142.585 22.8151 145.853 22.2262 145.853 23.5659C145.853 24.037 145.485 24.405 144.543 24.405C144.057 24.405 143.527 24.3461 142.718 24.1548L142.556 25.1411Z" fill="black"/>
<path d="M151.3 16.2787C151.3 15.5132 151.094 15.2924 150.182 15.2924C149.284 15.2924 149.048 15.5427 149.048 16.2787C149.048 17.0295 149.269 17.2651 150.182 17.2651C151.08 17.2651 151.3 17.0148 151.3 16.2787ZM151.124 25.5975V18.222H149.225V25.5975H151.124Z" fill="black"/>
<path d="M158.982 18.3692C158.275 18.2073 157.289 18.06 156.435 18.06C154.242 18.06 152.622 19.2819 152.622 22.0496C152.622 23.9339 153.52 25.4944 155.213 25.4944C155.935 25.4944 156.568 25.1411 157.083 24.7583V25.6269C157.083 26.5691 156.627 26.8782 155.625 26.8782C154.963 26.8782 154.153 26.7605 153.358 26.628L153.211 27.6879C154.183 28.0854 155.051 28.2768 155.832 28.2768C157.569 28.2768 158.982 27.6879 158.982 25.3178V18.3692ZM157.083 23.4628C156.685 23.8014 156.17 24.0811 155.787 24.0811C155.037 24.0811 154.566 23.2862 154.566 21.7699C154.566 20.2241 155.228 19.4144 156.17 19.4144C156.479 19.4144 156.818 19.4733 157.083 19.5616V23.4628Z" fill="black"/>
<path d="M167.023 25.5975C167.023 23.9781 167.081 22.3146 167.081 21.4018C167.081 19.0022 166.301 18.06 164.8 18.06C163.975 18.06 163.224 18.4575 162.591 19.0022L162.459 18.222H160.898V25.5975H162.797V20.1799C163.283 19.8119 163.769 19.5764 164.196 19.5764C164.844 19.5764 165.182 19.9738 165.182 21.7257C165.182 22.5943 165.138 24.1106 165.138 25.5975H167.023Z" fill="black"/>
<path d="M177.477 25.5975V24.0517H174.591V15.6604H172.604V25.5975H177.477Z" fill="black"/>
<path d="M184.348 25.5975V20.3566C184.348 18.9581 183.465 18.06 181.581 18.06C180.476 18.06 179.49 18.3398 178.621 18.7225L178.872 19.8708C179.534 19.6353 180.344 19.4291 181.109 19.4291C182.052 19.4291 182.479 19.7972 182.479 20.548V21.1074H182.007C179.343 21.1074 178.224 22.0496 178.224 23.5806C178.224 24.935 179.151 25.7594 180.506 25.7594C181.433 25.7594 182.125 25.3914 182.758 24.8467L182.891 25.5975H184.348ZM182.479 23.772C182.022 24.1842 181.522 24.4197 181.08 24.4197C180.373 24.4197 180.079 24.037 180.079 23.4187C180.079 22.7268 180.491 22.2704 181.919 22.2704H182.479V23.772Z" fill="black"/>
<path d="M186.258 25.465C186.965 25.6269 187.834 25.7594 188.746 25.7594C191.058 25.7594 192.618 24.5522 192.618 21.6227C192.618 19.6647 191.75 18.06 189.998 18.06C189.306 18.06 188.673 18.3839 188.158 18.8108V15.1599H186.258V25.465ZM188.158 20.1358C188.629 19.7236 189.129 19.5175 189.468 19.5175C190.219 19.5175 190.675 20.3566 190.675 21.8876C190.675 23.6248 189.983 24.405 189.026 24.405C188.658 24.405 188.364 24.3461 188.158 24.2725V20.1358Z" fill="black"/>
<path d="M59.8201 32.811V31.8541H55.1975V41.7911H56.4194V37.2275H59.5256V36.2853H56.4194V32.811H59.8201Z" fill="black"/>
<path d="M66.2046 41.7911V36.565C66.2046 35.2842 65.5127 34.3715 63.7167 34.3715C62.6714 34.3715 61.8176 34.6512 61.1404 34.9309L61.3318 35.6817C61.8765 35.4756 62.6273 35.2548 63.3928 35.2548C64.5558 35.2548 65.0416 35.7259 65.0416 36.7416V37.5072H64.4233C61.8029 37.5072 60.7723 38.4641 60.7723 39.9068C60.7723 41.1581 61.6409 41.9089 62.8922 41.9089C63.8197 41.9089 64.5116 41.5261 65.1888 40.9667L65.2919 41.7911H66.2046ZM65.0416 40.2012C64.4086 40.7606 63.7903 41.055 63.2161 41.055C62.2739 41.055 61.9353 40.5545 61.9353 39.7743C61.9353 38.9204 62.4064 38.2874 64.3497 38.2874H65.0416V40.2012Z" fill="black"/>
<path d="M72.8758 40.2306C72.287 40.7753 71.757 40.9962 71.1829 40.9962C69.9757 40.9962 69.4016 40.0098 69.4016 38.0813C69.4016 36.3147 70.0493 35.2695 71.1682 35.2695C71.7276 35.2695 72.1692 35.4609 72.655 35.8731L73.1114 35.2695C72.6109 34.7101 71.9042 34.3715 71.0209 34.3715C69.328 34.3715 68.1797 35.8731 68.1797 38.2432C68.1797 40.687 69.166 41.9089 70.9326 41.9089C71.9778 41.9089 72.7139 41.4672 73.3028 40.8342L72.8758 40.2306Z" fill="black"/>
<path d="M80.4244 41.7911C80.4244 40.2748 80.4686 38.4935 80.4686 37.6102C80.4686 35.2106 79.6147 34.3715 78.2751 34.3715C77.4801 34.3715 76.744 34.7984 76.111 35.2842V31.3536H74.948V41.7911H76.111V36.1822C76.7293 35.667 77.3771 35.3137 77.9659 35.3137C78.8198 35.3137 79.3056 35.9908 79.3056 37.8752C79.3056 38.7879 79.2761 40.4073 79.2761 41.7911H80.4244Z" fill="black"/>
<path d="M88.3746 41.7911C88.3746 40.2748 88.4188 38.4935 88.4188 37.6102C88.4188 35.2106 87.5649 34.3715 86.2253 34.3715C85.4303 34.3715 84.6942 34.7984 84.0612 35.2842V31.3536H82.8982V41.7911H84.0612V36.1822C84.6795 35.667 85.3273 35.3137 85.9161 35.3137C86.77 35.3137 87.2558 35.9908 87.2558 37.8752C87.2558 38.7879 87.2263 40.4073 87.2263 41.7911H88.3746Z" fill="black"/>
<path d="M96.5456 38.0077C96.5456 35.4903 95.4415 34.3715 93.6013 34.3715C91.6434 34.3715 90.3626 35.6081 90.3626 38.2727C90.3626 40.8048 91.452 41.9089 93.2922 41.9089C95.2501 41.9089 96.5456 40.687 96.5456 38.0077ZM95.3385 38.3168C95.3385 40.1718 94.5877 41.0256 93.4688 41.0256C92.1881 41.0256 91.5697 40.2012 91.5697 37.9635C91.5697 36.1233 92.3058 35.2695 93.4394 35.2695C94.7054 35.2695 95.3385 36.0939 95.3385 38.3168Z" fill="black"/>
<path d="M102.75 40.2306C102.161 40.7753 101.631 40.9962 101.057 40.9962C99.85 40.9962 99.2759 40.0098 99.2759 38.0813C99.2759 36.3147 99.9236 35.2695 101.042 35.2695C101.602 35.2695 102.044 35.4609 102.529 35.8731L102.986 35.2695C102.485 34.7101 101.779 34.3715 100.895 34.3715C99.2023 34.3715 98.054 35.8731 98.054 38.2432C98.054 40.687 99.0403 41.9089 100.807 41.9089C101.852 41.9089 102.588 41.4672 103.177 40.8342L102.75 40.2306Z" fill="black"/>
<path d="M110.299 41.7911C110.299 40.2748 110.343 38.4935 110.343 37.6102C110.343 35.2106 109.489 34.3715 108.149 34.3715C107.354 34.3715 106.618 34.7984 105.985 35.2842V31.3536H104.822V41.7911H105.985V36.1822C106.604 35.667 107.251 35.3137 107.84 35.3137C108.694 35.3137 109.18 35.9908 109.18 37.8752C109.18 38.7879 109.15 40.4073 109.15 41.7911H110.299Z" fill="black"/>
<path d="M112.139 41.3936C112.773 41.7175 113.435 41.9089 114.23 41.9089C115.849 41.9089 116.85 41.0256 116.85 39.7743C116.85 37.2863 113.376 37.993 113.376 36.2706C113.376 35.6964 113.832 35.2253 114.745 35.2253C115.172 35.2253 115.628 35.2989 116.114 35.4462L116.291 34.7984C115.687 34.4893 115.128 34.3715 114.554 34.3715C113.111 34.3715 112.169 35.2253 112.169 36.3883C112.169 38.8615 115.614 38.1549 115.614 39.8773C115.614 40.5251 115.128 41.0403 114.053 41.0403C113.509 41.0403 112.979 40.9373 112.287 40.7312L112.139 41.3936Z" fill="black"/>
<path d="M122.892 40.2306C122.303 40.7753 121.773 40.9962 121.199 40.9962C119.991 40.9962 119.417 40.0098 119.417 38.0813C119.417 36.3147 120.065 35.2695 121.184 35.2695C121.743 35.2695 122.185 35.4609 122.671 35.8731L123.127 35.2695C122.627 34.7101 121.92 34.3715 121.037 34.3715C119.344 34.3715 118.195 35.8731 118.195 38.2432C118.195 40.687 119.182 41.9089 120.948 41.9089C121.994 41.9089 122.73 41.4672 123.319 40.8342L122.892 40.2306Z" fill="black"/>
<path d="M130.44 41.7911C130.44 40.2748 130.484 38.4935 130.484 37.6102C130.484 35.2106 129.63 34.3715 128.291 34.3715C127.496 34.3715 126.76 34.7984 126.127 35.2842V31.3536H124.964V41.7911H126.127V36.1822C126.745 35.667 127.393 35.3137 127.982 35.3137C128.836 35.3137 129.321 35.9908 129.321 37.8752C129.321 38.7879 129.292 40.4073 129.292 41.7911H130.44Z" fill="black"/>
<path d="M138.289 41.7911V34.4893H137.126V40.1129C136.523 40.6134 135.875 40.9667 135.286 40.9667C134.403 40.9667 133.947 40.2601 133.947 38.4052C133.947 37.3747 133.976 35.8142 133.976 34.4893H132.828C132.828 35.9467 132.769 37.6838 132.769 38.6702C132.769 41.055 133.652 41.9089 134.962 41.9089C135.787 41.9089 136.552 41.4672 137.229 40.9373L137.332 41.7911H138.289Z" fill="black"/>
<path d="M142.957 41.0109C142.839 41.0256 142.648 41.0403 142.515 41.0403C142.044 41.0403 141.941 40.8784 141.941 39.9951V31.3536H140.778V40.4515C140.778 41.6439 141.161 41.8942 142.014 41.8942C142.353 41.8942 142.751 41.8353 143.016 41.747L142.957 41.0109Z" fill="black"/>
<path d="M149.797 38.2874C149.959 35.4756 148.913 34.3715 147.191 34.3715C145.307 34.3715 144.202 35.8142 144.202 38.361C144.202 40.952 145.38 41.9089 147.147 41.9089C148.133 41.9089 149.046 41.6292 149.782 41.2464L149.561 40.5398C148.81 40.8489 148.089 40.9962 147.426 40.9962C146.116 40.9962 145.41 40.2601 145.41 38.4346V38.2874H149.797ZM145.41 37.5072C145.483 36.2117 146.013 35.2106 147.117 35.2106C148.163 35.2106 148.663 36.0497 148.663 37.4483V37.5072H145.41Z" fill="black"/>
<path d="M156.782 41.7911V38.1255H157.356C160.271 38.1255 161.375 36.6533 161.375 34.8131C161.375 33.0465 160.462 31.8394 157.783 31.8394C156.796 31.8394 156.207 31.8541 155.56 31.8541V41.7911H156.782ZM156.782 32.7668H157.606C159.431 32.7668 160.079 33.5765 160.079 34.9603C160.079 36.3147 159.314 37.1833 157.591 37.1833H156.782V32.7668Z" fill="black"/>
<path d="M168.586 38.0077C168.586 35.4903 167.482 34.3715 165.642 34.3715C163.684 34.3715 162.403 35.6081 162.403 38.2727C162.403 40.8048 163.492 41.9089 165.333 41.9089C167.291 41.9089 168.586 40.687 168.586 38.0077ZM167.379 38.3168C167.379 40.1718 166.628 41.0256 165.509 41.0256C164.229 41.0256 163.61 40.2012 163.61 37.9635C163.61 36.1233 164.346 35.2695 165.48 35.2695C166.746 35.2695 167.379 36.0939 167.379 38.3168Z" fill="black"/>
<path d="M173.821 40.7753C173.277 40.9667 172.938 41.0109 172.673 41.0109C171.967 41.0109 171.805 40.6576 171.805 39.6565V35.3431H173.777V34.4893H171.805V32.4135H170.965C170.877 33.179 170.774 33.8415 170.656 34.4893H169.479V35.3431H170.642V39.9509C170.642 41.3789 171.083 41.9089 172.32 41.9089C172.806 41.9089 173.38 41.7617 173.969 41.482L173.821 40.7753Z" fill="black"/>
<path d="M174.95 41.3936C175.583 41.7175 176.246 41.9089 177.041 41.9089C178.66 41.9089 179.661 41.0256 179.661 39.7743C179.661 37.2863 176.187 37.993 176.187 36.2706C176.187 35.6964 176.643 35.2253 177.556 35.2253C177.983 35.2253 178.439 35.2989 178.925 35.4462L179.102 34.7984C178.498 34.4893 177.939 34.3715 177.365 34.3715C175.922 34.3715 174.98 35.2253 174.98 36.3883C174.98 38.8615 178.425 38.1549 178.425 39.8773C178.425 40.5251 177.939 41.0403 176.864 41.0403C176.319 41.0403 175.789 40.9373 175.098 40.7312L174.95 41.3936Z" fill="black"/>
<path d="M186.645 41.7911V31.3536H185.482V34.4304C185.231 34.4156 184.804 34.3715 184.466 34.3715C182.626 34.3715 181.006 35.4903 181.006 38.4199C181.006 40.4662 181.963 41.9089 183.435 41.9089C184.23 41.9089 184.937 41.5114 185.585 40.9814L185.702 41.7911H186.645ZM185.482 40.157C184.849 40.7165 184.216 40.9962 183.789 40.9962C182.802 40.9962 182.213 39.9215 182.213 38.1991C182.213 36.1822 183.111 35.2401 184.319 35.2401C184.701 35.2401 185.114 35.3137 185.482 35.4314V40.157Z" fill="black"/>
<path d="M193.925 41.7911V36.565C193.925 35.2842 193.233 34.3715 191.437 34.3715C190.392 34.3715 189.538 34.6512 188.861 34.9309L189.052 35.6817C189.597 35.4756 190.348 35.2548 191.113 35.2548C192.276 35.2548 192.762 35.7259 192.762 36.7416V37.5072H192.144C189.523 37.5072 188.493 38.4641 188.493 39.9068C188.493 41.1581 189.362 41.9089 190.613 41.9089C191.54 41.9089 192.232 41.5261 192.909 40.9667L193.012 41.7911H193.925ZM192.762 40.2012C192.129 40.7606 191.511 41.055 190.937 41.055C189.995 41.055 189.656 40.5545 189.656 39.7743C189.656 38.9204 190.127 38.2874 192.07 38.2874H192.762V40.2012Z" fill="black"/>
<path d="M205.911 41.7911C205.911 40.3337 205.955 38.5966 205.955 37.6102C205.955 35.2253 205.087 34.3715 203.879 34.3715C202.981 34.3715 202.157 34.9015 201.406 35.5345C201.141 34.9309 200.611 34.3715 199.684 34.3715C198.874 34.3715 198.123 34.8131 197.446 35.3578L197.343 34.4893H196.386V41.7911H197.549V36.1822C198.167 35.667 198.815 35.3137 199.345 35.3137C200.17 35.3137 200.582 36.0203 200.582 37.8899V41.7911H201.745V37.5808C201.745 36.9183 201.686 36.5797 201.627 36.2853C202.348 35.6523 203.011 35.3137 203.541 35.3137C204.365 35.3137 204.792 36.0203 204.792 37.8899C204.792 38.9057 204.748 40.4662 204.748 41.7911H205.911Z" fill="black"/>
<path d="M27.6938 0.74984C33.3298 2.25998 38.1349 5.94712 41.0523 11.0001C43.9697 16.0532 44.7602 22.0581 43.2501 27.6941C41.74 33.33 38.0528 38.1351 32.9998 41.0525C27.9468 43.9699 21.9418 44.7604 16.3059 43.2503L21.9999 22.0001L27.6938 0.74984Z" fill="black"/>
<rect width="21.9999" height="43.9997" fill="black"/>
</svg>
