<?xml version="1.0" standalone="no"?>
<!DOCTYPE svg PUBLIC "-//W3C//DTD SVG 1.1//EN" "http://www.w3.org/Graphics/SVG/1.1/DTD/svg11.dtd" >
<svg xmlns="http://www.w3.org/2000/svg">
<metadata></metadata>
<defs>
<font id="narzisstextmediumregular" horiz-adv-x="1161" >
<font-face units-per-em="2048" ascent="1556" descent="-492" />
<missing-glyph horiz-adv-x="546" />
<glyph unicode="&#xfb01;" horiz-adv-x="1216" d="M47 0v39h135v862h-135v37h135v117q0 231 125.5 354t358.5 123q101 0 179.5 -24.5t125.5 -66t70.5 -93t23.5 -109.5q0 -70 -43 -116t-109 -46q-62 0 -99.5 36t-37.5 91q0 61 43 96t113 35q8 0 13 5t5 10q0 40 -77 83.5t-203 43.5q-174 0 -269.5 -84.5t-95.5 -229.5 q0 -49 7 -97t12 -65.5t18 -62.5h690v-899h129v-39h-475v39h133v860h-463q41 -143 41 -293v-567h140v-39h-490z" />
<glyph unicode="&#xfb02;" horiz-adv-x="1257" d="M47 0v39h135v860h-135v39h135v115q0 224 123.5 351.5t339.5 127.5q117 0 202.5 -27t133 -75t70 -106t22.5 -128v-1157h129v-39h-479v39h133v1202q0 47 -11.5 87.5t-36.5 75.5t-70 55t-105 20q-154 0 -241 -85.5t-87 -228.5q0 -100 37 -227h240v-41h-226q41 -139 41 -291 v-567h140v-39h-490z" />
<glyph horiz-adv-x="2048" />
<glyph horiz-adv-x="2048" />
<glyph unicode="&#xd;" horiz-adv-x="2048" />
<glyph unicode=" "  horiz-adv-x="546" />
<glyph unicode="&#x09;" horiz-adv-x="546" />
<glyph unicode="&#xa0;" horiz-adv-x="546" />
<glyph unicode="!" horiz-adv-x="567" d="M150 121q0 59 40 98t97 39q63 0 101 -37.5t38 -97.5q0 -58 -40 -96.5t-99 -38.5q-60 0 -98.5 37.5t-38.5 95.5zM152 1282q0 78 38 120t97 42q60 0 99.5 -42t39.5 -120t-18.5 -170.5t-41 -170t-41 -205t-18.5 -265.5h-41q0 138 -18 265.5t-39 205t-39 170t-18 170.5z" />
<glyph unicode="&#x22;" horiz-adv-x="913" d="M164 1311q0 66 33.5 101.5t87.5 35.5q55 0 86.5 -35.5t31.5 -101.5q0 -54 -25 -116t-50 -136.5t-25 -159.5h-39q0 68 -15.5 130.5t-34.5 102t-34.5 88t-15.5 91.5zM510 1311q0 66 32.5 101.5t86.5 35.5q57 0 89 -35.5t32 -101.5q0 -44 -16 -93t-35.5 -88t-35.5 -101.5 t-16 -129.5h-39q0 68 -15.5 130.5t-33.5 102t-33.5 88t-15.5 91.5z" />
<glyph unicode="#" d="M137 260v94h193l39 232h-191v92h205l45 260h96l-45 -260h234l45 260h96l-45 -260h215v-92h-229l-41 -232h229v-94h-242l-45 -260h-96l45 260h-233l-45 -260h-97l45 260h-178zM424 354h233l41 232h-233z" />
<glyph unicode="$" d="M96 10v486h41q16 -134 67 -236.5t145 -166t220 -64.5v567q-163 67 -190 80q-162 78 -220 185q-42 77 -42 179q0 177 120.5 292t331.5 122v225h43v-225q66 -3 128.5 -21.5t110.5 -35.5t81 -17q24 0 37.5 20t13.5 54h39v-485h-43q-11 92 -37.5 168.5t-70.5 137t-110 95.5 t-149 37v-569q18 -7 55 -22q44 -17 66 -26t62 -26.5t62.5 -30.5t55 -35t51 -41.5t41 -48t33.5 -58t19 -67.5t8 -80q0 -123 -61.5 -218t-163.5 -146t-228 -57v-209h-43v207q-86 2 -162 28t-130.5 51t-88.5 25q-26 0 -40.5 -20t-14.5 -54h-37zM317 1147q0 -58 19 -104.5 t56 -80.5t78 -58t99 -48v549q-117 -9 -184.5 -81t-67.5 -177zM612 31q108 11 178 84.5t70 181.5q0 55 -18.5 99t-56 77t-77 56.5t-96.5 48.5v-547z" />
<glyph unicode="%" d="M57 1092q0 162 73.5 261t191.5 99q125 0 192.5 -94t67.5 -260q0 -165 -72.5 -265t-190.5 -100q-123 0 -192.5 96.5t-69.5 262.5zM227 1098q0 -176 18.5 -248t73.5 -72q56 0 74.5 69.5t18.5 244.5q0 174 -18 244.5t-72 70.5q-56 0 -75.5 -68.5t-19.5 -240.5zM229 -51 q98 234 179.5 438.5t134.5 327.5q45 109 137 314t197 452h51q-111 -264 -193.5 -474t-116.5 -292q-42 -100 -138 -307t-201 -459h-50zM578 336q0 163 73 262.5t191 99.5q125 0 192.5 -95t67.5 -261q0 -164 -72.5 -263t-189.5 -99q-124 0 -193 95.5t-69 260.5zM748 342 q0 -174 18.5 -245.5t73.5 -71.5q56 0 74 68.5t18 242.5q0 176 -18 246.5t-72 70.5q-56 0 -75 -68.5t-19 -242.5z" />
<glyph unicode="&#x26;" horiz-adv-x="1710" d="M145 408q0 104 59 188t153 135t214 74q-122 30 -193 97t-71 175q0 157 130.5 250.5t332.5 93.5q186 0 288.5 -80.5t102.5 -193.5q0 -62 -39 -102.5t-100 -40.5t-97 33.5t-36 86.5q0 57 40 90t93 33q22 0 22 15q0 38 -68 72t-165 34q-122 0 -196 -74.5t-74 -203.5 q0 -130 67 -204.5t185 -74.5h36v-39h-53q-170 0 -276.5 -100t-106.5 -269q0 -75 29 -141.5t85.5 -120t150.5 -85t214 -31.5q117 0 209 29.5t147 80.5t83 113.5t28 132.5q0 115 -58.5 179.5t-172.5 64.5q-73 0 -128 -17t-78 -38t-23 -40q0 -14 24 -14q54 0 91.5 -33t37.5 -92 q0 -52 -36 -88.5t-97 -36.5q-63 0 -102 40t-39 102q0 116 93 189t261 73q79 0 137.5 17t82.5 38t24 41q0 16 -23 16q-54 0 -92.5 33t-38.5 92q0 52 38.5 88.5t100.5 36.5t100 -39t38 -102q0 -81 -51 -145.5t-146 -96.5q135 -27 208 -96.5t73 -165.5q0 -79 -41 -151 t-122.5 -130.5t-218 -93.5t-311.5 -35q-364 0 -544.5 117.5t-180.5 313.5z" />
<glyph unicode="'" horiz-adv-x="571" d="M164 1311q0 66 33.5 101.5t87.5 35.5q57 0 90 -35.5t33 -101.5q0 -44 -16.5 -93t-36 -88t-36 -101.5t-16.5 -129.5h-39q0 68 -15.5 130.5t-34.5 102t-34.5 88t-15.5 91.5z" />
<glyph unicode="(" horiz-adv-x="772" d="M139 657q0 176 47 331t127 266t182.5 186t217.5 106v-51q-107 -31 -176 -117t-108.5 -261.5t-39.5 -444.5q0 -202 21.5 -352.5t64 -249t101 -155t137.5 -79.5v-51q-116 32 -218 105t-182.5 180.5t-127 259.5t-46.5 327z" />
<glyph unicode=")" horiz-adv-x="772" d="M57 -166q79 23 137.5 79t102 154t65 249t21.5 354q0 269 -40 445t-109.5 262.5t-176.5 117.5v51q116 -31 218.5 -106t182.5 -185.5t126.5 -265t46.5 -330.5t-46.5 -327.5t-126.5 -260t-182 -181.5t-219 -105v49z" />
<glyph unicode="*" horiz-adv-x="882" d="M102 1204q14 38 48 56.5t75 5.5q32 -11 91 -71t108 -77q-1 51 -41.5 125t-40.5 111q0 44 27.5 70t70.5 26q41 0 69 -26.5t28 -69.5q0 -35 -40.5 -110.5t-41.5 -125.5q49 15 108 76t92 72q40 13 73.5 -5.5t47.5 -56.5q12 -41 -3.5 -75.5t-57.5 -49.5q-35 -11 -118 5 t-132 1q25 -33 66.5 -56.5t80 -43t56.5 -43.5q26 -37 19 -73t-40 -62q-33 -25 -71 -20t-64 40q-23 32 -34 116.5t-38 125.5q-29 -42 -39.5 -126.5t-31.5 -115.5q-27 -35 -65 -40t-73 20q-32 26 -38.5 62.5t18.5 72.5q18 24 56.5 43.5t80 43t66.5 56.5q-49 15 -131.5 -1 t-118.5 -5q-41 15 -57.5 50t-4.5 75z" />
<glyph unicode="+" d="M160 449v96h368v370h95v-370h376v-96h-376v-373h-95v373h-368z" />
<glyph unicode="," horiz-adv-x="567" d="M135 -272q106 32 166.5 117t60.5 155q0 14 -12 14q-4 0 -27 -7t-44 -7q-56 0 -95 35.5t-39 99.5q0 58 39 95.5t101 37.5q67 0 107 -47t40 -121q0 -144 -77 -259.5t-220 -153.5v41z" />
<glyph unicode="-" horiz-adv-x="944" d="M150 487v105h628v-105h-628z" />
<glyph unicode="." horiz-adv-x="567" d="M145 121q0 59 40 98t98 39q62 0 100.5 -37.5t38.5 -97.5q0 -58 -40.5 -96.5t-100.5 -38.5t-98 37t-38 96z" />
<glyph unicode="/" horiz-adv-x="749" d="M63 -51q72 201 145.5 413.5t125.5 352.5q36 102 115.5 307t171.5 459h65q-93 -260 -161 -467t-101 -299q-34 -94 -119 -303t-176 -463h-66z" />
<glyph unicode="0" d="M92 469q0 206 144.5 350t347.5 144q211 0 347 -137.5t136 -344.5q0 -137 -66.5 -251.5t-179.5 -180t-246 -65.5q-212 0 -347.5 138t-135.5 347zM328 479q0 -99 14 -179.5t43 -142.5t77.5 -96t112.5 -34q129 0 192.5 120t63.5 324q0 202 -62 325.5t-185 123.5 q-89 0 -147.5 -58t-83.5 -154t-25 -229z" />
<glyph unicode="1" d="M168 0v45h315v829l-237 -36v47l479 82v-922h299v-45h-856z" />
<glyph unicode="2" d="M92 0v12l455 318q103 69 153 148.5t50 189.5q0 117 -59 180t-179 63q-106 0 -171 -46t-65 -93q0 -12 17 -12q52 0 88.5 -31.5t36.5 -87.5q0 -52 -37.5 -87.5t-99.5 -35.5q-56 0 -92.5 38.5t-36.5 96.5q0 126 112 218t291 92q205 0 324.5 -75.5t119.5 -223.5 q0 -65 -27.5 -119.5t-84 -101t-118.5 -82.5t-155 -80l-194 -95h256q149 0 235 34.5t123 117.5h43l-114 -338h-871z" />
<glyph unicode="3" d="M109 -100q0 64 39 103.5t98 39.5q62 0 101.5 -37t39.5 -92q0 -61 -38.5 -95t-94.5 -34q-16 0 -16 -12q0 -42 72.5 -79.5t178.5 -37.5q149 0 234.5 88t85.5 221q0 131 -81 219t-226 88h-158v37h156q69 2 121 27t82.5 67.5t45.5 95.5t15 117q0 293 -229 293 q-279 0 -320 -327h-35v368h35q0 -49 39 -49q26 0 65.5 14.5t97.5 28.5t130 14q213 0 340 -86.5t127 -248.5q0 -111 -79 -197t-208 -129q147 -29 234.5 -111.5t87.5 -203.5q0 -169 -140.5 -275t-373.5 -106q-200 0 -313 87.5t-113 211.5z" />
<glyph unicode="4" d="M61 0l793 1036v-870q75 5 119 32t74 91h38l-104 -289h-127v-346h135v-41h-489v43h137v344h-576zM248 164h389v524z" />
<glyph unicode="5" d="M115 -94q0 62 39 104.5t96 42.5q62 0 101.5 -37.5t39.5 -91.5q0 -60 -38.5 -94.5t-92.5 -34.5q-14 0 -18 -12q0 -41 72.5 -84t174.5 -43q149 0 235.5 103.5t86.5 269.5q0 163 -78 251.5t-221 88.5q-57 0 -111 -15t-89 -37t-62.5 -44t-39.5 -37l-13 -15h-17l121 692h356 q157 0 240 27t119 109h35l-111 -322h-629l-69 -416q54 50 137 87.5t192 37.5q223 0 349.5 -99t126.5 -296q0 -195 -139.5 -316.5t-370.5 -121.5q-198 0 -310 90t-112 213z" />
<glyph unicode="6" d="M127 508q0 145 43.5 277.5t113.5 230.5t161 178t183.5 129t184.5 74v-39q-66 -19 -132.5 -68t-128.5 -126t-110.5 -192.5t-68.5 -252.5q4 4 11.5 11t33 24t53.5 30t72 24t90 11q197 0 309.5 -105t112.5 -294q0 -186 -133.5 -310t-327.5 -124q-218 0 -342.5 132 t-124.5 390zM360 518q0 -235 65 -362t169 -127q108 0 165.5 103.5t57.5 270.5q0 163 -62.5 252.5t-189.5 89.5q-34 0 -67 -8t-55.5 -19.5t-40.5 -23.5t-26 -20l-9 -8q-7 -62 -7 -148z" />
<glyph unicode="7" d="M98 592l109 346h866l-317 -586q-76 -139 -102.5 -273t-30.5 -284q0 -102 -38.5 -158.5t-103.5 -56.5q-50 0 -80 32.5t-30 88.5q0 40 9 84.5t30.5 96.5t39 91.5t54 101.5t56 93.5t63 100t57.5 91.5l235 394h-421q-145 0 -232 -38t-123 -124h-41z" />
<glyph unicode="8" d="M92 362q0 123 88 213t234 121q-123 40 -199 124.5t-76 195.5q0 164 123.5 261t315.5 97q199 0 321.5 -90.5t122.5 -255.5q0 -113 -77 -201t-202 -129q148 -25 237 -111.5t89 -211.5q0 -177 -130 -283t-359 -106q-227 0 -357.5 100.5t-130.5 275.5zM330 362 q0 -150 63.5 -242.5t186.5 -92.5q125 0 188 89.5t63 235.5q0 144 -66 234t-187 90t-184.5 -87t-63.5 -227zM381 1012q0 -132 48 -215.5t149 -83.5q103 -1 153.5 86.5t50.5 222.5q0 146 -49.5 228.5t-154.5 82.5q-102 0 -149.5 -86.5t-47.5 -234.5z" />
<glyph unicode="9" d="M106 535q0 119 62 217.5t168.5 154.5t232.5 56q220 0 345.5 -127t125.5 -379q0 -118 -30.5 -228t-84 -196.5t-121.5 -160.5t-146 -128.5t-155.5 -92t-152.5 -57.5v39q53 15 106 47t107 85.5t98.5 122.5t80 163.5t51.5 202.5q-4 -4 -11.5 -10.5t-33 -23.5t-54 -30 t-73.5 -23.5t-91 -10.5q-198 0 -311 98.5t-113 280.5zM346 557q0 -158 62 -246t188 -88q55 0 105.5 20t74.5 40l23 20q6 60 6 146q0 229 -65.5 352t-170.5 123q-108 0 -165.5 -102.5t-57.5 -264.5z" />
<glyph unicode=":" horiz-adv-x="567" d="M150 121q0 59 40 98t97 39q63 0 101 -37.5t38 -97.5q0 -58 -40 -96.5t-99 -38.5q-60 0 -98.5 37.5t-38.5 95.5zM150 801q0 59 40 98t97 39q63 0 101 -37t38 -98q0 -57 -40 -95t-99 -38q-60 0 -98.5 37t-38.5 94z" />
<glyph unicode=";" horiz-adv-x="567" d="M135 -274q106 32 166.5 117t60.5 155q0 14 -12 14q-4 0 -27 -7t-44 -7q-56 0 -95 35.5t-39 99.5q0 58 39 95.5t101 37.5q67 0 107 -47t40 -121q0 -144 -77 -259.5t-220 -153.5v41zM147 801q0 59 40 98t96 39q63 0 102 -37t39 -98q0 -57 -40.5 -95t-100.5 -38t-98 37 t-38 94z" />
<glyph unicode="&#x3c;" d="M158 498q0 36 32 45l814 266v-90l-678 -221l678 -219v-95l-814 269q-32 12 -32 45z" />
<glyph unicode="=" d="M158 322v94h846v-94h-846zM158 578v94h846v-94h-846z" />
<glyph unicode="&#x3e;" d="M158 184v95l678 219l-678 221v90l813 -266q33 -11 33 -45q0 -32 -33 -45z" />
<glyph unicode="?" horiz-adv-x="894" d="M70 1147q0 118 93.5 206.5t264.5 88.5q173 0 273 -81.5t100 -219.5q0 -67 -22 -125t-57.5 -99.5t-78 -79t-85 -70.5t-78 -66t-57.5 -74t-22 -86q0 -44 19 -88h-45q-37 87 -37 170q0 59 18 110.5t44.5 86.5t57.5 74.5t57.5 74.5t44.5 87.5t18 112.5q0 98 -53 159t-146 61 q-84 0 -140.5 -40.5t-56.5 -78.5q0 -5 5 -9t12 -4q67 0 105 -31.5t38 -90.5q0 -55 -38 -91t-99 -36q-60 0 -97.5 39.5t-37.5 99.5zM279 121q0 59 40.5 98t98.5 39q61 0 99 -37.5t38 -97.5q0 -58 -39.5 -96.5t-97.5 -38.5q-61 0 -100 37t-39 96z" />
<glyph unicode="@" horiz-adv-x="1880" d="M129 645q0 225 109 405t304.5 282t440.5 102q172 0 317.5 -55t244 -150t153.5 -223t55 -273q0 -122 -35 -224t-94.5 -169t-136.5 -104t-162 -37q-71 0 -127.5 32t-77.5 93q-41 -53 -107 -93.5t-155 -40.5q-107 0 -183.5 60.5t-76.5 159.5q0 66 28.5 113t74.5 72.5 t101.5 44t111 36.5t101.5 42t74.5 68t28.5 107q0 78 -48.5 119t-141.5 41q-76 0 -126 -30.5t-50 -61.5q0 -11 18 -11q42 0 73 -25t31 -73q0 -49 -32.5 -80t-85.5 -31q-51 0 -84 32.5t-33 84.5q0 93 88.5 167.5t235.5 74.5q163 0 253.5 -89.5t90.5 -244.5v-420q0 -82 90 -82 q53 0 107 32.5t99.5 90t74 148.5t28.5 198q0 134 -52 253.5t-144.5 209t-229.5 141.5t-297 52q-132 0 -243 -38.5t-191.5 -106.5t-136.5 -161.5t-83.5 -203.5t-27.5 -232t27.5 -231.5t83.5 -201.5t136.5 -159.5t191.5 -105t243 -37.5q86 0 165 13t136 33.5t106.5 45.5 t81.5 50.5t54.5 46t32.5 33.5l10 13h61q-4 -6 -12 -16t-37.5 -39.5t-63.5 -56.5t-91 -60t-119 -56.5t-148.5 -39.5t-179.5 -16q-245 0 -439.5 101t-302.5 279.5t-108 401.5zM813 424q0 -65 37.5 -103t99.5 -38q71 0 113.5 41t42.5 104v301q-26 -25 -69.5 -51t-79.5 -46.5 t-70 -47.5t-54 -67t-20 -93z" />
<glyph unicode="A" horiz-adv-x="1587" d="M31 0v35h28q136 0 213 211l449 1188h139l555 -1395h141v-39h-563v39h152l-215 549h-477l-134 -355q-13 -36 -14.5 -70t8 -63t38 -47t71.5 -18h37v-35h-428zM469 631h442l-225 577z" />
<glyph unicode="B" horiz-adv-x="1337" d="M57 0v39h150v1356h-150v39h627q233 0 361.5 -98.5t128.5 -266.5q0 -122 -84 -211.5t-224 -130.5q174 -28 274.5 -118.5t100.5 -225.5q0 -170 -154 -276.5t-399 -106.5h-631zM457 39h198q165 0 244.5 91.5t79.5 242.5q0 143 -78 231t-235 88h-209v-653zM457 737h164 q292 0 292 324q0 71 -16.5 129.5t-50 105.5t-90.5 73t-133 26h-166v-658z" />
<glyph unicode="C" horiz-adv-x="1331" d="M98 709q0 212 86 382t242 266.5t352 96.5q77 0 142 -18t113 -36t83 -18q26 0 40.5 19t14.5 53h39v-485h-43q-10 79 -28 143t-49 120t-72.5 94t-100 59.5t-131.5 21.5q-109 0 -190.5 -52t-129.5 -146.5t-71.5 -215.5t-23.5 -270q0 -192 56.5 -343t163 -237t245.5 -86 q137 0 233.5 83.5t114.5 232.5h49q-21 -179 -145 -286t-343 -107q-144 0 -266.5 57t-205 155t-129 231.5t-46.5 285.5z" />
<glyph unicode="D" horiz-adv-x="1478" d="M57 0v39h150v1356h-150v39h594q337 0 534 -195t197 -514q0 -208 -96 -374.5t-263 -258.5t-372 -92h-594zM459 39h166q117 0 209.5 51t152 142.5t90.5 213.5t31 267q0 140 -33.5 264t-94.5 217t-153 147t-204 54h-164v-1356z" />
<glyph unicode="E" horiz-adv-x="1296" d="M57 0v39h150v1356h-150v39h1067v-416h-41q-27 193 -107 284t-247 91h-272v-658h145h4q123 0 175 55q53 56 71 189h39v-535h-39q-18 132 -71.5 188t-178.5 56h-145v-647h295q169 0 243.5 80.5t108.5 290.5h39v-412h-1086z" />
<glyph unicode="F" horiz-adv-x="1239" d="M57 0v39h150v1356h-150v39h1067v-416h-41q-27 193 -107 284t-247 91h-272v-666h147q126 0 179 55.5t71 188.5h39v-535h-39q-18 133 -71 188.5t-179 55.5h-147v-641h155v-39h-555z" />
<glyph unicode="G" horiz-adv-x="1472" d="M90 709q0 158 51.5 296.5t141.5 237t218.5 155t276.5 56.5q77 0 145.5 -18t119.5 -36t87 -18q26 0 41 19t15 53h39v-485h-43q-57 438 -396 438q-88 0 -159 -34t-119.5 -94.5t-81 -147.5t-47 -189.5t-14.5 -222.5q0 -147 24 -271t70.5 -219t121.5 -148.5t171 -53.5 q128 0 203 71t75 207v268h-174v39h549v-39h-137v-608h-41v47q0 67 -16 92t-52 25q-33 0 -74 -23.5t-78.5 -51t-106.5 -51t-150 -23.5q-190 0 -342 97.5t-235 263.5t-83 368z" />
<glyph unicode="H" horiz-adv-x="1544" d="M57 0v39h150v1356h-150v39h551v-39h-147v-660h622v660h-147v39h551v-39h-150v-1356h150v-39h-551v39h147v649h-622v-649h147v-39h-551z" />
<glyph unicode="I" horiz-adv-x="667" d="M57 0v39h150v1356h-150v39h553v-39h-149v-1356h149v-39h-553z" />
<glyph unicode="J" horiz-adv-x="835" d="M59 219q0 70 44 117t106 47q65 0 102 -36.5t37 -94.5q0 -60 -36.5 -96.5t-90.5 -36.5q-9 0 -21 3t-16 3q-12 0 -12 -12q0 -32 37 -59t106 -27q80 0 133.5 50t53.5 134q0 64 -18 130.5t-39.5 118.5t-39.5 146t-18 207v582h-151v39h552v-39h-147v-883q0 -90 -8.5 -164.5 t-31 -144t-58.5 -116.5t-93.5 -75t-132.5 -28q-120 0 -189 67t-69 168z" />
<glyph unicode="K" horiz-adv-x="1462" d="M57 0v39h150v1356h-150v39h551v-39h-147v-764l512 575q42 48 56 92q6 18 6 33q-1 21 -13 39q-20 28 -74 29h-35v35h439v-35h-23q-72 0 -148.5 -56.5t-170.5 -160.5l-234 -262l510 -881h137v-39h-565v39h135l-395 678l-137 -152v-526h147v-39h-551z" />
<glyph unicode="L" horiz-adv-x="1255" d="M57 0v39h150v1356h-150v39h555v-39h-155v-1354h293q170 0 244 85.5t108 309.5h39v-436h-1084z" />
<glyph unicode="M" horiz-adv-x="1689" d="M57 0v39h23q57 0 93 58t36 177v1121h-148v39h402l405 -1170l369 1170h391v-39h-147v-1356h147v-39h-545v39h150v1204q-54 -175 -187.5 -596t-203.5 -647h-140l-444 1260v-986q0 -119 36 -177t93 -58h23v-39h-353z" />
<glyph unicode="N" horiz-adv-x="1462" d="M57 0v39h23q57 0 93 58t36 177v1121h-148v39h406l747 -1254v977q0 119 -36 178.5t-93 59.5h-22v39h352v-39h-22q-57 0 -93 -59.5t-36 -178.5v-1157h-220l-786 1300v-1026q0 -119 36 -177t93 -58h23v-39h-353z" />
<glyph unicode="O" horiz-adv-x="1599" d="M98 709q0 210 88 380t249 267.5t364 97.5q223 0 383.5 -95.5t239.5 -258.5t79 -375q0 -211 -88 -381t-249 -268.5t-365 -98.5q-168 0 -302 55t-220.5 153.5t-132.5 232t-46 291.5zM371 721q0 -143 25 -266t75.5 -221.5t134.5 -154.5t193 -56q93 0 166.5 35.5t122 97 t80.5 149.5t45.5 188.5t13.5 219.5q0 143 -25 266t-75 220.5t-134 153.5t-194 56q-93 0 -166.5 -35.5t-122 -96.5t-80.5 -149.5t-45.5 -188.5t-13.5 -218z" />
<glyph unicode="P" horiz-adv-x="1325" d="M57 0v39h150v1356h-150v39h656q244 0 384 -102.5t140 -274.5q0 -113 -72.5 -202.5t-198.5 -139t-282 -49.5h-227v-627h151v-39h-551zM457 709h198q83 0 146.5 27t101 74.5t56 108t18.5 132.5q0 148 -79.5 245t-233.5 97h-207v-684z" />
<glyph unicode="Q" horiz-adv-x="1599" d="M98 715q0 210 88 378.5t248.5 264.5t364.5 96q223 0 383.5 -94t239.5 -255.5t79 -373.5q0 -215 -91.5 -386.5t-252.5 -262.5q6 -43 6 -100q0 -87 13 -124.5t47 -37.5q59 0 59 74v69h39v-74q0 -82 -48.5 -140t-142.5 -58q-200 0 -200 270v37q-51 -10 -131 -10 q-168 0 -302 54.5t-220.5 151.5t-132.5 230t-46 291zM371 727q0 -111 14 -209.5t44.5 -186.5t76.5 -152.5t113.5 -104t150.5 -43.5v26q0 87 48.5 150t146.5 63q89 0 133 -75q129 170 129 524q0 143 -25 265t-75 218.5t-134 151.5t-194 55q-93 0 -166.5 -34.5t-122 -95.5 t-80.5 -148t-45.5 -186.5t-13.5 -217.5zM815 31q65 3 113 20v9q0 79 -54 79q-29 0 -44 -23t-15 -59v-26z" />
<glyph unicode="R" horiz-adv-x="1394" d="M57 0v39h150v1356h-150v39h660q243 0 382.5 -100t139.5 -271q0 -130 -99 -228t-259 -137q143 -38 220 -149t77 -279q0 -84 13.5 -120.5t47.5 -36.5q59 0 59 77v72h39v-74q0 -84 -50.5 -146t-147.5 -62q-111 0 -158 73.5t-47 214.5q0 81 -6 138.5t-24 111.5t-49 86.5 t-82.5 52t-123.5 19.5h-192v-637h151v-39h-551zM457 719h200q163 0 242.5 94t79.5 244q0 70 -19 129.5t-56 106.5t-98 73.5t-140 26.5h-209v-674z" />
<glyph unicode="S" horiz-adv-x="1210" d="M98 10v486h43q26 -211 143.5 -339t313.5 -128q143 0 219 73.5t76 194.5q0 64 -26.5 114t-71 84t-102.5 62t-122 52t-128 49t-122 59t-102.5 76t-71 105t-26.5 142q0 187 133.5 300.5t366.5 113.5q77 0 145 -18.5t119.5 -37t87.5 -18.5q26 0 40.5 20t14.5 54h39v-485h-43 q-13 98 -41.5 175.5t-75.5 137.5t-118 92.5t-162 32.5q-139 0 -216 -74t-77 -184q0 -66 26.5 -117.5t71.5 -85.5t103 -61.5t122.5 -50.5t129 -47.5t122.5 -57.5t103 -75t71.5 -106t26.5 -145q0 -186 -141 -304.5t-363 -118.5q-76 0 -145 16t-109 36t-83 36t-74 16 q-27 0 -42.5 -20t-15.5 -54h-39z" />
<glyph unicode="T" horiz-adv-x="1409" d="M117 1014v497h37v-7q0 -70 59 -70h985q59 0 59 70v7h37v-497h-41q-28 195 -107 288t-245 93h-70v-1356h152v-39h-555v39h150v1356h-68q-166 0 -245 -93t-107 -288h-41z" />
<glyph unicode="U" horiz-adv-x="1466" d="M47 1395v39h551v-39h-147v-908q0 -162 110 -262t279 -100q165 0 272 98.5t107 274.5v659q0 119 -36 178.5t-93 59.5h-23v39h352v-39h-22q-57 0 -93 -59.5t-36 -178.5v-661q0 -149 -73.5 -267.5t-196.5 -182.5t-271 -64q-231 0 -380.5 141t-149.5 354v918h-150z" />
<glyph unicode="V" horiz-adv-x="1538" d="M31 1395v39h565v-39h-152l433 -1159l342 962q13 36 15 70v9q0 29 -8 55q-10 30 -38.5 47.5t-71.5 17.5h-37v37h428v-37h-28q-136 0 -213 -211l-422 -1186h-142l-530 1395h-141z" />
<glyph unicode="W" horiz-adv-x="2095" d="M31 1395v39h557v-39h-150l324 -1127l256 840l-80 287h-137v39h538v-39h-145l324 -1133l260 932q11 38 12 72v6q0 30 -8 58q-10 30 -38 48.5t-71 18.5h-37v37h428v-37h-28q-72 0 -126.5 -57.5t-82.5 -157.5l-332 -1182h-154l-299 1022l-309 -1022h-151l-410 1395h-141z " />
<glyph unicode="X" horiz-adv-x="1501" d="M39 0v39h20q143 0 301 221l289 397l-469 738h-137v39h563v-39h-137l346 -557l260 360q37 52 49 96q4 15 4 28q0 24 -14 44q-22 28 -78 29h-32v39h436v-39h-21q-143 0 -301 -221l-274 -379l481 -756h135v-39h-563v39h139l-360 575l-273 -378q-37 -52 -49 -96 q-4 -15 -4 -28q0 -24 14 -44q22 -28 78 -29h33v-39h-436z" />
<glyph unicode="Y" horiz-adv-x="1533" d="M31 1395v39h565v-39h-141l397 -623l289 426q37 53 48 97q4 15 4 28q0 25 -15 44q-22 28 -78 28h-33v39h436v-39h-20q-146 0 -299 -221l-314 -453v-682h148v-39h-549v39h147v651l-450 705h-135z" />
<glyph unicode="Z" horiz-adv-x="1382" d="M96 0l852 1393h-401q-169 0 -243.5 -83t-108.5 -294h-39v418h1104l-854 -1393h452q87 0 145 19.5t99 66t64.5 115.5t41.5 176h39v-418h-1151z" />
<glyph unicode="[" horiz-adv-x="772" d="M190 -193v1729h525v-41h-301v-1645h301v-43h-525z" />
<glyph unicode="\" horiz-adv-x="749" d="M63 1481h66q92 -254 171.5 -459t115.5 -307q50 -136 122.5 -345.5t147.5 -420.5h-65q-91 254 -176 463t-119 303q-33 92 -101.5 299t-161.5 467z" />
<glyph unicode="]" horiz-adv-x="772" d="M57 -150h299v1645h-299v41h525v-1729h-525v43z" />
<glyph unicode="^" d="M250 78l282 799q13 32 46 32q34 0 47 -32l286 -799h-96l-237 663l-236 -663h-92z" />
<glyph unicode="_" horiz-adv-x="1024" d="M-4 -188h1032v-43h-1032v43z" />
<glyph unicode="`" horiz-adv-x="1024" d="M233 1430q0 32 19.5 50.5t48.5 18.5t55 -16q50 -26 182 -106.5t214 -114.5v-45q-72 28 -144 51t-175 52t-134 38q-66 14 -66 72z" />
<glyph unicode="a" horiz-adv-x="1060" d="M96 213q0 72 31 122t80.5 77t109.5 46.5t119.5 39t109 45.5t80.5 75t31 119q0 176 -213 176q-81 0 -134.5 -31t-53.5 -65q0 -12 16 -12q48 0 83.5 -30.5t35.5 -82.5q0 -49 -37 -84t-94 -35q-54 0 -89.5 36.5t-35.5 92.5q0 99 95.5 177.5t254.5 78.5q175 0 271 -88.5 t96 -251.5v-460q0 -80 61 -80q30 0 50 24t20 58h33q0 -30 -9.5 -59.5t-29 -57.5t-56 -45.5t-83.5 -17.5q-76 0 -125 39.5t-64 111.5q-114 -151 -282 -151q-112 0 -191.5 63.5t-79.5 169.5zM313 229q0 -72 43.5 -113.5t112.5 -41.5q75 0 122.5 45t47.5 112v336 q-30 -30 -77.5 -58.5t-87.5 -50.5t-78.5 -51t-60.5 -73.5t-22 -104.5z" />
<glyph unicode="b" horiz-adv-x="1144" d="M20 1456v37h342v-647q37 49 101 82t151 33q188 0 301 -133.5t113 -340.5q0 -138 -59.5 -253t-166 -182.5t-235.5 -67.5q-64 0 -119.5 18.5t-86.5 40.5t-65 40.5t-60 18.5q-30 0 -50.5 -33t-48.5 -126h-43l27 80q35 119 35 194v1239h-136zM362 233q0 -100 52.5 -151 t138.5 -51q82 0 139.5 58.5t85 156.5t27.5 225q0 191 -65 306.5t-185 115.5q-88 0 -140.5 -53.5t-52.5 -151.5v-455z" />
<glyph unicode="c" horiz-adv-x="1015" d="M117 467q0 135 59.5 248t167 179.5t238.5 66.5q157 0 241 -75.5t84 -178.5q0 -60 -36 -99t-93 -39t-93 34t-36 85q0 54 40 86.5t91 32.5q23 0 23 14q0 34 -50 63t-128 29q-132 0 -208.5 -114.5t-76.5 -321.5q0 -189 81 -307.5t220 -118.5q87 0 151 56t74 153h43 q-11 -125 -103 -202.5t-247 -77.5q-194 0 -318 139.5t-124 347.5z" />
<glyph unicode="d" horiz-adv-x="1202" d="M117 461q0 207 122.5 353.5t305.5 146.5q152 0 239 -103v596h-139v39h348v-1335q0 -80 60 -80q31 0 50 23.5t19 58.5h37q0 -30 -9.5 -59.5t-29.5 -57.5t-57 -45.5t-86 -17.5q-71 0 -118 37t-62 104q-39 -58 -106.5 -99.5t-160.5 -41.5q-187 0 -300 136t-113 345zM340 469 q0 -191 65 -303.5t183 -112.5q90 0 143 53.5t53 149.5v446q0 93 -52 145t-136 52q-123 0 -189.5 -118.5t-66.5 -311.5z" />
<glyph unicode="e" horiz-adv-x="1056" d="M117 467q0 135 56.5 248t160 179.5t233.5 66.5q180 1 284 -119q99 -114 99 -302v-18h-608v-57q0 -66 10.5 -124.5t33.5 -111.5t58 -91t87 -60.5t116 -22.5q94 0 159.5 54.5t78.5 150.5h45q-12 -124 -107 -202t-250 -78q-201 0 -328.5 139.5t-127.5 347.5zM344 561h377v18 q0 166 -36 250q-38 89 -122 89q-90 0 -146.5 -97.5t-72.5 -259.5z" />
<glyph unicode="f" horiz-adv-x="686" d="M47 0v39h135v860h-135v39h135v227q0 168 76.5 265.5t206.5 97.5q109 0 168 -57.5t59 -151.5q0 -62 -35.5 -100.5t-91.5 -38.5q-55 0 -88 30t-33 80q0 54 37 84.5t97 30.5q7 0 11.5 4.5t4.5 9.5q0 24 -33 47t-92 23q-81 0 -130.5 -63t-49.5 -185q0 -123 53 -303h240v-41 h-226q41 -139 41 -291v-567h140v-39h-490z" />
<glyph unicode="g" horiz-adv-x="1042" d="M106 -129q0 80 49 132t117 69q-50 19 -82 56.5t-32 92.5q0 60 45 106t112 64q-79 36 -125.5 102.5t-46.5 153.5q0 140 105 224.5t272 84.5q38 0 93 -7t89 -7q48 0 80.5 14.5t32.5 32.5q0 12 -22 12q-48 0 -83.5 29.5t-35.5 83.5q0 48 36.5 80.5t92.5 32.5q60 0 97.5 -33 t37.5 -88q0 -71 -52.5 -126.5t-140.5 -74.5q146 -81 146 -250q0 -135 -106.5 -222t-272.5 -87q-45 0 -87.5 6t-64.5 6q-49 0 -78.5 -21t-29.5 -56q0 -51 67 -68.5t265 -28.5q92 -5 160.5 -19t125 -42.5t86 -77.5t29.5 -117q0 -141 -129.5 -232t-355.5 -91q-198 0 -296 74.5 t-98 191.5zM172 -127q0 -100 81.5 -163.5t246.5 -63.5q152 0 227.5 54.5t75.5 145.5q0 199 -467 199q-73 0 -118.5 -46.5t-45.5 -125.5zM354 653q0 -122 38 -194t120 -72q91 0 130.5 67.5t39.5 194.5q0 264 -158 264q-91 0 -130.5 -66t-39.5 -194z" />
<glyph unicode="h" horiz-adv-x="1148" d="M57 0v39h129v1415h-129v39h342v-682q39 57 110.5 100t166.5 43q144 0 216.5 -93t72.5 -259v-563h129v-39h-455v39h111v688q0 75 -41 116.5t-113 41.5q-85 0 -141 -66t-56 -153v-627h111v-39h-453z" />
<glyph unicode="i" horiz-adv-x="600" d="M70 0v39h135v860h-135v39h346v-899h129v-39h-475zM178 1376q0 53 37 89t90 36q57 0 93 -34.5t36 -88.5q0 -55 -37 -91t-92 -36q-57 0 -92 34t-35 91z" />
<glyph unicode="j" horiz-adv-x="567" d="M-61 -246q0 58 36 96.5t88 38.5q56 0 86.5 -30.5t30.5 -81.5q0 -50 -34 -79.5t-80 -29.5q-15 0 -15 -12q0 -18 22.5 -29.5t63.5 -11.5q71 0 118.5 46t47.5 128q0 55 -15.5 125.5t-34.5 131.5t-34.5 153.5t-15.5 185.5v514h-133v39h346v-983q0 -101 -31.5 -185.5 t-95.5 -138t-150 -53.5q-90 0 -145 47.5t-55 128.5zM176 1376q0 53 38 89t93 36q56 0 91.5 -34.5t35.5 -88.5t-37.5 -90.5t-89.5 -36.5q-59 0 -95 34t-36 91z" />
<glyph unicode="k" horiz-adv-x="1153" d="M57 0v39h131v1415h-131v39h344v-1092l316 338q57 62 57 117q0 25 -27 37t-94 12v33h402v-35h-23q-34 0 -68.5 -14.5t-76 -49t-62 -54.5t-67.5 -68l-103 -109l326 -569h119v-39h-465v39h104l-235 412l-103 -111v-301h111v-39h-455z" />
<glyph unicode="l" horiz-adv-x="595" d="M57 0v39h136v1415h-136v39h351v-1454h129v-39h-480z" />
<glyph unicode="m" horiz-adv-x="1658" d="M70 0v39h131v862h-131v37h342v-119q37 55 104 96t158 41q92 0 158 -44.5t94 -120.5q35 71 104.5 118t173.5 47q137 0 205 -93t68 -259v-565h129v-39h-455v39h111v690q0 76 -35.5 117t-100.5 41q-82 0 -132 -60.5t-50 -146.5v-641h111v-39h-434v39h110v690q0 76 -36 117 t-101 41q-80 0 -131 -61.5t-51 -147.5v-639h110v-39h-452z" />
<glyph unicode="n" horiz-adv-x="1163" d="M70 0v39h131v862h-131v37h344v-129q42 59 112 103t164 44q143 0 216 -93.5t73 -258.5v-565h129v-39h-455v39h111v690q0 75 -41 116.5t-111 41.5q-86 0 -142 -67t-56 -154v-627h110v-39h-454z" />
<glyph unicode="o" horiz-adv-x="1163" d="M117 465q0 135 64 248.5t172.5 178t234.5 64.5q199 0 329 -136.5t130 -342.5q0 -135 -63.5 -249.5t-171 -180t-232.5 -65.5q-201 0 -332 138.5t-131 344.5zM340 475q0 -201 61.5 -325.5t178.5 -124.5q119 0 181 120.5t62 321.5t-60 323.5t-175 122.5q-123 0 -185.5 -119 t-62.5 -319z" />
<glyph unicode="p" horiz-adv-x="1185" d="M55 -350h133v1249h-133v39h348v-90q36 48 99.5 80.5t152.5 32.5q188 0 301 -131t113 -338q0 -210 -121 -351t-305 -141q-161 0 -240 102v-452h129v-37h-477v37zM403 258q0 -93 51.5 -144t133.5 -51q125 0 191.5 113t66.5 307q0 189 -65 300.5t-185 111.5 q-88 0 -140.5 -54.5t-52.5 -152.5v-430z" />
<glyph unicode="q" horiz-adv-x="1153" d="M117 469q0 209 132 348t331 139q64 0 119 -18.5t85.5 -40.5t64.5 -40.5t60 -18.5q32 0 52.5 33t50.5 128h43l-25 -81q-3 -10 -13 -45.5t-14 -50.5t-8 -43.5t-4 -55.5v-1075h139v-35h-481v37h135v465q-38 -48 -101 -81.5t-148 -33.5q-189 0 -303.5 131.5t-114.5 337.5z M340 481q0 -191 65 -302t185 -111q89 0 141.5 52.5t52.5 149.5v441q0 97 -53 148.5t-137 51.5q-122 0 -188 -118.5t-66 -311.5z" />
<glyph unicode="r" horiz-adv-x="890" d="M70 0v39h133v860h-133v39h346v-186q24 40 50.5 69.5t72 62.5t115 50.5t159.5 17.5v-325h-33q-13 121 -57 169t-115 48q-76 0 -134 -79.5t-58 -207.5v-518h137v-39h-483z" />
<glyph unicode="s" horiz-adv-x="954" d="M106 -2v338h33q23 -148 111.5 -230.5t222.5 -82.5q91 0 142 46.5t51 120.5q0 51 -30 89t-78 62t-105.5 44.5t-115.5 44t-106 53t-78 78t-30 113.5q0 127 95 205.5t265 78.5q63 0 116.5 -14t90 -27.5t58.5 -13.5q16 0 27 12t11 37h33v-319h-33q-21 133 -92.5 206.5 t-197.5 73.5q-90 0 -140.5 -44t-50.5 -111q0 -46 23.5 -81.5t61.5 -56.5t87 -41.5t99.5 -36t99.5 -39.5t87 -52t61.5 -74.5t23.5 -106.5q0 -126 -102 -208t-263 -82q-60 0 -110.5 11.5t-78 25t-57 25t-53.5 11.5q-39 0 -39 -55h-39z" />
<glyph unicode="t" horiz-adv-x="735" d="M47 899v39h100v174l211 90v-264h285v-39h-285v-641q0 -88 38 -134t110 -46q54 0 93 36.5t40 92.5h41q0 -88 -74.5 -157.5t-181.5 -69.5q-140 0 -208.5 78t-68.5 214v627h-100z" />
<glyph unicode="u" horiz-adv-x="1163" d="M47 899v39h346v-731q0 -75 41 -115.5t111 -40.5q85 0 141.5 63.5t56.5 149.5v635h-129v39h338v-780q0 -80 62 -80q30 0 49.5 24t19.5 58h35q0 -30 -10 -60t-30 -57.5t-57 -45t-85 -17.5q-73 0 -122 38t-64 109q-104 -147 -281 -147q-145 0 -218 94t-73 260v565h-131z" />
<glyph unicode="v" horiz-adv-x="1153" d="M27 899v39h485v-41h-133l283 -721l202 549q16 47 16 86t-27 65q-27 27 -79 27h-33v35h383v-35h-26q-120 0 -189 -188l-270 -715h-125l-360 899h-127z" />
<glyph unicode="w" horiz-adv-x="1564" d="M27 899v39h458v-41h-112l225 -702l164 469l-78 235h-106v39h452v-41h-129l217 -690l166 518q12 44 12 80v9q-2 40 -30 64.5t-80 24.5h-33v35h383v-35h-27q-122 0 -180 -188l-231 -715h-123l-189 596l-213 -596h-127l-292 899h-127z" />
<glyph unicode="x" horiz-adv-x="1177" d="M47 899v39h492v-39h-131l237 -340l131 170q31 41 39 79q2 10 2 19q0 25 -16 45q-22 26 -74 27h-43v39h414v-39h-35q-59 0 -112.5 -45t-127.5 -139l-151 -191l340 -485h121v-39h-494v39h131l-248 348l-139 -178q-31 -41 -39 -79q-2 -10 -2 -19q0 -25 16 -45q22 -26 74 -27 h43v-39h-414v39h35q59 0 112.5 45t127.5 139l160 201l-332 475h-117z" />
<glyph unicode="y" horiz-adv-x="1148" d="M31 899v39h487v-37h-133l299 -627l174 451q17 46 17 86q0 38 -27 65q-28 27 -80 27h-33v35h383v-35h-26q-119 0 -191 -188l-319 -830q-60 -149 -123.5 -216.5t-153.5 -67.5q-98 0 -150.5 57.5t-52.5 142.5q0 59 36.5 99.5t88.5 40.5q55 0 87 -32t32 -81q0 -51 -35 -82 t-82 -31q-21 0 -41 4q5 -30 34.5 -53.5t82.5 -23.5q76 0 129 59.5t107 194.5l49 135l-430 868h-129z" />
<glyph unicode="z" horiz-adv-x="1042" d="M96 0l584 897h-234q-133 0 -195 -70t-83 -200h-33v311h803l-582 -897h267q134 0 196.5 73.5t83.5 213.5h35v-328h-842z" />
<glyph unicode="{" horiz-adv-x="772" d="M131 137q0 59 21.5 112t52.5 91t62.5 72.5t53 70t21.5 68.5q0 51 -38.5 73.5t-117.5 22.5v47q79 0 117.5 21.5t38.5 72.5q0 28 -15.5 58.5t-39 56.5t-51 59.5t-51 66.5t-39 79t-15.5 96q0 150 153 252.5t431 102.5v-48q-179 0 -267 -64t-88 -175q0 -49 16.5 -96 t39.5 -85.5t46 -76t39.5 -80t16.5 -84.5q0 -112 -160 -180q62 -24 111 -69.5t49 -108.5q0 -42 -16.5 -85t-39.5 -80t-46 -75t-39.5 -85.5t-16.5 -96.5q0 -111 88 -175.5t267 -64.5v-47q-141 0 -254.5 29t-184 78.5t-108 112.5t-37.5 134z" />
<glyph unicode="|" horiz-adv-x="548" d="M231 -305v1802h86v-1802h-86z" />
<glyph unicode="}" horiz-adv-x="772" d="M57 -170q179 0 266 64.5t87 175.5q0 60 -24.5 119.5t-53.5 100.5t-53.5 96t-24.5 106q0 64 48.5 109.5t111.5 68.5q-160 68 -160 180q0 50 24.5 105t53.5 96.5t53.5 101.5t24.5 119q0 111 -87 175t-266 64v48q277 0 430.5 -102.5t153.5 -252.5q0 -50 -15.5 -96t-39 -79 t-51 -66.5t-51 -59.5t-39 -56.5t-15.5 -58.5q0 -51 38.5 -72.5t117.5 -21.5v-47q-79 0 -117.5 -22.5t-38.5 -73.5q0 -33 21.5 -68.5t52.5 -70t62.5 -72.5t53 -91t21.5 -112q0 -71 -37.5 -134t-108.5 -112.5t-184 -78.5t-254 -29v47z" />
<glyph unicode="~" d="M125 393q37 112 108.5 176t176.5 64q50 0 93.5 -15t76 -37t64.5 -44t71.5 -37t83.5 -15q115 0 166 123h69q-35 -112 -108 -174.5t-181 -62.5q-69 0 -129.5 22.5t-96 49t-79 49t-82.5 22.5q-60 0 -98 -27.5t-67 -93.5h-68z" />
<glyph unicode="&#xa1;" horiz-adv-x="567" d="M150 903q0 60 39.5 97.5t99.5 37.5t98.5 -37.5t38.5 -95.5q0 -59 -39.5 -97t-97.5 -38q-61 0 -100 37t-39 96zM154 -248q0 82 17 180t38 179t38 206t17 254h49q0 -130 18 -256t39.5 -208t39.5 -179.5t18 -175.5q0 -71 -39 -112t-100 -41q-60 0 -97.5 41t-37.5 112z" />
<glyph unicode="&#xa2;" d="M150 467q0 197 129 338t325 153v201h47v-198q150 -4 238 -83.5t88 -175.5q0 -59 -36 -97t-91 -38q-57 0 -92 34t-35 85q0 53 38.5 85t88.5 32q20 0 20 12q0 29 -53 62.5t-139 33.5q-19 0 -27 -2v-856h17q104 0 180 55.5t86 151.5h43q-9 -112 -96.5 -190t-229.5 -88v-189 h-47v187q-196 3 -325 134.5t-129 352.5zM373 477q0 -168 62.5 -279t168.5 -137v840q-111 -30 -171 -145t-60 -279z" />
<glyph unicode="&#xa3;" d="M45 133q0 90 62 152.5t161 62.5q160 0 160 129q0 46 -14 90h-262v45h239q-24 43 -69.5 106t-74 105t-52 111.5t-23.5 148.5q0 157 121.5 257t314.5 100q74 0 134 -17.5t104 -35t78 -17.5q25 0 39 19t14 51h37v-467h-41q-48 420 -357 420q-116 0 -180.5 -68t-64.5 -172 q0 -86 22 -164t49.5 -129t59 -120t45.5 -128h364v-45h-354q2 -12 2 -24q0 -147 -158 -215q53 -13 116 -41.5t110 -52.5t112.5 -43t130.5 -19q75 3 133 48.5t93 121.5h39l-144 -381h-67q-107 0 -199 35t-153.5 84.5t-114 99t-105.5 84.5t-104 35q-40 0 -64 -14t-24 -33 q0 -14 24 -14q50 0 87.5 -34.5t37.5 -90.5q0 -54 -37.5 -87.5t-97.5 -33.5q-56 0 -92.5 39.5t-36.5 101.5z" />
<glyph unicode="&#xa5;" d="M12 1395v39h516v-39h-131l267 -508l178 315q51 82 38.5 139.5t-96.5 57.5h-32v35h395v-35h-6q-77 0 -136 -53t-120 -168l-183 -324h383v-43h-391v-188h391v-45h-391v-539h148v-39h-543v39h145v539h-368v45h368v188h-368v43h350l-305 541h-109z" />
<glyph unicode="&#xa6;" horiz-adv-x="542" d="M229 -305v819h95v-819h-95zM229 676v819h95v-819h-95z" />
<glyph unicode="&#xa7;" d="M82 700q0 211 143 301q-22 54 -22 123q0 143 103.5 229.5t289.5 86.5q70 0 126 -15.5t96.5 -31t74.5 -15.5q24 0 37.5 17t13.5 49h37v-428h-41q-51 379 -332 379q-97 0 -152 -54t-55 -133q0 -57 23 -105.5t62.5 -84t90.5 -67.5t107 -62t112 -61t107 -70t90.5 -84 t62.5 -108t23 -138q0 -211 -147 -303q29 -54 29 -121q0 -142 -104 -228.5t-290 -86.5q-71 0 -127 15.5t-96.5 30.5t-73.5 15q-51 0 -51 -65h-37v428h39q51 -379 332 -379q99 0 154 53.5t55 132.5q0 57 -23.5 105.5t-62.5 84t-90 67.5t-107.5 62t-113 61t-107.5 70t-90 84 t-62.5 108t-23.5 138zM186 821q0 -66 31.5 -122t85 -98.5t119 -81t139 -77t139.5 -77.5t125.5 -91.5t92.5 -111.5q55 55 55 145q0 65 -31.5 121t-84.5 99t-119 82t-139 78t-139 78t-125.5 91.5t-92.5 110.5q-56 -50 -56 -146z" />
<glyph unicode="&#xa8;" horiz-adv-x="1024" d="M197 1376q0 53 37 89t90 36q57 0 92 -34.5t35 -88.5q0 -55 -37 -91t-92 -36q-56 0 -90.5 34t-34.5 91zM571 1376q0 53 36.5 89t88.5 36q57 0 93 -34.5t36 -88.5q0 -55 -37 -91t-92 -36q-57 0 -91 34t-34 91z" />
<glyph unicode="&#xa9;" horiz-adv-x="1878" d="M147 717q0 210 101.5 379t282.5 264.5t405 95.5q169 0 316.5 -56t252 -153t164.5 -233.5t60 -292.5q0 -210 -102.5 -379.5t-284 -265.5t-406.5 -96q-135 0 -256.5 36t-218 102.5t-167.5 156.5t-109 203.5t-38 238.5zM274 719q0 -317 173.5 -504.5t488.5 -187.5 q318 0 492 187.5t174 504.5t-174 504.5t-492 187.5q-315 0 -488.5 -187.5t-173.5 -504.5zM516 717q0 92 35.5 175.5t96.5 145t148 97.5t185 36q158 0 241 -71t83 -176q0 -58 -36 -98t-91 -40q-56 0 -91.5 33.5t-35.5 85.5q0 56 37.5 88.5t87.5 32.5q16 0 16 12 q0 29 -46.5 56.5t-127.5 27.5q-130 0 -205.5 -105t-75.5 -292q0 -171 81.5 -279t219.5 -108q86 0 150 50t76 136h47q-14 -116 -105 -186t-245 -70q-198 0 -321.5 128t-123.5 321z" />
<glyph unicode="&#xaa;" d="M219 866q0 56 25 95t65.5 59.5t89.5 35.5t97.5 29.5t89 34.5t65.5 57t25 91q0 66 -45 102.5t-129 36.5q-60 0 -104 -23t-44 -49q0 -12 15 -12q42 0 69 -23.5t27 -68.5q0 -44 -31.5 -73.5t-81.5 -29.5q-46 0 -76 32t-30 77q0 88 77.5 148.5t211.5 60.5q148 0 229.5 -76 t81.5 -209v-342q0 -49 43 -49q20 0 33.5 14.5t13.5 40.5h35q0 -52 -35 -100.5t-109 -48.5q-58 0 -97.5 33t-59.5 88q-33 -47 -90 -84t-136 -37q-95 0 -160 50t-65 140zM408 877q0 -52 33.5 -85.5t86.5 -33.5q60 0 97 34.5t37 86.5v243q-30 -25 -82 -52.5t-85.5 -45 t-60 -55.5t-26.5 -92z" />
<glyph unicode="&#xab;" horiz-adv-x="1222" d="M119 539q0 25 31 49l618 436v-59l-528 -426l528 -426v-60l-618 436q-31 21 -31 50zM453 539q0 28 28 47l621 395v-57l-524 -385l524 -385v-58l-621 396q-28 19 -28 47z" />
<glyph unicode="&#xac;" d="M158 573v95h768q59 0 59 -54v-421h-96v380h-731z" />
<glyph unicode="&#xad;" horiz-adv-x="944" d="M150 487v105h628v-105h-628z" />
<glyph unicode="&#xae;" horiz-adv-x="1875" d="M147 717q0 210 101.5 379t282.5 264.5t405 95.5q169 0 316.5 -56t252 -153t164.5 -233.5t60 -292.5q0 -210 -102.5 -379.5t-284 -265.5t-406.5 -96q-135 0 -256.5 36t-218 102.5t-167.5 156.5t-109 203.5t-38 238.5zM274 719q0 -317 173.5 -504.5t488.5 -187.5 q318 0 492 187.5t174 504.5t-174 504.5t-492 187.5q-315 0 -488.5 -187.5t-173.5 -504.5zM535 1124v37h444q169 0 266.5 -61.5t97.5 -167.5q0 -87 -60 -142.5t-163 -76.5q91 -25 138 -91t47 -167q0 -48 6 -65t22 -17q29 0 29 43v30h41v-34q0 -54 -37 -93.5t-106 -39.5 q-160 0 -160 180q0 66 -4 102t-20 71t-50 49.5t-90 14.5h-111v-366h90v-39h-378v39h90v794h-92zM825 737h113q107 0 152 51t45 142q0 192 -191 192h-119v-385z" />
<glyph unicode="&#xaf;" horiz-adv-x="1024" d="M197 1315v84q104 0 187 5t128 5q39 0 126.5 -5t197.5 -5v-84q-110 0 -197.5 -5t-126.5 -5q-45 0 -128 5t-187 5z" />
<glyph unicode="&#xb0;" horiz-adv-x="862" d="M147 1192q0 113 79 185.5t204 72.5q124 0 204.5 -72.5t80.5 -185.5q0 -112 -80 -184t-205 -72q-126 0 -204.5 71.5t-78.5 184.5zM262 1192q0 -87 45 -142t123 -55q80 0 127 55t47 142q0 88 -47 143.5t-127 55.5q-78 0 -123 -55.5t-45 -143.5z" />
<glyph unicode="&#xb1;" d="M158 33v94h846v-94h-846zM158 565v97h370v339h95v-339h381v-97h-381v-342h-95v342h-370z" />
<glyph unicode="&#xb4;" horiz-adv-x="1024" d="M262 1217v45q84 34 217 116t178 105q29 16 58 16t48 -18t19 -51q0 -57 -65 -72q-33 -10 -134.5 -38t-174.5 -51.5t-146 -51.5z" />
<glyph unicode="&#xb6;" horiz-adv-x="1298" d="M119 1059q0 169 142 272t380 103h528v-43h-114v-1391h-49v1391h-250v-1391h-47v672h-50q-154 0 -277 48.5t-193 137t-70 201.5zM377 1055q0 -71 17.5 -131t54 -107.5t99 -74.5t144.5 -27h17v676h-23q-79 0 -139.5 -27t-97 -74t-54.5 -106.5t-18 -128.5z" />
<glyph unicode="&#xb7;" horiz-adv-x="944" d="M334 539q0 59 39.5 98t95.5 39q62 0 100.5 -38t38.5 -97q0 -58 -40.5 -96.5t-100.5 -38.5q-59 0 -96 37t-37 96z" />
<glyph unicode="&#xb8;" horiz-adv-x="1024" d="M289 -313q0 30 18 49.5t51 19.5q29 0 46.5 -17t17.5 -42q0 -24 -13.5 -37.5t-27.5 -13.5q-8 0 -8 -8q0 -14 24.5 -26.5t67.5 -12.5q64 0 99.5 38.5t35.5 96.5q0 53 -31.5 84.5t-89.5 31.5q-37 0 -67 -9.5t-41 -18.5l-11 -10h-43l183 188h49l-119 -125q41 12 88 12 q97 0 156 -39t59 -108q0 -75 -69.5 -124.5t-180.5 -49.5q-94 0 -144 35t-50 86z" />
<glyph unicode="&#xba;" d="M195 1059q0 164 115 276.5t278 112.5q164 0 272.5 -108t108.5 -271q0 -162 -115 -275.5t-274 -113.5q-168 0 -276.5 108.5t-108.5 270.5zM391 1067q0 -158 48.5 -254t140.5 -96q96 0 145 93t49 251t-47.5 253t-138.5 95q-98 0 -147.5 -92t-49.5 -250z" />
<glyph unicode="&#xbb;" horiz-adv-x="1222" d="M119 96v58l526 385l-526 385v57l620 -395q29 -17 29 -47t-29 -47zM453 53v60l528 426l-528 426v59l620 -436q29 -23 29 -49q0 -31 -29 -50z" />
<glyph unicode="&#xbf;" horiz-adv-x="894" d="M78 -115q0 67 22 125t57 99.5t77 79t84.5 70.5t77.5 66t57 74t22 86q0 51 -16 88h45q37 -87 37 -170q0 -59 -18 -110.5t-44.5 -86.5t-57.5 -74.5t-57.5 -74.5t-44.5 -87.5t-18 -112.5q0 -98 53 -158.5t146 -60.5q84 0 139 40t55 78q0 13 -16 13q-66 0 -104.5 31.5 t-38.5 90.5q0 55 39 91t100 36q60 0 97.5 -39.5t37.5 -99.5q0 -118 -93.5 -206.5t-264.5 -88.5q-173 0 -273 81.5t-100 219.5zM324 903q0 58 39 96.5t98 38.5q61 0 99 -37t38 -96t-39.5 -98t-97.5 -39q-61 0 -99 37.5t-38 97.5z" />
<glyph unicode="&#xc0;" horiz-adv-x="1587" d="M31 0v35h28q136 0 213 211l449 1188h139l555 -1395h141v-39h-563v39h152l-215 549h-477l-134 -355q-13 -36 -14.5 -70t8 -63t38 -47t71.5 -18h37v-35h-428zM469 631h442l-225 577zM506 1761q0 33 19 51.5t48 18.5q30 0 56 -16q52 -27 182.5 -108t212.5 -114v-45 q-56 22 -120.5 43.5t-109.5 34.5t-116 33t-107 31q-65 14 -65 71z" />
<glyph unicode="&#xc1;" horiz-adv-x="1587" d="M31 0v35h28q136 0 213 211l449 1188h139l555 -1395h141v-39h-563v39h152l-215 549h-477l-134 -355q-13 -36 -14.5 -70t8 -63t38 -47t71.5 -18h37v-35h-428zM469 631h442l-225 577zM545 1548v45q84 34 216.5 116t178.5 106q29 16 57 16q29 0 48.5 -18.5t19.5 -51.5 q0 -56 -66 -71q-24 -7 -132 -37.5t-178.5 -53.5t-143.5 -51z" />
<glyph unicode="&#xc2;" horiz-adv-x="1587" d="M31 0v35h28q136 0 213 211l449 1188h139l555 -1395h141v-39h-563v39h152l-215 549h-477l-134 -355q-13 -36 -14.5 -70t8 -63t38 -47t71.5 -18h37v-35h-428zM449 1563q68 49 161.5 141.5t130.5 122.5q19 14 45 14.5t45 -14.5q37 -30 131 -122.5t162 -141.5l-18 -33 l-320 194l-319 -194zM469 631h442l-225 577z" />
<glyph unicode="&#xc3;" horiz-adv-x="1587" d="M31 0v35h28q136 0 213 211l449 1188h139l555 -1395h141v-39h-563v39h152l-215 549h-477l-134 -355q-13 -36 -14.5 -70t8 -63t38 -47t71.5 -18h37v-35h-428zM420 1602q26 101 84.5 160t150.5 59q43 0 79.5 -15t64 -37l55 -44t64 -37t79.5 -15q114 0 162 121h37 q-26 -100 -85.5 -157.5t-149.5 -57.5q-61 0 -113 22.5t-82.5 49t-70.5 49t-79 22.5q-57 0 -96 -27.5t-63 -92.5h-37zM469 631h442l-225 577z" />
<glyph unicode="&#xc4;" horiz-adv-x="1587" d="M31 0v35h28q136 0 213 211l449 1188h139l555 -1395h141v-39h-563v39h152l-215 549h-477l-134 -355q-13 -36 -14.5 -70t8 -63t38 -47t71.5 -18h37v-35h-428zM469 631h442l-225 577zM473 1706q0 53 37 89t90 36q57 0 92 -34.5t35 -88.5q0 -55 -37 -91t-92 -36 q-56 0 -90.5 34t-34.5 91zM848 1706q0 53 36.5 89t88.5 36q57 0 93 -34.5t36 -88.5q0 -55 -37 -91t-92 -36q-57 0 -91 34t-34 91z" />
<glyph unicode="&#xc5;" horiz-adv-x="1587" d="M31 0v35h28q136 0 213 211l449 1188h139l555 -1395h141v-39h-563v39h152l-215 549h-477l-134 -355q-13 -36 -14.5 -70t8 -63t38 -47t71.5 -18h37v-35h-428zM469 631h442l-225 577zM559 1745q0 90 65.5 151.5t159.5 61.5q98 0 164 -60t66 -151q0 -92 -66.5 -152.5 t-163.5 -60.5t-161 60t-64 151zM653 1745q0 -73 34.5 -117.5t96.5 -44.5q64 0 101 44.5t37 117.5q0 72 -37.5 118t-100.5 46q-61 0 -96 -45.5t-35 -118.5z" />
<glyph unicode="&#xc6;" horiz-adv-x="2172" d="M10 0v35h21q76 0 144 55t140 166l742 1139h-146v39h1090v-416h-41q-27 193 -107 283t-247 90h-273v-650h146q126 -1 179 55t71 189h38v-534h-38q-18 132 -71.5 187.5t-178.5 55.5h-146v-653h295q169 0 243.5 80.5t108.5 290.5h39v-412h-1052v39h114v655h-413l-303 -463 q-36 -54 -45 -98t14 -71t80 -27h32v-35h-436zM696 741h385v598z" />
<glyph unicode="&#xc7;" horiz-adv-x="1331" d="M98 709q0 212 86 382t242 266.5t352 96.5q77 0 142 -18t113 -36t83 -18q26 0 40.5 19t14.5 53h39v-485h-43q-10 79 -28 143t-49 120t-72.5 94t-100 59.5t-131.5 21.5q-109 0 -190.5 -52t-129.5 -146.5t-71.5 -215.5t-23.5 -270q0 -192 56.5 -343t163 -237t245.5 -86 q137 0 233.5 83.5t114.5 232.5h49q-21 -179 -145 -286t-343 -107h-12l-98 -105q41 12 88 12q97 0 156 -39t59 -108q0 -75 -69.5 -124.5t-180.5 -49.5q-94 0 -144 35t-50 86q0 30 18 49.5t51 19.5q29 0 46.5 -17t17.5 -42q0 -24 -13.5 -37.5t-27.5 -13.5q-8 0 -8 -8 q0 -14 24.5 -26.5t67.5 -12.5q64 0 99.5 38.5t35.5 96.5q0 53 -31.5 84.5t-89.5 31.5q-37 0 -67 -9.5t-41 -18.5l-11 -10h-43l164 170q-176 14 -311 114.5t-206 260.5t-71 352z" />
<glyph unicode="&#xc8;" horiz-adv-x="1296" d="M57 0v39h150v1356h-150v39h1067v-416h-41q-27 193 -107 284t-247 91h-272v-658h145q126 -1 179 55t71 189h39v-535h-39q-18 132 -71.5 188t-178.5 56h-145v-647h295q169 0 243.5 80.5t108.5 290.5h39v-412h-1086zM356 1761q0 33 19.5 51.5t48.5 18.5t55 -16 q52 -27 182.5 -108t212.5 -114v-45q-56 22 -120 43.5t-109 34.5t-116 33t-107 31q-66 14 -66 71z" />
<glyph unicode="&#xc9;" horiz-adv-x="1296" d="M57 0v39h150v1356h-150v39h1067v-416h-41q-27 193 -107 284t-247 91h-272v-658h145q126 -1 179 55t71 189h39v-535h-39q-18 132 -71.5 188t-178.5 56h-145v-647h295q169 0 243.5 80.5t108.5 290.5h39v-412h-1086zM389 1548v45q84 34 216.5 116t178.5 106q29 16 58 16 t48 -18.5t19 -51.5q0 -56 -65 -71q-27 -8 -133 -38t-177.5 -53t-144.5 -51z" />
<glyph unicode="&#xca;" horiz-adv-x="1296" d="M57 0v39h150v1356h-150v39h1067v-416h-41q-27 193 -107 284t-247 91h-272v-658h145q126 -1 179 55t71 189h39v-535h-39q-18 132 -71.5 188t-178.5 56h-145v-647h295q169 0 243.5 80.5t108.5 290.5h39v-412h-1086zM303 1563q68 49 162 141.5t131 122.5q19 14 45 14.5 t45 -14.5q37 -30 131 -122.5t162 -141.5l-18 -33l-320 194l-319 -194z" />
<glyph unicode="&#xcb;" horiz-adv-x="1296" d="M57 0v39h150v1356h-150v39h1067v-416h-41q-27 193 -107 284t-247 91h-272v-658h145q126 -1 179 55t71 189h39v-535h-39q-18 132 -71.5 188t-178.5 56h-145v-647h295q169 0 243.5 80.5t108.5 290.5h39v-412h-1086zM332 1706q0 53 37 89t90 36q57 0 92 -34.5t35 -88.5 q0 -55 -37 -91t-92 -36q-56 0 -90.5 34t-34.5 91zM707 1706q0 53 36 89t88 36q57 0 93.5 -34.5t36.5 -88.5q0 -55 -37.5 -91t-92.5 -36q-57 0 -90.5 34t-33.5 91z" />
<glyph unicode="&#xcc;" horiz-adv-x="667" d="M49 1761q0 33 19.5 51.5t48.5 18.5t55 -16q52 -27 182.5 -108t212.5 -114v-45q-56 22 -120 43.5t-109 34.5t-116 33t-107 31q-66 14 -66 71zM57 0v39h150v1356h-150v39h553v-39h-149v-1356h149v-39h-553z" />
<glyph unicode="&#xcd;" horiz-adv-x="667" d="M57 0v39h150v1356h-150v39h553v-39h-149v-1356h149v-39h-553zM61 1548v45q84 34 217.5 116t178.5 106q29 16 57 16q29 0 48.5 -18.5t19.5 -51.5q0 -56 -66 -71q-27 -8 -133 -38t-177.5 -53t-144.5 -51z" />
<glyph unicode="&#xce;" horiz-adv-x="667" d="M-4 1563q68 49 162 141.5t131 122.5q19 14 45 14.5t45 -14.5q37 -30 131 -122.5t162 -141.5l-19 -33l-319 194l-320 -194zM57 0v39h150v1356h-150v39h553v-39h-149v-1356h149v-39h-553z" />
<glyph unicode="&#xcf;" horiz-adv-x="667" d="M18 1706q0 53 37 89t90 36q57 0 92 -34.5t35 -88.5q0 -55 -37 -91t-92 -36q-56 0 -90.5 34t-34.5 91zM57 0v39h150v1356h-150v39h553v-39h-149v-1356h149v-39h-553zM393 1706q0 53 36.5 89t88.5 36q57 0 93 -34.5t36 -88.5q0 -55 -37 -91t-92 -36q-57 0 -91 34t-34 91z " />
<glyph unicode="&#xd0;" horiz-adv-x="1478" d="M57 0v39h150v649h-146v47h146v658h-150v41h594q337 0 534 -195t197 -514q0 -208 -96 -374.5t-263 -258.5t-372 -92h-594zM459 39h166q117 0 209.5 51t152 142.5t90.5 213.5t31 267q0 140 -33.5 263.5t-94.5 216t-153 146.5t-204 54h-164v-658h305v-47h-305v-649z" />
<glyph unicode="&#xd1;" horiz-adv-x="1462" d="M57 0v39h23q57 0 93 58t36 177v1121h-148v39h406l747 -1254v977q0 119 -36 178.5t-93 59.5h-22v39h352v-39h-22q-57 0 -93 -59.5t-36 -178.5v-1157h-220l-786 1300v-1026q0 -119 36 -177t93 -58h23v-39h-353zM369 1599q26 102 84.5 161t150.5 59q43 0 79.5 -15t64 -37 l55 -44t64 -37t79.5 -15q114 0 162 121h37q-26 -99 -86 -157t-150 -58q-61 0 -113 22.5t-82 49t-70 49t-79 22.5q-115 0 -159 -121h-37z" />
<glyph unicode="&#xd2;" horiz-adv-x="1599" d="M98 709q0 210 88 380t249 267.5t364 97.5q223 0 383.5 -95.5t239.5 -258.5t79 -375q0 -211 -88 -381t-249 -268.5t-365 -98.5q-168 0 -302 55t-220.5 153.5t-132.5 232t-46 291.5zM371 721q0 -143 25 -266t75.5 -221.5t134.5 -154.5t193 -56q93 0 166.5 35.5t122 97 t80.5 149.5t45.5 188.5t13.5 219.5q0 143 -25 266t-75 220.5t-134 153.5t-194 56q-93 0 -166.5 -35.5t-122 -96.5t-80.5 -149.5t-45.5 -188.5t-13.5 -218zM526 1761q0 33 19.5 51.5t48.5 18.5t55 -16q52 -27 182.5 -108t212.5 -114v-45q-56 22 -120 43.5t-109 34.5t-116 33 t-107 31q-66 14 -66 71z" />
<glyph unicode="&#xd3;" horiz-adv-x="1599" d="M98 709q0 210 88 380t249 267.5t364 97.5q223 0 383.5 -95.5t239.5 -258.5t79 -375q0 -211 -88 -381t-249 -268.5t-365 -98.5q-168 0 -302 55t-220.5 153.5t-132.5 232t-46 291.5zM371 721q0 -143 25 -266t75.5 -221.5t134.5 -154.5t193 -56q93 0 166.5 35.5t122 97 t80.5 149.5t45.5 188.5t13.5 219.5q0 143 -25 266t-75 220.5t-134 153.5t-194 56q-93 0 -166.5 -35.5t-122 -96.5t-80.5 -149.5t-45.5 -188.5t-13.5 -218zM543 1548v45q84 34 216.5 116t178.5 106q29 16 57 16q29 0 48.5 -18.5t19.5 -51.5q0 -56 -66 -71q-24 -7 -132 -37.5 t-178.5 -53.5t-143.5 -51z" />
<glyph unicode="&#xd4;" horiz-adv-x="1599" d="M98 709q0 210 88 380t249 267.5t364 97.5q223 0 383.5 -95.5t239.5 -258.5t79 -375q0 -211 -88 -381t-249 -268.5t-365 -98.5q-168 0 -302 55t-220.5 153.5t-132.5 232t-46 291.5zM371 721q0 -143 25 -266t75.5 -221.5t134.5 -154.5t193 -56q93 0 166.5 35.5t122 97 t80.5 149.5t45.5 188.5t13.5 219.5q0 143 -25 266t-75 220.5t-134 153.5t-194 56q-93 0 -166.5 -35.5t-122 -96.5t-80.5 -149.5t-45.5 -188.5t-13.5 -218zM459 1563q68 49 162 141.5t131 122.5q19 14 45 14.5t45 -14.5q37 -30 131 -122.5t162 -141.5l-19 -33l-319 194 l-320 -194z" />
<glyph unicode="&#xd5;" horiz-adv-x="1599" d="M98 709q0 210 88 380t249 267.5t364 97.5q223 0 383.5 -95.5t239.5 -258.5t79 -375q0 -211 -88 -381t-249 -268.5t-365 -98.5q-168 0 -302 55t-220.5 153.5t-132.5 232t-46 291.5zM371 721q0 -143 25 -266t75.5 -221.5t134.5 -154.5t193 -56q93 0 166.5 35.5t122 97 t80.5 149.5t45.5 188.5t13.5 219.5q0 143 -25 266t-75 220.5t-134 153.5t-194 56q-93 0 -166.5 -35.5t-122 -96.5t-80.5 -149.5t-45.5 -188.5t-13.5 -218zM408 1602q26 101 84.5 160t150.5 59q43 0 79.5 -15t64 -37l55 -44t64 -37t79.5 -15q114 0 162 121h37 q-26 -99 -86 -157t-150 -58q-61 0 -113 22.5t-82 49t-70 49t-79 22.5q-116 0 -160 -120h-36z" />
<glyph unicode="&#xd6;" horiz-adv-x="1599" d="M98 709q0 210 88 380t249 267.5t364 97.5q223 0 383.5 -95.5t239.5 -258.5t79 -375q0 -211 -88 -381t-249 -268.5t-365 -98.5q-168 0 -302 55t-220.5 153.5t-132.5 232t-46 291.5zM371 721q0 -143 25 -266t75.5 -221.5t134.5 -154.5t193 -56q93 0 166.5 35.5t122 97 t80.5 149.5t45.5 188.5t13.5 219.5q0 143 -25 266t-75 220.5t-134 153.5t-194 56q-93 0 -166.5 -35.5t-122 -96.5t-80.5 -149.5t-45.5 -188.5t-13.5 -218zM489 1706q0 53 37 89t90 36q57 0 92 -34.5t35 -88.5q0 -55 -37 -91t-92 -36q-56 0 -90.5 34t-34.5 91zM864 1706 q0 53 36.5 89t88.5 36q57 0 93 -34.5t36 -88.5q0 -55 -37 -91t-92 -36q-57 0 -91 34t-34 91z" />
<glyph unicode="&#xd7;" d="M209 793l67 67l299 -299l306 303l65 -65l-303 -305l303 -301l-69 -68l-302 301l-296 -297l-68 66l297 299z" />
<glyph unicode="&#xd8;" horiz-adv-x="1599" d="M98 709q0 210 88 380t249 267.5t364 97.5q210 0 370 -88l93 152h65l-108 -183q137 -95 209.5 -253t72.5 -357q0 -211 -88 -381t-249 -268.5t-365 -98.5q-203 0 -350 78l-95 -157h-65l110 184q-147 93 -224 256t-77 371zM371 721q0 -321 108 -504l619 1028 q-109 164 -299 164q-93 0 -166.5 -35.5t-122 -96.5t-80.5 -149.5t-45.5 -188.5t-13.5 -218zM514 166q108 -143 285 -143q93 0 166.5 35.5t122 97t80.5 149.5t45.5 188.5t13.5 219.5q0 290 -97 477z" />
<glyph unicode="&#xd9;" horiz-adv-x="1466" d="M47 1395v39h551v-39h-147v-908q0 -162 110 -262t279 -100q165 0 272 98.5t107 274.5v659q0 119 -36 178.5t-93 59.5h-23v39h352v-39h-22q-57 0 -93 -59.5t-36 -178.5v-661q0 -149 -73.5 -267.5t-196.5 -182.5t-271 -64q-231 0 -380.5 141t-149.5 354v918h-150zM479 1761 q0 33 19.5 51.5t48.5 18.5t55 -16q52 -27 182.5 -108t212.5 -114v-45q-56 22 -120 43.5t-109 34.5t-116 33t-107 31q-66 14 -66 71z" />
<glyph unicode="&#xda;" horiz-adv-x="1466" d="M47 1395v39h551v-39h-147v-908q0 -162 110 -262t279 -100q165 0 272 98.5t107 274.5v659q0 119 -36 178.5t-93 59.5h-23v39h352v-39h-22q-57 0 -93 -59.5t-36 -178.5v-661q0 -149 -73.5 -267.5t-196.5 -182.5t-271 -64q-231 0 -380.5 141t-149.5 354v918h-150zM549 1548 v45q84 34 216.5 116t178.5 106q29 16 57 16q29 0 48.5 -18.5t19.5 -51.5q0 -56 -65 -71q-27 -8 -133 -38t-177.5 -53t-144.5 -51z" />
<glyph unicode="&#xdb;" horiz-adv-x="1466" d="M47 1395v39h551v-39h-147v-908q0 -162 110 -262t279 -100q165 0 272 98.5t107 274.5v659q0 119 -36 178.5t-93 59.5h-23v39h352v-39h-22q-57 0 -93 -59.5t-36 -178.5v-661q0 -149 -73.5 -267.5t-196.5 -182.5t-271 -64q-231 0 -380.5 141t-149.5 354v918h-150zM446 1563 q68 49 162 141.5t131 122.5q19 14 45 14.5t45 -14.5q37 -30 131 -122.5t162 -141.5l-18 -33l-320 194l-319 -194z" />
<glyph unicode="&#xdc;" horiz-adv-x="1466" d="M47 1395v39h551v-39h-147v-908q0 -162 110 -262t279 -100q165 0 272 98.5t107 274.5v659q0 119 -36 178.5t-93 59.5h-23v39h352v-39h-22q-57 0 -93 -59.5t-36 -178.5v-661q0 -149 -73.5 -267.5t-196.5 -182.5t-271 -64q-231 0 -380.5 141t-149.5 354v918h-150zM455 1706 q0 53 37 89t90 36q57 0 92 -34.5t35 -88.5q0 -55 -37 -91t-92 -36q-56 0 -90.5 34t-34.5 91zM829 1706q0 53 36.5 89t88.5 36q57 0 93 -34.5t36 -88.5q0 -55 -37 -91t-92 -36q-57 0 -91 34t-34 91z" />
<glyph unicode="&#xdd;" horiz-adv-x="1533" d="M31 1395v39h565v-39h-141l397 -623l289 426q37 53 48 97t-11 72t-78 28h-33v39h436v-39h-20q-146 0 -299 -221l-314 -453v-682h148v-39h-549v39h147v651l-450 705h-135zM541 1548v45q84 34 216.5 116t178.5 106q29 16 57 16q29 0 48.5 -18.5t19.5 -51.5q0 -56 -66 -71 q-24 -7 -132 -37.5t-178.5 -53.5t-143.5 -51z" />
<glyph unicode="&#xde;" horiz-adv-x="1310" d="M57 0v39h150v1354h-150v41l549 -2v-39h-149v-260h256q244 0 384 -102.5t140 -274.5q0 -113 -72.5 -202.5t-198.5 -139t-282 -49.5h-227v-326h151v-39h-551zM457 408h198q83 0 146.5 27t101 74.5t56 108t18.5 132.5q0 95 -32 170t-104.5 122.5t-176.5 47.5h-207v-682z" />
<glyph unicode="&#xdf;" horiz-adv-x="1146" d="M55 0v39h105v1026q0 205 117.5 324.5t297.5 119.5q172 0 279 -76t107 -190q0 -46 -15 -83t-39 -62t-53.5 -47t-58.5 -42.5t-53 -43.5t-39 -55.5t-15 -73.5q0 -39 22 -73t57 -61t77.5 -54t85.5 -59t78 -69.5t57 -91t22 -117.5q0 -141 -106 -234t-262 -93q-113 0 -188.5 61 t-75.5 154q0 56 37 92.5t92 36.5q56 0 89.5 -31.5t33.5 -83.5q0 -54 -36.5 -84.5t-84.5 -30.5q-15 0 -15 -12q0 -25 39.5 -43t102.5 -18q92 0 143 57t51 147q0 52 -21 96.5t-54.5 77t-74.5 62t-81.5 58t-74 58.5t-54.5 71t-21 89q0 46 17 86t42.5 68t55.5 63.5t55.5 70.5 t42.5 91.5t17 124.5q0 104 -47 167t-136 63q-54 0 -94.5 -23.5t-63 -64.5t-33.5 -90t-11 -107v-1190h-316z" />
<glyph unicode="&#xe0;" horiz-adv-x="1060" d="M96 213q0 72 31 122t80.5 77t109.5 46.5t119.5 39t109 45.5t80.5 75t31 119q0 176 -213 176q-81 0 -134.5 -31t-53.5 -65q0 -12 16 -12q48 0 83.5 -30.5t35.5 -82.5q0 -49 -37 -84t-94 -35q-54 0 -89.5 36.5t-35.5 92.5q0 99 95.5 177.5t254.5 78.5q175 0 271 -88.5 t96 -251.5v-460q0 -80 61 -80q30 0 50 24t20 58h33q0 -30 -9.5 -59.5t-29 -57.5t-56 -45.5t-83.5 -17.5q-76 0 -125 39.5t-64 111.5q-114 -151 -282 -151q-112 0 -191.5 63.5t-79.5 169.5zM291 1430q0 33 19 51t48 18q30 0 56 -16q51 -26 182 -107t213 -114v-45 q-72 28 -144 51t-175 52t-134 38q-65 14 -65 72zM313 229q0 -72 43.5 -113.5t112.5 -41.5q75 0 122.5 45t47.5 112v336q-30 -30 -77.5 -58.5t-87.5 -50.5t-78.5 -51t-60.5 -73.5t-22 -104.5z" />
<glyph unicode="&#xe1;" horiz-adv-x="1060" d="M96 213q0 72 31 122t80.5 77t109.5 46.5t119.5 39t109 45.5t80.5 75t31 119q0 176 -213 176q-81 0 -134.5 -31t-53.5 -65q0 -12 16 -12q48 0 83.5 -30.5t35.5 -82.5q0 -49 -37 -84t-94 -35q-54 0 -89.5 36.5t-35.5 92.5q0 99 95.5 177.5t254.5 78.5q175 0 271 -88.5 t96 -251.5v-460q0 -80 61 -80q30 0 50 24t20 58h33q0 -30 -9.5 -59.5t-29 -57.5t-56 -45.5t-83.5 -17.5q-76 0 -125 39.5t-64 111.5q-114 -151 -282 -151q-112 0 -191.5 63.5t-79.5 169.5zM301 1217v45q84 34 217 116t178 105q29 16 58 16t48 -18t19 -51q0 -57 -65 -72 q-33 -10 -134.5 -38t-174.5 -51.5t-146 -51.5zM313 229q0 -72 43.5 -113.5t112.5 -41.5q75 0 122.5 45t47.5 112v336q-30 -30 -77.5 -58.5t-87.5 -50.5t-78.5 -51t-60.5 -73.5t-22 -104.5z" />
<glyph unicode="&#xe2;" horiz-adv-x="1060" d="M96 213q0 72 31 122t80.5 77t109.5 46.5t119.5 39t109 45.5t80.5 75t31 119q0 176 -213 176q-81 0 -134.5 -31t-53.5 -65q0 -12 16 -12q48 0 83.5 -30.5t35.5 -82.5q0 -49 -37 -84t-94 -35q-54 0 -89.5 36.5t-35.5 92.5q0 99 95.5 177.5t254.5 78.5q175 0 271 -88.5 t96 -251.5v-460q0 -80 61 -80q30 0 50 24t20 58h33q0 -30 -9.5 -59.5t-29 -57.5t-56 -45.5t-83.5 -17.5q-76 0 -125 39.5t-64 111.5q-114 -151 -282 -151q-112 0 -191.5 63.5t-79.5 169.5zM197 1229q68 49 161.5 141.5t130.5 122.5q19 14 45.5 14.5t45.5 -14.5 q37 -30 130.5 -122.5t161.5 -141.5l-18 -33l-319 195l-320 -195zM313 229q0 -72 43.5 -113.5t112.5 -41.5q75 0 122.5 45t47.5 112v336q-30 -30 -77.5 -58.5t-87.5 -50.5t-78.5 -51t-60.5 -73.5t-22 -104.5z" />
<glyph unicode="&#xe3;" horiz-adv-x="1060" d="M96 213q0 72 31 122t80.5 77t109.5 46.5t119.5 39t109 45.5t80.5 75t31 119q0 176 -213 176q-81 0 -134.5 -31t-53.5 -65q0 -12 16 -12q48 0 83.5 -30.5t35.5 -82.5q0 -49 -37 -84t-94 -35q-54 0 -89.5 36.5t-35.5 92.5q0 99 95.5 177.5t254.5 78.5q175 0 271 -88.5 t96 -251.5v-460q0 -80 61 -80q30 0 50 24t20 58h33q0 -30 -9.5 -59.5t-29 -57.5t-56 -45.5t-83.5 -17.5q-76 0 -125 39.5t-64 111.5q-114 -151 -282 -151q-112 0 -191.5 63.5t-79.5 169.5zM162 1286q26 101 84.5 160t150.5 59q43 0 79.5 -15t64 -36.5t55 -43.5t64 -37 t79.5 -15q114 0 162 121h37q-26 -99 -86 -157t-150 -58q-61 0 -113 22.5t-82 49t-70 49t-79 22.5q-115 0 -159 -121h-37zM313 229q0 -72 43.5 -113.5t112.5 -41.5q75 0 122.5 45t47.5 112v336q-30 -30 -77.5 -58.5t-87.5 -50.5t-78.5 -51t-60.5 -73.5t-22 -104.5z" />
<glyph unicode="&#xe4;" horiz-adv-x="1060" d="M96 213q0 72 31 122t80.5 77t109.5 46.5t119.5 39t109 45.5t80.5 75t31 119q0 176 -213 176q-81 0 -134.5 -31t-53.5 -65q0 -12 16 -12q48 0 83.5 -30.5t35.5 -82.5q0 -49 -37 -84t-94 -35q-54 0 -89.5 36.5t-35.5 92.5q0 99 95.5 177.5t254.5 78.5q175 0 271 -88.5 t96 -251.5v-460q0 -80 61 -80q30 0 50 24t20 58h33q0 -30 -9.5 -59.5t-29 -57.5t-56 -45.5t-83.5 -17.5q-76 0 -125 39.5t-64 111.5q-114 -151 -282 -151q-112 0 -191.5 63.5t-79.5 169.5zM207 1376q0 53 37 89t90 36q57 0 92 -34.5t35 -88.5q0 -55 -37 -91t-92 -36 q-56 0 -90.5 34t-34.5 91zM313 229q0 -72 43.5 -113.5t112.5 -41.5q75 0 122.5 45t47.5 112v336q-30 -30 -77.5 -58.5t-87.5 -50.5t-78.5 -51t-60.5 -73.5t-22 -104.5zM582 1376q0 53 36.5 89t88.5 36q57 0 93 -34.5t36 -88.5q0 -55 -37 -91t-92 -36q-57 0 -91 34t-34 91z " />
<glyph unicode="&#xe5;" horiz-adv-x="1060" d="M96 213q0 72 31 122t80.5 77t109.5 46.5t119.5 39t109 45.5t80.5 75t31 119q0 176 -213 176q-81 0 -134.5 -31t-53.5 -65q0 -12 16 -12q48 0 83.5 -30.5t35.5 -82.5q0 -49 -37 -84t-94 -35q-54 0 -89.5 36.5t-35.5 92.5q0 99 95.5 177.5t254.5 78.5q175 0 271 -88.5 t96 -251.5v-460q0 -80 61 -80q30 0 50 24t20 58h33q0 -30 -9.5 -59.5t-29 -57.5t-56 -45.5t-83.5 -17.5q-76 0 -125 39.5t-64 111.5q-114 -151 -282 -151q-112 0 -191.5 63.5t-79.5 169.5zM313 229q0 -72 43.5 -113.5t112.5 -41.5q75 0 122.5 45t47.5 112v336 q-30 -30 -77.5 -58.5t-87.5 -50.5t-78.5 -51t-60.5 -73.5t-22 -104.5zM315 1380q0 90 66 151.5t160 61.5q98 0 163.5 -60t65.5 -151q0 -92 -66 -152.5t-163 -60.5t-161.5 60t-64.5 151zM410 1380q0 -73 34.5 -117t96.5 -44q64 0 100.5 44t36.5 117q0 72 -37 118t-100 46 q-61 0 -96 -45.5t-35 -118.5z" />
<glyph unicode="&#xe6;" horiz-adv-x="1564" d="M98 213q0 72 31 122t80 76.5t109 46t119.5 39t108.5 46t80 75.5t31 119q0 86 -53.5 131t-157.5 45q-78 0 -133 -31t-55 -65q0 -12 16 -12q48 0 83.5 -30.5t35.5 -82.5q0 -50 -37.5 -84.5t-93.5 -34.5q-53 0 -89 36.5t-36 92.5q0 46 23.5 91t66.5 82t110.5 60t147.5 23 q185 0 289 -122q125 125 303 125q180 0 284 -119.5t99 -319.5h-610v-59q0 -82 17.5 -153t52.5 -129.5t95.5 -92t139.5 -33.5q95 0 160.5 54.5t77.5 150.5h45q-12 -125 -106.5 -202.5t-250.5 -77.5q-117 0 -215 51.5t-157 142.5q-34 -78 -118 -136t-218 -58q-115 0 -195 63.5 t-80 169.5zM315 229q0 -72 45 -114.5t117 -42.5q82 0 133.5 44t51.5 124q0 22 -19.5 89t-19.5 136q0 15 2 36.5t4 37t2 16.5q-29 -28 -76 -55t-85.5 -47.5t-75.5 -49t-58 -72t-21 -102.5zM852 561h377q3 357 -154 357q-94 0 -151.5 -98t-71.5 -259z" />
<glyph unicode="&#xe7;" horiz-adv-x="1015" d="M117 467q0 135 59.5 248t167 179.5t238.5 66.5q157 0 241 -75.5t84 -178.5q0 -60 -36 -99t-93 -39t-93 34t-36 85q0 54 40 86.5t91 32.5q23 0 23 14q0 34 -50 63t-128 29q-132 0 -208.5 -114.5t-76.5 -321.5q0 -189 81 -307.5t220 -118.5q87 0 151 56t74 153h43 q-11 -125 -102.5 -202t-245.5 -78l-98 -105q41 12 88 12q97 0 156 -39t59 -108q0 -75 -69.5 -124.5t-180.5 -49.5q-94 0 -144 35t-50 86q0 30 18 49.5t51 19.5q29 0 46.5 -17t17.5 -42q0 -24 -13.5 -37.5t-27.5 -13.5q-8 0 -8 -8q0 -14 24.5 -26.5t67.5 -12.5 q64 0 99.5 38.5t35.5 96.5q0 53 -31.5 84.5t-89.5 31.5q-37 0 -67 -9.5t-41 -18.5l-11 -10h-43l164 170q-177 17 -287 153t-110 332z" />
<glyph unicode="&#xe8;" horiz-adv-x="1056" d="M117 467q0 135 56.5 248t160 179.5t233.5 66.5q180 0 284 -119.5t99 -319.5h-608v-57q0 -66 10.5 -124.5t33.5 -111.5t58 -91t87 -60.5t116 -22.5q94 0 159.5 54.5t78.5 150.5h45q-12 -124 -107 -202t-250 -78q-201 0 -328.5 139.5t-127.5 347.5zM311 1430 q0 32 19.5 50.5t48.5 18.5t55 -16q51 -26 182 -107t213 -114v-45q-72 28 -143.5 51t-175 52t-133.5 38q-66 14 -66 72zM344 561h377q2 179 -36 268t-122 89q-90 0 -146.5 -97.5t-72.5 -259.5z" />
<glyph unicode="&#xe9;" horiz-adv-x="1056" d="M117 467q0 135 56.5 248t160 179.5t233.5 66.5q180 0 284 -119.5t99 -319.5h-608v-57q0 -66 10.5 -124.5t33.5 -111.5t58 -91t87 -60.5t116 -22.5q94 0 159.5 54.5t78.5 150.5h45q-12 -124 -107 -202t-250 -78q-201 0 -328.5 139.5t-127.5 347.5zM330 1217v45 q84 34 217 116t178 105q29 16 57 16q29 0 48.5 -18.5t19.5 -50.5q0 -29 -18.5 -47t-47.5 -25q-31 -9 -133.5 -38t-175 -52t-145.5 -51zM344 561h377q2 179 -36 268t-122 89q-90 0 -146.5 -97.5t-72.5 -259.5z" />
<glyph unicode="&#xea;" horiz-adv-x="1056" d="M117 467q0 135 56.5 248t160 179.5t233.5 66.5q180 0 284 -119.5t99 -319.5h-608v-57q0 -66 10.5 -124.5t33.5 -111.5t58 -91t87 -60.5t116 -22.5q94 0 159.5 54.5t78.5 150.5h45q-12 -124 -107 -202t-250 -78q-201 0 -328.5 139.5t-127.5 347.5zM242 1229 q68 49 162 141.5t131 122.5q19 14 45 14.5t45 -14.5q37 -30 131 -122.5t162 -141.5l-19 -33l-319 195l-320 -195zM344 561h377q2 179 -36 268t-122 89q-90 0 -146.5 -97.5t-72.5 -259.5z" />
<glyph unicode="&#xeb;" horiz-adv-x="1056" d="M117 467q0 135 56.5 248t160 179.5t233.5 66.5q180 0 284 -119.5t99 -319.5h-608v-57q0 -66 10.5 -124.5t33.5 -111.5t58 -91t87 -60.5t116 -22.5q94 0 159.5 54.5t78.5 150.5h45q-12 -124 -107 -202t-250 -78q-201 0 -328.5 139.5t-127.5 347.5zM246 1376q0 53 37 89 t90 36q57 0 92 -34.5t35 -88.5q0 -55 -37 -91t-92 -36q-56 0 -90.5 34t-34.5 91zM344 561h377q2 179 -36 268t-122 89q-90 0 -146.5 -97.5t-72.5 -259.5zM621 1376q0 53 36 89t88 36q57 0 93 -34.5t36 -88.5q0 -55 -37 -91t-92 -36q-57 0 -90.5 34t-33.5 91z" />
<glyph unicode="&#xec;" horiz-adv-x="600" d="M-16 1430q0 33 19 51t48 18t55 -16q50 -26 182 -106.5t214 -114.5v-45q-72 28 -144 51t-175 52t-134 38q-65 14 -65 72zM70 0v39h135v860h-135v39h346v-899h129v-39h-475z" />
<glyph unicode="&#xed;" horiz-adv-x="600" d="M43 1217v45q84 34 217 116t178 105q29 16 58 16t48 -18t19 -51q0 -57 -65 -72q-33 -10 -134.5 -38t-174.5 -51.5t-146 -51.5zM70 0v39h135v860h-135v39h346v-899h129v-39h-475z" />
<glyph unicode="&#xee;" horiz-adv-x="600" d="M-43 1229q68 49 162 141.5t131 122.5q19 14 45 14.5t45 -14.5q37 -30 131 -122.5t162 -141.5l-19 -33l-319 195l-320 -195zM70 0v39h135v860h-135v39h346v-899h129v-39h-475z" />
<glyph unicode="&#xef;" horiz-adv-x="600" d="M-8 1376q0 53 37 89t90 36q57 0 92 -34.5t35 -88.5q0 -55 -37 -91t-92 -36q-56 0 -90.5 34t-34.5 91zM70 0v39h135v860h-135v39h346v-899h129v-39h-475zM367 1376q0 53 36.5 89t88.5 36q57 0 93 -34.5t36 -88.5q0 -55 -37 -91t-92 -36q-57 0 -91 34t-34 91z" />
<glyph unicode="&#xf0;" horiz-adv-x="1187" d="M117 467q0 138 60.5 254t168.5 184t240 68q43 0 81.5 -8t63 -20t43.5 -24t27 -20l8 -8q-50 198 -166 352l-268 -143v57l235 125q-111 130 -260 178v60q191 -50 355 -189l266 144v-58l-228 -121q151 -141 239.5 -338t88.5 -425q0 -254 -133 -404.5t-350 -150.5 q-211 0 -341 137t-130 350zM344 475q0 -204 69.5 -326t198.5 -122q111 0 173.5 125t62.5 348q0 94 -11 165.5t-36.5 129.5t-72 88t-112.5 30q-130 0 -201 -118t-71 -320z" />
<glyph unicode="&#xf1;" horiz-adv-x="1157" d="M66 0v39h131v862h-131v37h344v-129q42 59 112 103t164 44q143 0 216 -93.5t73 -258.5v-565h129v-39h-455v39h111v690q0 75 -41 116.5t-111 41.5q-86 0 -142 -67t-56 -154v-627h110v-39h-454zM209 1286q26 101 84.5 160t150.5 59q43 0 79.5 -15t64 -36.5t55 -43.5t64 -37 t79.5 -15q114 0 162 121h37q-26 -100 -85.5 -157.5t-149.5 -57.5q-61 0 -113 22.5t-82 49t-70 49t-79 22.5q-116 0 -160 -121h-37z" />
<glyph unicode="&#xf2;" horiz-adv-x="1163" d="M117 465q0 135 64 248.5t172.5 178t234.5 64.5q199 0 329 -136.5t130 -342.5q0 -135 -63.5 -249.5t-171 -180t-232.5 -65.5q-201 0 -332 138.5t-131 344.5zM334 1430q0 33 19 51t48 18q30 0 56 -16q51 -26 182 -107t213 -114v-45q-72 28 -144 51t-175 52t-134 38 q-65 14 -65 72zM340 475q0 -201 61.5 -325.5t178.5 -124.5q119 0 181 120.5t62 321.5t-60 323.5t-175 122.5q-123 0 -185.5 -119t-62.5 -319z" />
<glyph unicode="&#xf3;" horiz-adv-x="1163" d="M117 465q0 135 64 248.5t172.5 178t234.5 64.5q199 0 329 -136.5t130 -342.5q0 -135 -63.5 -249.5t-171 -180t-232.5 -65.5q-201 0 -332 138.5t-131 344.5zM340 475q0 -201 61.5 -325.5t178.5 -124.5q119 0 181 120.5t62 321.5t-60 323.5t-175 122.5q-123 0 -185.5 -119 t-62.5 -319zM350 1217v45q84 34 217 116t178 105q29 16 58 16t48 -18t19 -51q0 -57 -65 -72q-33 -10 -134.5 -38t-174.5 -51.5t-146 -51.5z" />
<glyph unicode="&#xf4;" horiz-adv-x="1163" d="M117 465q0 135 64 248.5t172.5 178t234.5 64.5q199 0 329 -136.5t130 -342.5q0 -135 -63.5 -249.5t-171 -180t-232.5 -65.5q-201 0 -332 138.5t-131 344.5zM250 1229q68 49 162 141.5t131 122.5q19 14 45 14.5t45 -14.5q37 -30 131 -122.5t162 -141.5l-19 -33l-319 195 l-320 -195zM340 475q0 -201 61.5 -325.5t178.5 -124.5q119 0 181 120.5t62 321.5t-60 323.5t-175 122.5q-123 0 -185.5 -119t-62.5 -319z" />
<glyph unicode="&#xf5;" horiz-adv-x="1163" d="M117 465q0 135 64 248.5t172.5 178t234.5 64.5q199 0 329 -136.5t130 -342.5q0 -135 -63.5 -249.5t-171 -180t-232.5 -65.5q-201 0 -332 138.5t-131 344.5zM201 1286q26 101 84.5 160t150.5 59q43 0 79.5 -15t64 -36.5t55 -43.5t64 -37t79.5 -15q114 0 162 121h37 q-26 -99 -86 -157t-150 -58q-61 0 -113 22.5t-82 49t-70 49t-79 22.5q-115 0 -159 -121h-37zM340 475q0 -201 61.5 -325.5t178.5 -124.5q119 0 181 120.5t62 321.5t-60 323.5t-175 122.5q-123 0 -185.5 -119t-62.5 -319z" />
<glyph unicode="&#xf6;" horiz-adv-x="1163" d="M117 465q0 135 64 248.5t172.5 178t234.5 64.5q199 0 329 -136.5t130 -342.5q0 -135 -63.5 -249.5t-171 -180t-232.5 -65.5q-201 0 -332 138.5t-131 344.5zM272 1376q0 53 37 89t90 36q57 0 92 -34.5t35 -88.5q0 -55 -37 -91t-92 -36q-56 0 -90.5 34t-34.5 91zM340 475 q0 -201 61.5 -325.5t178.5 -124.5q119 0 181 120.5t62 321.5t-60 323.5t-175 122.5q-123 0 -185.5 -119t-62.5 -319zM647 1376q0 53 36.5 89t88.5 36q57 0 93 -34.5t36 -88.5q0 -55 -37 -91t-92 -36q-57 0 -91 34t-34 91z" />
<glyph unicode="&#xf7;" d="M158 449v96h846v-96h-846zM459 193q0 49 32.5 80.5t79.5 31.5q54 0 85.5 -30t31.5 -80q0 -49 -33.5 -81t-83.5 -32t-81 31t-31 80zM459 807q0 49 32.5 81t79.5 32q54 0 85.5 -30.5t31.5 -80.5q0 -49 -33.5 -81t-83.5 -32t-81 31t-31 80z" />
<glyph unicode="&#xf8;" horiz-adv-x="1163" d="M117 465q0 135 64 248.5t172.5 178t234.5 64.5q124 0 219 -53l98 170h60l-113 -199q91 -64 143 -168t52 -229q0 -135 -63.5 -249.5t-171 -180t-232.5 -65.5q-110 0 -209 47l-97 -168h-59l111 194q-98 64 -153.5 171.5t-55.5 238.5zM340 475q0 -188 51 -305l363 637 q-61 106 -166 106q-123 0 -185.5 -119t-62.5 -319zM420 117q63 -92 160 -92q119 0 181 120.5t62 321.5q0 170 -43 283z" />
<glyph unicode="&#xf9;" horiz-adv-x="1163" d="M47 899v39h346v-731q0 -75 41 -115.5t111 -40.5q85 0 141.5 63.5t56.5 149.5v635h-129v39h338v-780q0 -80 62 -80q30 0 49.5 24t19.5 58h35q0 -30 -10 -60t-30 -57.5t-57 -45t-85 -17.5q-73 0 -122 38t-64 109q-104 -147 -281 -147q-145 0 -218 94t-73 260v565h-131z M301 1430q0 32 19.5 50.5t48.5 18.5t55 -16q51 -26 182 -107t213 -114v-45q-72 28 -143.5 51t-175 52t-133.5 38q-66 14 -66 72z" />
<glyph unicode="&#xfa;" horiz-adv-x="1163" d="M47 899v39h346v-731q0 -75 41 -115.5t111 -40.5q85 0 141.5 63.5t56.5 149.5v635h-129v39h338v-780q0 -80 62 -80q30 0 49.5 24t19.5 58h35q0 -30 -10 -60t-30 -57.5t-57 -45t-85 -17.5q-73 0 -122 38t-64 109q-104 -147 -281 -147q-145 0 -218 94t-73 260v565h-131z M342 1217v45q84 34 217 116t178 105q29 16 58 16t48 -18t19 -51q0 -57 -65 -72q-33 -10 -134.5 -38t-174.5 -51.5t-146 -51.5z" />
<glyph unicode="&#xfb;" horiz-adv-x="1163" d="M47 899v39h346v-731q0 -75 41 -115.5t111 -40.5q85 0 141.5 63.5t56.5 149.5v635h-129v39h338v-780q0 -80 62 -80q30 0 49.5 24t19.5 58h35q0 -30 -10 -60t-30 -57.5t-57 -45t-85 -17.5q-73 0 -122 38t-64 109q-104 -147 -281 -147q-145 0 -218 94t-73 260v565h-131z M217 1229q68 49 162 141.5t131 122.5q19 14 45 14.5t45 -14.5q37 -30 131 -122.5t162 -141.5l-19 -33l-319 195l-319 -195z" />
<glyph unicode="&#xfc;" horiz-adv-x="1163" d="M47 899v39h346v-731q0 -75 41 -115.5t111 -40.5q85 0 141.5 63.5t56.5 149.5v635h-129v39h338v-780q0 -80 62 -80q30 0 49.5 24t19.5 58h35q0 -30 -10 -60t-30 -57.5t-57 -45t-85 -17.5q-73 0 -122 38t-64 109q-104 -147 -281 -147q-145 0 -218 94t-73 260v565h-131z M246 1376q0 53 37 89t90 36q57 0 92 -34.5t35 -88.5q0 -55 -37 -91t-92 -36q-56 0 -90.5 34t-34.5 91zM621 1376q0 53 36 89t88 36q57 0 93 -34.5t36 -88.5q0 -55 -37 -91t-92 -36q-57 0 -90.5 34t-33.5 91z" />
<glyph unicode="&#xfd;" horiz-adv-x="1148" d="M31 899v39h487v-37h-133l299 -627l174 451q16 45 16.5 84.5t-27 66.5t-79.5 27h-33v35h383v-35h-26q-119 0 -191 -188l-319 -830q-60 -149 -123.5 -216.5t-153.5 -67.5q-98 0 -150.5 57.5t-52.5 142.5q0 59 36.5 99.5t88.5 40.5q55 0 87 -32t32 -81q0 -51 -35 -82 t-82 -31q-21 0 -41 4q5 -30 34.5 -53.5t82.5 -23.5q76 0 129 59.5t107 194.5l49 135l-430 868h-129zM406 1217v45q84 34 217 116t178 105q29 16 57 16q29 0 48.5 -18.5t19.5 -50.5q0 -29 -18.5 -47t-47.5 -25q-31 -9 -133.5 -38t-175 -52t-145.5 -51z" />
<glyph unicode="&#xfe;" horiz-adv-x="1150" d="M20 -350h134v1802h-134v39h349v-643q88 113 252 113q188 0 301.5 -131t113.5 -338q0 -210 -122 -351t-306 -141q-156 0 -239 102v-452h129v-37h-478v37zM369 258q0 -92 51.5 -143.5t132.5 -51.5q125 0 191.5 113t66.5 307q0 189 -64.5 300.5t-183.5 111.5 q-88 0 -141 -54.5t-53 -152.5v-430z" />
<glyph unicode="&#xff;" horiz-adv-x="1148" d="M31 899v39h487v-37h-133l299 -627l174 451q16 45 16.5 84.5t-27 66.5t-79.5 27h-33v35h383v-35h-26q-119 0 -191 -188l-319 -830q-60 -149 -123.5 -216.5t-153.5 -67.5q-98 0 -150.5 57.5t-52.5 142.5q0 59 36.5 99.5t88.5 40.5q55 0 87 -32t32 -81q0 -51 -35 -82 t-82 -31q-21 0 -41 4q5 -30 34.5 -53.5t82.5 -23.5q76 0 129 59.5t107 194.5l49 135l-430 868h-129zM291 1376q0 53 37 89t90 36q57 0 92 -34.5t35 -88.5q0 -55 -37 -91t-92 -36q-56 0 -90.5 34t-34.5 91zM666 1376q0 53 36.5 89t88.5 36q57 0 93 -34.5t36 -88.5 q0 -55 -37 -91t-92 -36q-57 0 -91 34t-34 91z" />
<glyph unicode="&#x152;" horiz-adv-x="2170" d="M98 709q0 210 88 380t249 267.5t364 97.5q39 0 131.5 -10t138.5 -10h930v-416h-41q-27 193 -107 283t-247 90h-482q179 -82 276.5 -252.5t100.5 -397.5h33q126 -1 179 55t71 189h39v-534h-39q-18 132 -71.5 187.5t-178.5 55.5h-35q-6 -224 -112.5 -397t-288.5 -256h530 q169 0 243.5 80.5t108.5 290.5h39v-412h-964q-37 0 -129.5 -11.5t-124.5 -11.5q-168 0 -302 55t-220.5 153.5t-132.5 232t-46 291.5zM371 721q0 -143 25 -266t75.5 -221.5t134.5 -154.5t193 -56q93 0 166.5 35.5t122 97t80.5 149.5t45.5 188.5t13.5 219.5q0 143 -25 266 t-75 220.5t-134 153.5t-194 56q-93 0 -166.5 -35.5t-122 -96.5t-80.5 -149.5t-45.5 -188.5t-13.5 -218z" />
<glyph unicode="&#x153;" horiz-adv-x="1771" d="M117 465q0 135 64 248.5t172.5 178t234.5 64.5q111 0 200.5 -46.5t149.5 -131.5q58 87 146 135t198 48q181 0 284.5 -119.5t100.5 -319.5h-610v-57q0 -83 17.5 -154.5t52.5 -130t95.5 -92t139.5 -33.5q95 0 160 54.5t77 150.5h46q-12 -124 -106 -202t-251 -78 q-116 0 -207 49t-149 137q-63 -86 -154.5 -135t-197.5 -49q-201 0 -332 138.5t-131 344.5zM340 475q0 -201 61.5 -325.5t178.5 -124.5q119 0 181 120.5t62 321.5t-60 323.5t-175 122.5q-123 0 -185.5 -119t-62.5 -319zM1059 561h377q2 179 -35.5 268t-120.5 89 q-91 0 -148 -97.5t-73 -259.5z" />
<glyph unicode="&#x178;" horiz-adv-x="1533" d="M31 1395v39h565v-39h-141l397 -623l289 426q37 53 48 97t-11 72t-78 28h-33v39h436v-39h-20q-146 0 -299 -221l-314 -453v-682h148v-39h-549v39h147v651l-450 705h-135zM465 1706q0 53 37 89t90 36q57 0 92 -34.5t35 -88.5q0 -55 -37 -91t-92 -36q-56 0 -90.5 34 t-34.5 91zM840 1706q0 53 36.5 89t88.5 36q57 0 93 -34.5t36 -88.5q0 -55 -37 -91t-92 -36q-57 0 -91 34t-34 91z" />
<glyph unicode="&#x2c6;" horiz-adv-x="1024" d="M174 1229q68 49 162 141.5t131 122.5q19 14 45 14.5t45 -14.5q37 -30 131 -122.5t162 -141.5l-19 -33l-319 195l-319 -195z" />
<glyph unicode="&#x2dc;" horiz-adv-x="1024" d="M123 1286q26 101 84.5 160t150.5 59q43 0 79.5 -15t64 -36.5t55 -43.5t64 -37t79.5 -15q114 0 162 121h37q-26 -100 -85.5 -157.5t-149.5 -57.5q-61 0 -113 22.5t-82.5 49t-70.5 49t-79 22.5q-115 0 -159 -121h-37z" />
<glyph unicode="&#x2000;" horiz-adv-x="979" />
<glyph unicode="&#x2001;" horiz-adv-x="1958" />
<glyph unicode="&#x2002;" horiz-adv-x="979" />
<glyph unicode="&#x2003;" horiz-adv-x="1958" />
<glyph unicode="&#x2004;" horiz-adv-x="652" />
<glyph unicode="&#x2005;" horiz-adv-x="489" />
<glyph unicode="&#x2006;" horiz-adv-x="326" />
<glyph unicode="&#x2007;" horiz-adv-x="326" />
<glyph unicode="&#x2008;" horiz-adv-x="244" />
<glyph unicode="&#x2009;" horiz-adv-x="391" />
<glyph unicode="&#x200a;" horiz-adv-x="108" />
<glyph unicode="&#x2010;" horiz-adv-x="944" d="M150 487v105h628v-105h-628z" />
<glyph unicode="&#x2011;" horiz-adv-x="944" d="M150 487v105h628v-105h-628z" />
<glyph unicode="&#x2012;" horiz-adv-x="944" d="M150 487v105h628v-105h-628z" />
<glyph unicode="&#x2013;" d="M158 489v97h846v-97h-846z" />
<glyph unicode="&#x2014;" horiz-adv-x="1591" d="M158 489v97h1259v-97h-1259z" />
<glyph unicode="&#x2018;" horiz-adv-x="567" d="M135 1036q0 145 77 260.5t220 155.5v-43q-106 -32 -166.5 -116t-60.5 -154q0 -15 12 -15q3 0 25.5 7.5t44.5 7.5q56 0 94.5 -36t38.5 -99q0 -59 -37.5 -97.5t-99.5 -38.5q-67 0 -107.5 47.5t-40.5 120.5z" />
<glyph unicode="&#x2019;" horiz-adv-x="567" d="M135 860v43q73 22 127 73.5t77 103.5t23 96q0 14 -12 14q-4 0 -27 -7t-44 -7q-56 0 -95 35.5t-39 99.5q0 58 39 95.5t101 37.5q67 0 107 -47t40 -121q0 -145 -77 -260.5t-220 -155.5z" />
<glyph unicode="&#x201a;" horiz-adv-x="567" d="M135 -272q106 32 166.5 117t60.5 155q0 14 -12 14q-4 0 -27 -7t-44 -7q-56 0 -95 35.5t-39 99.5q0 58 39 95.5t101 37.5q67 0 107 -47t40 -121q0 -144 -77 -259.5t-220 -153.5v41z" />
<glyph unicode="&#x201c;" horiz-adv-x="923" d="M135 1036q0 145 77 260.5t220 155.5v-43q-106 -32 -166.5 -116t-60.5 -154q0 -15 12 -15q3 0 25.5 7.5t44.5 7.5q56 0 94.5 -36t38.5 -99q0 -59 -37.5 -97.5t-99.5 -38.5q-67 0 -107.5 47.5t-40.5 120.5zM494 1036q0 145 77 260.5t220 155.5v-43q-73 -22 -128 -73.5 t-78.5 -103t-23.5 -93.5q0 -15 12 -15q4 0 27.5 7.5t44.5 7.5q56 0 94.5 -36t38.5 -99q0 -59 -38 -97.5t-99 -38.5q-68 0 -107.5 47t-39.5 121z" />
<glyph unicode="&#x201d;" horiz-adv-x="923" d="M135 860v43q73 22 127 73.5t77 103.5t23 96q0 14 -12 14q-4 0 -27 -7t-44 -7q-56 0 -95 35.5t-39 99.5q0 58 39 95.5t101 37.5q67 0 107 -47t40 -121q0 -145 -77 -260.5t-220 -155.5zM494 860v43q73 22 127 73.5t77 103.5t23 96q0 14 -12 14q-4 0 -27.5 -7t-44.5 -7 q-56 0 -94.5 35.5t-38.5 99.5q0 58 38.5 95.5t100.5 37.5q67 0 107.5 -47t40.5 -121q0 -145 -77 -260.5t-220 -155.5z" />
<glyph unicode="&#x201e;" horiz-adv-x="923" d="M135 -272q106 32 166.5 117t60.5 155q0 14 -12 14q-4 0 -27 -7t-44 -7q-56 0 -95 35.5t-39 99.5q0 58 39 95.5t101 37.5q67 0 107 -47t40 -121q0 -144 -77 -259.5t-220 -153.5v41zM494 -272q106 32 166.5 117t60.5 155q0 14 -12 14q-4 0 -27.5 -7t-44.5 -7 q-56 0 -94.5 35.5t-38.5 99.5q0 58 38.5 95.5t100.5 37.5q67 0 107.5 -47t40.5 -121q0 -144 -77 -259.5t-220 -153.5v41z" />
<glyph unicode="&#x2022;" horiz-adv-x="944" d="M236 539q0 100 68.5 167.5t164.5 67.5q104 0 170 -64t66 -167q0 -99 -69.5 -167.5t-168.5 -68.5q-103 0 -167 65.5t-64 166.5z" />
<glyph unicode="&#x2026;" horiz-adv-x="1703" d="M143 121q0 59 40.5 98t97.5 39q63 0 101 -37.5t38 -97.5q0 -58 -40.5 -96.5t-100.5 -38.5t-98 37t-38 96zM713 121q0 59 40 98t97 39q63 0 101 -37.5t38 -97.5q0 -58 -40 -96.5t-99 -38.5q-61 0 -99 37t-38 96zM1284 121q0 59 39.5 98t95.5 39q63 0 102.5 -37.5 t39.5 -97.5q0 -58 -41 -96.5t-101 -38.5t-97.5 37t-37.5 96z" />
<glyph unicode="&#x202f;" horiz-adv-x="391" />
<glyph unicode="&#x2039;" horiz-adv-x="888" d="M119 539q0 25 31 49l618 436v-59l-528 -426l528 -426v-60l-618 436q-31 21 -31 50z" />
<glyph unicode="&#x203a;" horiz-adv-x="888" d="M119 53v60l530 426l-530 426v59l620 -436q29 -23 29 -49q0 -31 -29 -50z" />
<glyph unicode="&#x205f;" horiz-adv-x="489" />
<glyph unicode="&#x20ac;" d="M27 575v46h153q-4 29 -4 88q0 34 4 100h-153v43h157q14 98 44 187t78 165t108.5 131.5t138.5 87t166 31.5q63 0 111 -9t71 -19.5t49 -19.5t51 -9q24 0 39 17t15 44h39v-409h-43q-9 55 -18 94t-24.5 84t-38 74.5t-54.5 55t-77.5 38t-103.5 12.5q-273 0 -303 -555h461v-43 h-463v-88q0 -67 4 -100h459v-46h-455q9 -78 26 -149t46.5 -138t67 -116.5t91 -79t115.5 -29.5q122 0 193.5 77t85.5 204h49q-51 -364 -403 -364q-91 0 -171 34t-138.5 91t-104 134t-72.5 161.5t-39 174.5h-157z" />
<glyph unicode="&#x2122;" horiz-adv-x="1908" d="M133 1298v275h37q0 -39 25 -39h559q24 0 24 39h37v-275h-37q-19 117 -59.5 159t-136.5 42h-11v-661h78v-37h-348v35h78v663h-12q-97 0 -137.5 -42t-59.5 -159h-37zM868 799v32q36 0 62 27.5t26 85.5v557h-77v35h272l192 -549l152 549h274v-35h-73v-661h76v-37h-338v35h73 v569l-170 -608h-118l-213 606v-461q0 -110 88 -113v-32h-226z" />
<glyph unicode="&#xe000;" horiz-adv-x="942" d="M0 0v942h942v-942h-942z" />
</font>
</defs>
</svg>
