<?xml version="1.0" encoding="utf-8"?>
<!-- Generator: Adobe Illustrator 18.0.0, SVG Export Plug-In . SVG Version: 6.00 Build 0)  -->
<!DOCTYPE svg PUBLIC "-//W3C//DTD SVG 1.1//EN" "http://www.w3.org/Graphics/SVG/1.1/DTD/svg11.dtd">
<svg version="1.1" id="Layer_1" xmlns="http://www.w3.org/2000/svg" xmlns:xlink="http://www.w3.org/1999/xlink" x="0px" y="0px"
	 viewBox="0 0 43.8 259.4" enable-background="new 0 0 43.8 259.4" xml:space="preserve">
<g>
	<path fill="#FFFFFF" d="M38.2,23.6V6.9h-4.1v16.8h-5.6V6.9h-9.1V0h24.5v23.6H38.2z M19.3,53.8v-6.9h9.1V34.5h-9.1v-6.9h24.5v6.9
		h-9.7v12.4h9.7v6.9H19.3z M42.2,79.7c-1.1,2-3.1,3.1-5.9,3.1c-3,0-5.1-1-6.2-3.1c-1.1-2-1.6-4.7-1.6-8v-6.5h-9.1v-6.9h24.5v13.3
		C43.8,75,43.3,77.6,42.2,79.7z M19.3,91.1V85h6.5v6.1H19.3z M31.3,115.2l-12-3v-4.9l12,2.8l12.5-2.8v4.9L31.3,115.2z M28.8,105.6
		V93.5h5.4v12.1H28.8z M38.8,65.2h-5.4V71c0,2.1,0.2,3.4,0.7,4.1c0.4,0.6,1.2,1,2.1,1c1,0,1.6-0.3,2-1c0.4-0.6,0.6-2,0.6-4.1V65.2z
		 M37.3,91.1V85h6.5v6.1H37.3z"/>
</g>
<g>
	<path fill="#FFFFFF" d="M26.6,131.9H24v2.9h-0.9v-2.9h-3.7v-1.1h8.1v4.1h-0.9V131.9z"/>
	<path fill="#FFFFFF" d="M19.4,139.1c0.2,0,0.4,0,0.6,0c0.2,0,0.4,0,0.6,0.1v0c-0.4-0.1-0.7-0.4-0.9-0.8c-0.2-0.4-0.4-0.8-0.4-1.3
		c0-0.5,0.1-0.9,0.4-1.2c0.3-0.3,0.7-0.5,1.2-0.5c0.6,0,1.2,0.3,1.5,0.9c0.4,0.6,0.5,1.5,0.5,2.7h0.4c0.4,0,0.7-0.1,1-0.3
		c0.2-0.2,0.3-0.5,0.3-1c0-0.3,0-0.6-0.1-0.9c-0.1-0.3-0.2-0.6-0.3-0.8l0.9-0.2c0.1,0.3,0.2,0.6,0.3,1c0.1,0.4,0.1,0.8,0.1,1.1
		c0,0.4,0,0.8-0.1,1.1s-0.2,0.5-0.4,0.7c-0.2,0.2-0.4,0.3-0.6,0.4c-0.2,0.1-0.5,0.1-0.8,0.1h-2.4c-0.3,0-0.6,0-0.9,0
		c-0.3,0-0.6,0-0.8,0V139.1z M22.2,139.1c0-0.5,0-0.9-0.1-1.2c-0.1-0.3-0.1-0.6-0.3-0.8c-0.1-0.2-0.2-0.3-0.4-0.4
		c-0.1-0.1-0.3-0.1-0.4-0.1c-0.3,0-0.5,0.1-0.7,0.2c-0.2,0.2-0.3,0.4-0.3,0.7c0,0.2,0.1,0.5,0.2,0.7c0.1,0.2,0.3,0.4,0.4,0.5
		c0.2,0.1,0.4,0.3,0.6,0.3c0.2,0.1,0.5,0.1,0.7,0.1H22.2z"/>
	<path fill="#FFFFFF" d="M19.4,145.2c-0.1-0.3-0.1-0.6-0.1-0.9c0-0.4,0-0.7,0.1-1c0.1-0.3,0.3-0.6,0.5-0.8c0.2-0.2,0.5-0.4,0.9-0.6
		c0.4-0.1,0.8-0.2,1.4-0.2c0.5,0,0.9,0.1,1.3,0.2c0.4,0.1,0.7,0.3,1,0.5c0.3,0.2,0.5,0.5,0.7,0.9c0.2,0.4,0.2,0.8,0.2,1.3
		c0,0.3,0,0.5-0.1,0.8c0,0.2-0.1,0.5-0.2,0.7l-0.9-0.2c0.1-0.2,0.1-0.4,0.2-0.6c0.1-0.2,0.1-0.5,0.1-0.7c0-0.3-0.1-0.5-0.2-0.7
		c-0.1-0.2-0.3-0.4-0.5-0.5c-0.2-0.1-0.4-0.2-0.7-0.3c-0.3-0.1-0.6-0.1-0.9-0.1c-0.3,0-0.6,0-0.8,0.1c-0.3,0.1-0.5,0.1-0.7,0.3
		c-0.2,0.1-0.3,0.3-0.4,0.5c-0.1,0.2-0.2,0.5-0.2,0.8c0,0.5,0.1,1,0.3,1.4l-0.9,0.2C19.5,145.8,19.5,145.5,19.4,145.2z"/>
	<path fill="#FFFFFF" d="M19.4,151.2h3.8c0.4,0,0.8-0.1,1-0.2c0.2-0.1,0.3-0.4,0.3-0.8c0-0.2-0.1-0.5-0.2-0.7
		c-0.1-0.2-0.3-0.4-0.5-0.5c-0.2-0.1-0.5-0.3-0.7-0.3c-0.3-0.1-0.6-0.1-0.9-0.1h-2.9v-1.1h8.8v1.1h-2.8c-0.2,0-0.4,0-0.6,0
		c-0.2,0-0.4,0-0.6-0.1l0,0c0.4,0.2,0.7,0.4,1,0.8c0.2,0.4,0.4,0.8,0.4,1.3c0,0.3-0.1,0.6-0.2,0.9c-0.1,0.2-0.2,0.4-0.4,0.6
		c-0.2,0.1-0.4,0.2-0.6,0.3c-0.2,0.1-0.5,0.1-0.7,0.1h-4.2V151.2z"/>
	<path fill="#FFFFFF" d="M19.4,158.1h3.8c0.4,0,0.8-0.1,1-0.2c0.2-0.1,0.3-0.4,0.3-0.8c0-0.2-0.1-0.5-0.2-0.7
		c-0.1-0.2-0.3-0.4-0.5-0.5c-0.2-0.1-0.5-0.3-0.7-0.3c-0.3-0.1-0.6-0.1-0.9-0.1h-2.9v-1.1h8.8v1.1h-2.8c-0.2,0-0.4,0-0.6,0
		c-0.2,0-0.4,0-0.6-0.1l0,0c0.4,0.2,0.7,0.4,1,0.8c0.2,0.4,0.4,0.8,0.4,1.3c0,0.3-0.1,0.6-0.2,0.9c-0.1,0.2-0.2,0.4-0.4,0.6
		c-0.2,0.1-0.4,0.2-0.6,0.3c-0.2,0.1-0.5,0.1-0.7,0.1h-4.2V158.1z"/>
	<path fill="#FFFFFF" d="M22.5,166.3c-0.4,0-0.9-0.1-1.3-0.2c-0.4-0.1-0.7-0.3-1-0.6c-0.3-0.3-0.5-0.6-0.7-0.9
		c-0.2-0.4-0.2-0.8-0.2-1.2c0-0.4,0.1-0.8,0.2-1.1c0.1-0.3,0.3-0.6,0.6-0.8c0.2-0.2,0.6-0.4,0.9-0.5c0.4-0.1,0.8-0.2,1.4-0.2
		c0.4,0,0.9,0.1,1.2,0.2c0.4,0.1,0.7,0.3,1,0.6c0.3,0.3,0.5,0.6,0.7,0.9c0.2,0.4,0.2,0.8,0.2,1.2c0,0.4-0.1,0.7-0.2,1.1
		s-0.3,0.6-0.5,0.9c-0.2,0.2-0.6,0.4-0.9,0.6C23.5,166.2,23,166.3,22.5,166.3z M22.4,165.1c0.7,0,1.2-0.1,1.6-0.4
		c0.4-0.3,0.6-0.7,0.6-1.2c0-0.2,0-0.4-0.1-0.6c-0.1-0.2-0.2-0.4-0.4-0.5c-0.2-0.2-0.4-0.3-0.7-0.4c-0.3-0.1-0.6-0.1-1-0.1
		c-0.7,0-1.3,0.1-1.7,0.4c-0.4,0.3-0.6,0.7-0.6,1.2c0,0.2,0,0.4,0.1,0.6c0.1,0.2,0.2,0.4,0.4,0.5c0.2,0.2,0.4,0.3,0.7,0.4
		C21.7,165.1,22,165.1,22.4,165.1z"/>
	<path fill="#FFFFFF" d="M19.4,170.8c-0.1-0.3-0.1-0.6-0.1-0.9c0-0.4,0-0.7,0.1-1c0.1-0.3,0.3-0.6,0.5-0.8c0.2-0.2,0.5-0.4,0.9-0.6
		c0.4-0.1,0.8-0.2,1.4-0.2c0.5,0,0.9,0.1,1.3,0.2c0.4,0.1,0.7,0.3,1,0.5c0.3,0.2,0.5,0.5,0.7,0.9c0.2,0.4,0.2,0.8,0.2,1.3
		c0,0.3,0,0.5-0.1,0.8c0,0.2-0.1,0.5-0.2,0.7l-0.9-0.2c0.1-0.2,0.1-0.4,0.2-0.6c0.1-0.2,0.1-0.5,0.1-0.7c0-0.3-0.1-0.5-0.2-0.7
		c-0.1-0.2-0.3-0.4-0.5-0.5c-0.2-0.1-0.4-0.2-0.7-0.3c-0.3-0.1-0.6-0.1-0.9-0.1c-0.3,0-0.6,0-0.8,0.1c-0.3,0.1-0.5,0.1-0.7,0.3
		c-0.2,0.1-0.3,0.3-0.4,0.5s-0.2,0.5-0.2,0.8c0,0.5,0.1,1,0.3,1.4l-0.9,0.2C19.5,171.4,19.5,171.1,19.4,170.8z"/>
	<path fill="#FFFFFF" d="M19.4,176.8h3.8c0.4,0,0.8-0.1,1-0.2c0.2-0.1,0.3-0.4,0.3-0.8c0-0.2-0.1-0.5-0.2-0.7
		c-0.1-0.2-0.3-0.4-0.5-0.5c-0.2-0.1-0.5-0.3-0.7-0.3c-0.3-0.1-0.6-0.1-0.9-0.1h-2.9V173h8.8v1.1h-2.8c-0.2,0-0.4,0-0.6,0
		c-0.2,0-0.4,0-0.6-0.1l0,0c0.4,0.2,0.7,0.4,1,0.8c0.2,0.4,0.4,0.8,0.4,1.3c0,0.3-0.1,0.6-0.2,0.9c-0.1,0.2-0.2,0.4-0.4,0.6
		c-0.2,0.1-0.4,0.2-0.6,0.3c-0.2,0.1-0.5,0.1-0.7,0.1h-4.2V176.8z"/>
	<path fill="#FFFFFF" d="M21.2,183.4c-0.3,0-0.5-0.1-0.8-0.2c-0.2-0.1-0.4-0.3-0.6-0.5c-0.2-0.2-0.3-0.5-0.4-0.8
		c-0.1-0.3-0.1-0.7-0.1-1.1c0-0.2,0-0.5,0-0.7c0-0.2,0.1-0.4,0.1-0.6l1,0.1c-0.1,0.2-0.1,0.4-0.2,0.6c0,0.2-0.1,0.5-0.1,0.7
		c0,0.4,0.1,0.7,0.2,0.9c0.2,0.2,0.4,0.4,0.7,0.4c0.2,0,0.4-0.1,0.5-0.2c0.1-0.1,0.2-0.3,0.3-0.5c0.1-0.2,0.1-0.4,0.2-0.7
		c0.1-0.2,0.2-0.5,0.3-0.7s0.3-0.4,0.5-0.5c0.2-0.1,0.5-0.2,0.8-0.2c0.5,0,0.9,0.2,1.3,0.6c0.3,0.4,0.5,1,0.5,1.8c0,0.2,0,0.4,0,0.6
		c0,0.2,0,0.4-0.1,0.6l-0.9-0.1c0.1-0.2,0.1-0.4,0.1-0.6c0-0.2,0-0.4,0-0.6c0-0.4-0.1-0.7-0.2-0.9c-0.2-0.2-0.4-0.3-0.6-0.3
		c-0.2,0-0.4,0.1-0.5,0.2c-0.1,0.1-0.2,0.3-0.3,0.5c-0.1,0.2-0.2,0.4-0.2,0.7c-0.1,0.2-0.2,0.5-0.3,0.7c-0.1,0.2-0.3,0.4-0.5,0.5
		C21.8,183.3,21.5,183.4,21.2,183.4z"/>
	<path fill="#FFFFFF" d="M19.4,188c-0.1-0.3-0.1-0.6-0.1-0.9c0-0.4,0-0.7,0.1-1c0.1-0.3,0.3-0.6,0.5-0.8c0.2-0.2,0.5-0.4,0.9-0.6
		c0.4-0.1,0.8-0.2,1.4-0.2c0.5,0,0.9,0.1,1.3,0.2c0.4,0.1,0.7,0.3,1,0.5c0.3,0.2,0.5,0.5,0.7,0.9c0.2,0.4,0.2,0.8,0.2,1.3
		c0,0.3,0,0.5-0.1,0.8c0,0.2-0.1,0.5-0.2,0.7l-0.9-0.2c0.1-0.2,0.1-0.4,0.2-0.6c0.1-0.2,0.1-0.5,0.1-0.7c0-0.3-0.1-0.5-0.2-0.7
		c-0.1-0.2-0.3-0.4-0.5-0.5c-0.2-0.1-0.4-0.2-0.7-0.3c-0.3-0.1-0.6-0.1-0.9-0.1c-0.3,0-0.6,0-0.8,0.1c-0.3,0.1-0.5,0.1-0.7,0.3
		c-0.2,0.1-0.3,0.3-0.4,0.5c-0.1,0.2-0.2,0.5-0.2,0.8c0,0.5,0.1,1,0.3,1.4l-0.9,0.2C19.5,188.6,19.5,188.3,19.4,188z"/>
	<path fill="#FFFFFF" d="M19.4,194h3.8c0.4,0,0.8-0.1,1-0.2c0.2-0.1,0.3-0.4,0.3-0.8c0-0.2-0.1-0.5-0.2-0.7
		c-0.1-0.2-0.3-0.4-0.5-0.5c-0.2-0.1-0.5-0.3-0.7-0.3c-0.3-0.1-0.6-0.1-0.9-0.1h-2.9v-1.1h8.8v1.1h-2.8c-0.2,0-0.4,0-0.6,0
		c-0.2,0-0.4,0-0.6-0.1l0,0c0.4,0.2,0.7,0.4,1,0.8c0.2,0.4,0.4,0.8,0.4,1.3c0,0.3-0.1,0.6-0.2,0.9c-0.1,0.2-0.2,0.4-0.4,0.6
		c-0.2,0.1-0.4,0.2-0.6,0.3c-0.2,0.1-0.5,0.1-0.7,0.1h-4.2V194z"/>
	<path fill="#FFFFFF" d="M19.4,200.9c0.2,0,0.4,0,0.6,0c0.2,0,0.4,0,0.6,0.1v0c-0.4-0.2-0.7-0.4-1-0.8c-0.3-0.4-0.4-0.8-0.4-1.3
		c0-0.3,0-0.6,0.1-0.9c0.1-0.2,0.2-0.4,0.4-0.6c0.2-0.1,0.4-0.2,0.6-0.3c0.2-0.1,0.5-0.1,0.7-0.1h4.2v1.1h-3.8c-0.4,0-0.8,0.1-1,0.2
		c-0.2,0.1-0.3,0.4-0.3,0.8c0,0.2,0.1,0.5,0.2,0.7c0.1,0.2,0.3,0.4,0.5,0.5c0.2,0.2,0.5,0.3,0.7,0.4c0.3,0.1,0.6,0.1,0.9,0.1h2.9
		v1.1h-6V200.9z"/>
	<path fill="#FFFFFF" d="M19.4,204h8.8v1.1h-8.8V204z"/>
	<path fill="#FFFFFF" d="M23,211.6c-0.1,0-0.3,0-0.6,0v-3.9c-0.8,0-1.4,0.1-1.7,0.4c-0.4,0.3-0.5,0.8-0.5,1.4c0,0.3,0,0.6,0.1,0.9
		c0.1,0.3,0.1,0.6,0.3,0.8l-0.9,0.2c-0.1-0.3-0.2-0.6-0.3-1c-0.1-0.3-0.1-0.7-0.1-1.1c0-0.9,0.2-1.6,0.7-2.1
		c0.5-0.5,1.3-0.7,2.3-0.7c0.4,0,0.9,0.1,1.2,0.2c0.4,0.1,0.7,0.3,1,0.5c0.3,0.2,0.5,0.5,0.7,0.8c0.2,0.3,0.2,0.7,0.2,1.1
		c0,0.4-0.1,0.8-0.2,1.1c-0.1,0.3-0.3,0.6-0.5,0.7c-0.2,0.2-0.5,0.3-0.8,0.4C23.6,211.6,23.3,211.6,23,211.6z M24.3,210.2
		c0.3-0.2,0.4-0.6,0.4-1c0-0.4-0.1-0.7-0.4-1c-0.3-0.3-0.6-0.4-1.1-0.5v2.8C23.6,210.5,24,210.4,24.3,210.2z"/>
	<path fill="#FFFFFF" d="M25.2,220.7c-0.4,0-0.8-0.1-1.1-0.2c-0.3-0.2-0.6-0.4-0.8-0.6c-0.2-0.3-0.4-0.6-0.6-1
		c-0.1-0.4-0.2-0.8-0.2-1.3c0-0.1,0-0.2,0-0.3c0-0.1,0-0.2,0-0.3h-3.1v-1.1h8.1c0,0.3,0,0.6,0,0.9c0,0.3,0,0.7,0,1
		c0,0.9-0.2,1.7-0.6,2.2C26.5,220.5,25.9,220.7,25.2,220.7z M25.1,219.6c0.5,0,0.9-0.2,1.2-0.5c0.3-0.3,0.4-0.8,0.4-1.4
		c0-0.2,0-0.3,0-0.4c0-0.1,0-0.2,0-0.3h-3.2c0,0.1,0,0.2,0,0.3c0,0.1,0,0.2,0,0.3c0,0.6,0.2,1.1,0.5,1.4
		C24.2,219.4,24.6,219.6,25.1,219.6z"/>
	<path fill="#FFFFFF" d="M22.5,226.9c-0.4,0-0.9-0.1-1.3-0.2c-0.4-0.1-0.7-0.3-1-0.6c-0.3-0.3-0.5-0.6-0.7-0.9
		c-0.2-0.4-0.2-0.8-0.2-1.2c0-0.4,0.1-0.8,0.2-1.1c0.1-0.3,0.3-0.6,0.6-0.8c0.2-0.2,0.6-0.4,0.9-0.5c0.4-0.1,0.8-0.2,1.4-0.2
		c0.4,0,0.9,0.1,1.2,0.2c0.4,0.1,0.7,0.3,1,0.6c0.3,0.3,0.5,0.6,0.7,0.9c0.2,0.4,0.2,0.8,0.2,1.2c0,0.4-0.1,0.7-0.2,1.1
		c-0.1,0.3-0.3,0.6-0.5,0.9c-0.2,0.2-0.6,0.4-0.9,0.6C23.5,226.8,23,226.9,22.5,226.9z M22.4,225.7c0.7,0,1.2-0.1,1.6-0.4
		c0.4-0.3,0.6-0.7,0.6-1.2c0-0.2,0-0.4-0.1-0.6c-0.1-0.2-0.2-0.4-0.4-0.5c-0.2-0.2-0.4-0.3-0.7-0.4c-0.3-0.1-0.6-0.1-1-0.1
		c-0.7,0-1.3,0.1-1.7,0.4c-0.4,0.3-0.6,0.7-0.6,1.2c0,0.2,0,0.4,0.1,0.6c0.1,0.2,0.2,0.4,0.4,0.5c0.2,0.2,0.4,0.3,0.7,0.4
		C21.7,225.7,22,225.7,22.4,225.7z"/>
	<path fill="#FFFFFF" d="M19.4,230.8c0-0.2,0-0.4,0-0.6c0-0.3,0-0.6,0.1-0.8c0.1-0.2,0.2-0.4,0.3-0.5c0.1-0.1,0.3-0.2,0.6-0.3
		c0.2-0.1,0.5-0.1,0.8-0.1h3.4v-1.2h0.8v1.2h1.9l0.3,1.1h-2.2v1.7h-0.8v-1.7h-3c-0.2,0-0.5,0-0.6,0c-0.2,0-0.3,0.1-0.4,0.1
		c-0.1,0.1-0.2,0.2-0.2,0.3c0,0.1-0.1,0.2-0.1,0.4c0,0.3,0,0.5,0.1,0.8l-0.9,0.1C19.4,231.2,19.4,231,19.4,230.8z"/>
	<path fill="#FFFFFF" d="M21.2,236.3c-0.3,0-0.5-0.1-0.8-0.2c-0.2-0.1-0.4-0.3-0.6-0.5c-0.2-0.2-0.3-0.5-0.4-0.8
		c-0.1-0.3-0.1-0.7-0.1-1.1c0-0.2,0-0.5,0-0.7c0-0.2,0.1-0.4,0.1-0.6l1,0.1c-0.1,0.2-0.1,0.4-0.2,0.6c0,0.2-0.1,0.5-0.1,0.7
		c0,0.4,0.1,0.7,0.2,0.9c0.2,0.2,0.4,0.4,0.7,0.4c0.2,0,0.4-0.1,0.5-0.2c0.1-0.1,0.2-0.3,0.3-0.5c0.1-0.2,0.1-0.4,0.2-0.7
		c0.1-0.2,0.2-0.5,0.3-0.7c0.1-0.2,0.3-0.4,0.5-0.5c0.2-0.1,0.5-0.2,0.8-0.2c0.5,0,0.9,0.2,1.3,0.6c0.3,0.4,0.5,1,0.5,1.8
		c0,0.2,0,0.4,0,0.6c0,0.2,0,0.4-0.1,0.6l-0.9-0.1c0.1-0.2,0.1-0.4,0.1-0.6c0-0.2,0-0.4,0-0.6c0-0.4-0.1-0.7-0.2-0.9
		c-0.2-0.2-0.4-0.3-0.6-0.3c-0.2,0-0.4,0.1-0.5,0.2c-0.1,0.1-0.2,0.3-0.3,0.5c-0.1,0.2-0.2,0.4-0.2,0.7c-0.1,0.2-0.2,0.5-0.3,0.7
		c-0.1,0.2-0.3,0.4-0.5,0.5C21.8,236.2,21.5,236.3,21.2,236.3z"/>
	<path fill="#FFFFFF" d="M19.4,241.5c0.2,0,0.4,0,0.6,0c0.2,0,0.4,0,0.6,0.1l0,0c-0.4-0.2-0.7-0.4-1-0.8c-0.2-0.3-0.4-0.8-0.4-1.2
		c0-0.7,0.2-1.3,0.8-1.7c0.5-0.4,1.2-0.5,2.1-0.5c0.5,0,1,0.1,1.4,0.2c0.4,0.1,0.8,0.4,1.1,0.6c0.3,0.3,0.5,0.6,0.7,1
		c0.2,0.4,0.2,0.8,0.2,1.3c0,0.2,0,0.3,0,0.5c0,0.2,0,0.3,0,0.5h2.8v1.1h-8.8V241.5z M24.5,241.5c0-0.2,0.1-0.4,0.1-0.5
		c0-0.2,0-0.3,0-0.5c0-0.3,0-0.5-0.1-0.8c-0.1-0.2-0.2-0.4-0.4-0.6c-0.2-0.2-0.4-0.3-0.7-0.4c-0.3-0.1-0.7-0.1-1.1-0.1
		c-0.6,0-1.1,0.1-1.5,0.3c-0.3,0.2-0.5,0.5-0.5,1c0,0.3,0.1,0.5,0.2,0.7c0.1,0.2,0.3,0.4,0.5,0.5c0.2,0.1,0.5,0.2,0.7,0.3
		c0.3,0.1,0.5,0.1,0.8,0.1H24.5z"/>
	<path fill="#FFFFFF" d="M19.4,247.8c0.2,0,0.4,0,0.6,0c0.2,0,0.4,0,0.6,0.1v0c-0.4-0.1-0.7-0.4-0.9-0.8c-0.2-0.4-0.4-0.8-0.4-1.3
		c0-0.5,0.1-0.9,0.4-1.2c0.3-0.3,0.7-0.5,1.2-0.5c0.6,0,1.2,0.3,1.5,0.9c0.4,0.6,0.5,1.5,0.5,2.7h0.4c0.4,0,0.7-0.1,1-0.3
		c0.2-0.2,0.3-0.5,0.3-1c0-0.3,0-0.6-0.1-0.9c-0.1-0.3-0.2-0.6-0.3-0.8l0.9-0.2c0.1,0.3,0.2,0.6,0.3,1c0.1,0.4,0.1,0.8,0.1,1.1
		c0,0.4,0,0.8-0.1,1.1s-0.2,0.5-0.4,0.7c-0.2,0.2-0.4,0.3-0.6,0.4c-0.2,0.1-0.5,0.1-0.8,0.1h-2.4c-0.3,0-0.6,0-0.9,0
		c-0.3,0-0.6,0-0.8,0V247.8z M22.2,247.7c0-0.5,0-0.9-0.1-1.2c-0.1-0.3-0.1-0.6-0.3-0.8c-0.1-0.2-0.2-0.3-0.4-0.4
		c-0.1-0.1-0.3-0.1-0.4-0.1c-0.3,0-0.5,0.1-0.7,0.2c-0.2,0.2-0.3,0.4-0.3,0.7c0,0.2,0.1,0.5,0.2,0.7c0.1,0.2,0.3,0.4,0.4,0.5
		c0.2,0.1,0.4,0.3,0.6,0.3c0.2,0.1,0.5,0.1,0.7,0.1H22.2z"/>
	<path fill="#FFFFFF" d="M19.4,258.3h3.8c0.4,0,0.7-0.1,1-0.2c0.2-0.1,0.4-0.4,0.4-0.8c0-0.2-0.1-0.4-0.2-0.6
		c-0.1-0.2-0.3-0.4-0.5-0.5c-0.2-0.2-0.5-0.3-0.7-0.4c-0.3-0.1-0.6-0.1-1-0.1h-2.8v-1.1h3.8c0.2,0,0.4,0,0.5,0
		c0.2,0,0.3-0.1,0.4-0.1c0.1-0.1,0.2-0.2,0.3-0.3c0.1-0.1,0.1-0.3,0.1-0.5c0-0.2-0.1-0.4-0.2-0.6c-0.1-0.2-0.3-0.4-0.5-0.5
		c-0.2-0.2-0.5-0.3-0.7-0.4c-0.3-0.1-0.6-0.1-0.9-0.1h-2.8v-1.1h6v1c-0.2,0-0.4,0-0.6,0c-0.2,0-0.4,0-0.6-0.1l0,0
		c0.4,0.2,0.8,0.4,1,0.8c0.2,0.4,0.4,0.8,0.4,1.3c0,0.3,0,0.6-0.1,0.8c-0.1,0.2-0.2,0.4-0.3,0.5c-0.1,0.1-0.3,0.2-0.4,0.3
		c-0.2,0.1-0.3,0.1-0.4,0.1c0.1,0.1,0.3,0.2,0.5,0.3c0.2,0.1,0.3,0.3,0.4,0.4c0.1,0.2,0.2,0.4,0.3,0.6c0.1,0.2,0.1,0.5,0.1,0.8
		c0,0.6-0.2,1-0.5,1.3c-0.3,0.3-0.8,0.5-1.5,0.5h-4.1V258.3z"/>
</g>
<g>
	<path fill="#FFFFFF" d="M6,49.8c-1.1-0.2-1.8-0.6-2.3-1.2c-0.5-0.6-0.7-1.4-0.7-2.5c0-0.6,0.1-1.1,0.2-1.4c0.2-0.4,0.4-0.6,0.6-0.8
		c0.3-0.2,0.6-0.3,0.9-0.3c0.4,0,0.7,0,1.1,0.1l5.3,1v1.1l-5.3-1c-0.6-0.1-1.1-0.1-1.5,0.2c-0.3,0.2-0.5,0.7-0.5,1.4
		c0,0.3,0,0.7,0.1,0.9c0.1,0.3,0.2,0.5,0.4,0.7c0.2,0.2,0.4,0.4,0.7,0.5c0.3,0.1,0.7,0.2,1.1,0.3l5,1v1.1L6,49.8z"/>
	<path fill="#FFFFFF" d="M3,56v-1.1l3.8,0.7c0.5,0.1,0.8,0.1,1,0c0.2-0.1,0.3-0.3,0.3-0.5c0-0.3-0.1-0.6-0.4-0.8
		c-0.3-0.3-0.6-0.5-1-0.8c-0.4-0.2-0.8-0.4-1.2-0.6c-0.4-0.2-0.8-0.3-1.2-0.4L3,52.3v-1.1l3.1,0.6c0,0,0.1,0,0.3,0.1
		c0.1,0,0.3,0.1,0.5,0.1c0.2,0,0.4,0.1,0.6,0.1c0.2,0,0.4,0.1,0.6,0.1c0.2,0,0.4,0.1,0.5,0.1c0.1,0,0.2,0,0.3,0.1v1
		c-0.2,0-0.5-0.1-0.8-0.2c-0.4-0.1-0.9-0.2-1.5-0.5v0c0.3,0.1,0.6,0.3,0.9,0.5c0.3,0.2,0.6,0.4,0.8,0.6c0.2,0.2,0.4,0.5,0.6,0.8
		c0.1,0.3,0.2,0.6,0.2,0.9c0,0.6-0.2,0.9-0.5,1.1c-0.4,0.2-0.9,0.2-1.5,0.1L3,56z"/>
	<path fill="#FFFFFF" d="M3,59V58l6,1.1v1.1L3,59z M10.9,60.7c-0.2,0-0.4-0.1-0.5-0.2c-0.1-0.1-0.2-0.3-0.2-0.5
		c0-0.2,0.1-0.4,0.2-0.5c0.1-0.1,0.3-0.2,0.5-0.2c0.2,0,0.4,0.1,0.5,0.2c0.1,0.1,0.2,0.3,0.2,0.5c0,0.2-0.1,0.4-0.2,0.5
		C11.3,60.6,11.1,60.7,10.9,60.7z"/>
	<path fill="#FFFFFF" d="M3,63.4v-1.1l6-1.1v1.1L5.5,63c-0.4,0.1-0.8,0.1-1.2,0.1v0l4.9,2.5l-0.3,1L3,63.4z"/>
	<path fill="#FFFFFF" d="M7.8,71.7c-1.3,0-2-1.3-2.1-3.9c-0.1,0-0.2,0-0.3,0c-0.1,0-0.3,0-0.4,0c-0.2,0-0.4,0-0.6,0.1
		c-0.1,0-0.3,0.1-0.4,0.2c-0.1,0.1-0.2,0.2-0.2,0.4c0,0.2-0.1,0.4-0.1,0.6c0,0.3,0,0.6,0.1,0.9c0.1,0.3,0.1,0.6,0.3,0.8l-0.8,0
		c-0.1-0.3-0.2-0.6-0.3-1c-0.1-0.3-0.1-0.7-0.1-1.1c0-0.7,0.2-1.2,0.5-1.5c0.3-0.3,0.8-0.5,1.5-0.5c0.6,0,1.1,0.1,1.6,0.2
		c0.5,0.2,1,0.4,1.4,0.7c0.4,0.3,0.7,0.6,0.9,1C9,69,9.1,69.5,9.1,70c0,0.3,0,0.6-0.1,0.8c-0.1,0.2-0.2,0.4-0.3,0.5
		c-0.1,0.1-0.3,0.2-0.4,0.3C8.1,71.7,7.9,71.7,7.8,71.7z M7.6,70.6c0.2,0,0.4-0.1,0.5-0.2c0.1-0.1,0.2-0.3,0.2-0.6
		c0-0.2,0-0.5-0.1-0.7c-0.1-0.2-0.2-0.4-0.4-0.5c-0.2-0.2-0.4-0.3-0.6-0.4C7,68.1,6.7,68,6.5,68c0,0.9,0.2,1.6,0.3,2
		C7,70.4,7.3,70.6,7.6,70.6z"/>
	<path fill="#FFFFFF" d="M8.1,76.3c0.1-0.3,0-0.6-0.2-0.8C7.6,75.2,7.4,75,7,74.7c-0.4-0.2-0.8-0.4-1.3-0.6
		c-0.5-0.2-0.9-0.3-1.3-0.4L3,73.5v-1.1L6.2,73c0.5,0.1,1,0.2,1.4,0.3c0.5,0.1,0.9,0.2,1.4,0.3v1c-0.3,0-0.6-0.1-0.9-0.2
		c-0.3-0.1-0.8-0.2-1.3-0.4l0,0c0.4,0.2,0.7,0.3,1,0.5c0.3,0.2,0.6,0.4,0.8,0.6c0.2,0.2,0.4,0.4,0.5,0.7c0.1,0.2,0.1,0.5,0.1,0.8
		L8.1,76.3z"/>
	<path fill="#FFFFFF" d="M8.2,80.2c0.1-0.3,0.1-0.6,0.1-0.9c0-0.4-0.1-0.7-0.2-0.9c-0.2-0.2-0.4-0.3-0.6-0.3c-0.2,0-0.3,0-0.4,0.1
		c-0.1,0.1-0.2,0.2-0.4,0.3c-0.1,0.1-0.2,0.3-0.3,0.4c-0.1,0.2-0.2,0.3-0.4,0.4c-0.1,0.1-0.3,0.2-0.5,0.3c-0.2,0.1-0.4,0.1-0.6,0.1
		c-0.2,0-0.5-0.1-0.7-0.2c-0.2-0.1-0.4-0.3-0.6-0.5c-0.2-0.2-0.3-0.5-0.4-0.8c-0.1-0.3-0.2-0.7-0.2-1.1c0-0.4,0-0.7,0.1-1l1,0.2
		c-0.1,0.3-0.2,0.6-0.2,1c0,0.4,0.1,0.7,0.2,1c0.2,0.2,0.4,0.4,0.7,0.4c0.2,0,0.3,0,0.4-0.1c0.1-0.1,0.2-0.2,0.3-0.3
		c0.1-0.1,0.2-0.3,0.3-0.4c0.1-0.2,0.2-0.3,0.4-0.4c0.1-0.1,0.3-0.2,0.5-0.3C6.9,77,7.1,77,7.3,77c0.3,0,0.5,0.1,0.7,0.1
		c0.2,0.1,0.4,0.3,0.6,0.5c0.2,0.2,0.3,0.4,0.4,0.7c0.1,0.3,0.1,0.6,0.1,1c0,0.2,0,0.4,0,0.6c0,0.2,0,0.3-0.1,0.5L8.2,80.2z"/>
	<path fill="#FFFFFF" d="M3,82.2v-1.1l6,1.1v1.1L3,82.2z M10.9,83.9c-0.2,0-0.4-0.1-0.5-0.2c-0.1-0.1-0.2-0.3-0.2-0.5
		c0-0.2,0.1-0.4,0.2-0.5c0.1-0.1,0.3-0.2,0.5-0.2c0.2,0,0.4,0.1,0.5,0.2c0.1,0.1,0.2,0.3,0.2,0.5c0,0.2-0.1,0.4-0.2,0.5
		C11.3,83.8,11.1,83.9,10.9,83.9z"/>
	<path fill="#FFFFFF" d="M8.2,88.1v-1.6l-3.1-0.6c-0.5-0.1-0.8-0.1-0.9,0C4,86,3.9,86.1,3.9,86.4c0,0.2,0,0.3,0,0.4
		c0,0.1,0,0.3,0.1,0.4l-0.9-0.1C3,87,3,86.8,3,86.6c0-0.2,0-0.4,0-0.6c0-0.3,0-0.6,0.1-0.7c0.1-0.2,0.2-0.3,0.3-0.4
		c0.2-0.1,0.4-0.2,0.6-0.2c0.2,0,0.5,0,0.9,0.1l3.3,0.6v-1.2L9,84.4v1.2l1.9,0.4l0.3,1.1L9,86.7v1.6L8.2,88.1z"/>
	<path fill="#FFFFFF" d="M4.2,91.9c-1.3-0.7-2.4-1.5-3.1-2.2C0.4,89,0,88.2,0,87.5c0-0.2,0-0.3,0-0.4c0-0.1,0-0.3,0.1-0.4l1,0.2
		c-0.1,0.2-0.1,0.5-0.1,0.8c0,0.2,0.1,0.4,0.2,0.7c0.1,0.2,0.3,0.5,0.5,0.7c0.3,0.2,0.5,0.4,0.8,0.5c0.3,0.1,0.7,0.2,1.1,0.2
		c0.8,0,1.7-0.1,2.6-0.2C7.1,89.2,8,89,9,88.7v1.2c-0.4,0.1-0.8,0.2-1.2,0.3c-0.4,0.1-0.8,0.2-1.2,0.2c-0.4,0.1-0.8,0.1-1.2,0.1
		c-0.4,0-0.7,0-1.1,0c-0.1,0-0.2,0-0.4,0c-0.1,0-0.3,0-0.4-0.1v0C4,90.8,4.4,91,4.9,91.2c0.4,0.2,0.9,0.4,1.3,0.7
		c0.5,0.2,0.9,0.4,1.4,0.7c0.5,0.2,1,0.5,1.6,0.7l-0.3,1C7.1,93.4,5.5,92.7,4.2,91.9z"/>
	<path fill="#FFFFFF" d="M7,102.7c-0.6,0-1.2-0.1-1.7-0.3c-0.5-0.2-0.9-0.5-1.3-0.8c-0.4-0.3-0.6-0.7-0.8-1.1
		c-0.2-0.4-0.3-0.9-0.3-1.3c0-0.8,0.2-1.3,0.5-1.7C3.8,97.2,4.4,97,5.1,97c0.6,0,1.1,0.1,1.6,0.3C7.2,97.5,7.6,97.7,8,98
		c0.4,0.3,0.6,0.7,0.8,1.1c0.2,0.4,0.3,0.9,0.3,1.4c0,0.4-0.1,0.7-0.2,1c-0.1,0.3-0.3,0.5-0.4,0.7c-0.2,0.2-0.4,0.3-0.7,0.4
		C7.6,102.6,7.3,102.7,7,102.7z M6.9,101.6c0.4,0,0.8-0.1,1-0.3c0.2-0.2,0.3-0.5,0.3-0.9c0-0.3-0.1-0.6-0.3-0.9
		c-0.2-0.3-0.4-0.5-0.7-0.7c-0.3-0.2-0.6-0.3-1-0.4c-0.4-0.1-0.7-0.2-1.1-0.2c-0.5,0-0.8,0.1-1,0.3c-0.2,0.2-0.4,0.5-0.4,1
		c0,0.3,0.1,0.6,0.2,0.8c0.1,0.3,0.4,0.5,0.6,0.7c0.3,0.2,0.6,0.4,1,0.5C6,101.5,6.4,101.6,6.9,101.6z"/>
	<path fill="#FFFFFF" d="M10.9,108.4c0-0.1,0.1-0.3,0.1-0.4c0-0.1,0-0.3,0-0.4c0-0.4-0.1-0.8-0.4-1c-0.2-0.2-0.7-0.4-1.2-0.5L9,106
		v1.6l-0.8-0.2v-1.6l-5.4-1c-1-0.2-1.7-0.5-2.1-1C0.2,103.3,0,102.8,0,102c0-0.4,0-0.7,0.1-1l0.9,0.3c0,0.1-0.1,0.3-0.1,0.4
		c0,0.2,0,0.3,0,0.4c0,0.2,0,0.4,0.1,0.6c0.1,0.2,0.2,0.3,0.3,0.4c0.1,0.1,0.3,0.2,0.6,0.3c0.2,0.1,0.5,0.2,0.9,0.2l5.4,1v-1.2
		l0.8,0.2v1.2l0.4,0.1c0.8,0.1,1.4,0.4,1.8,0.9c0.4,0.4,0.6,1.1,0.6,1.8c0,0.3,0,0.7-0.1,1L10.9,108.4z"/>
	<path fill="#FFFFFF" d="M3,115.2l1.9-0.3v-3.4l-1.9-1v-1.1l8.1,4.4v1.2L3,116.3V115.2z M8.8,114.2c0.2,0,0.4-0.1,0.6-0.1
		c0.2,0,0.4,0,0.6-0.1v0c-0.2-0.1-0.3-0.2-0.5-0.3c-0.2-0.1-0.4-0.2-0.6-0.3l-3-1.6v2.8L8.8,114.2z"/>
	<path fill="#FFFFFF" d="M7.3,123.1c-0.6,0-1.1-0.1-1.6-0.2c-0.5-0.1-1-0.4-1.4-0.7c-0.4-0.3-0.7-0.7-1-1.2c-0.2-0.5-0.4-1-0.4-1.7
		c0-0.3,0-0.6,0.1-0.8l-3-0.5v-1.1l6.1,1.2c0,0,0.1,0,0.3,0.1c0.1,0,0.3,0.1,0.5,0.1c0.2,0,0.4,0.1,0.6,0.1c0.2,0,0.4,0.1,0.6,0.1
		c0.2,0,0.4,0.1,0.5,0.1c0.1,0,0.2,0,0.3,0.1v1.1c-0.1,0-0.3-0.1-0.4-0.1c-0.1,0-0.3-0.1-0.5-0.1c-0.2-0.1-0.4-0.1-0.6-0.2
		c-0.2-0.1-0.5-0.2-0.8-0.3l0,0c0.4,0.2,0.7,0.3,1,0.5c0.3,0.2,0.6,0.4,0.8,0.6c0.2,0.2,0.4,0.5,0.5,0.8c0.1,0.3,0.2,0.6,0.2,0.9
		c0,0.4-0.1,0.8-0.4,1C8.4,123,7.9,123.1,7.3,123.1z M7.1,122c0.4,0,0.7-0.1,0.8-0.2c0.2-0.1,0.3-0.3,0.3-0.4c0-0.2-0.1-0.4-0.2-0.6
		c-0.1-0.2-0.3-0.4-0.5-0.6c-0.2-0.2-0.4-0.3-0.7-0.5c-0.3-0.2-0.5-0.3-0.8-0.4c-0.3-0.1-0.6-0.2-0.8-0.3c-0.3-0.1-0.5-0.2-0.8-0.2
		L4,118.7c0,0.1-0.1,0.3-0.1,0.4c0,0.2,0,0.3,0,0.4c0,0.4,0.1,0.8,0.3,1.1c0.2,0.3,0.5,0.6,0.8,0.8c0.3,0.2,0.7,0.3,1.1,0.4
		C6.4,122,6.7,122,7.1,122z"/>
	<path fill="#FFFFFF" d="M7.3,129.5c-0.6,0-1.1-0.1-1.6-0.2c-0.5-0.1-1-0.4-1.4-0.7c-0.4-0.3-0.7-0.7-1-1.2c-0.2-0.5-0.4-1-0.4-1.7
		c0-0.3,0-0.6,0.1-0.8l-3-0.5v-1.1l6.1,1.2c0,0,0.1,0,0.3,0.1c0.1,0,0.3,0.1,0.5,0.1c0.2,0,0.4,0.1,0.6,0.1c0.2,0,0.4,0.1,0.6,0.1
		c0.2,0,0.4,0.1,0.5,0.1c0.1,0,0.2,0,0.3,0.1v1.1c-0.1,0-0.3-0.1-0.4-0.1c-0.1,0-0.3-0.1-0.5-0.1c-0.2-0.1-0.4-0.1-0.6-0.2
		c-0.2-0.1-0.5-0.2-0.8-0.3l0,0c0.4,0.2,0.7,0.3,1,0.5c0.3,0.2,0.6,0.4,0.8,0.6c0.2,0.2,0.4,0.5,0.5,0.8c0.1,0.3,0.2,0.6,0.2,0.9
		c0,0.4-0.1,0.8-0.4,1C8.4,129.4,7.9,129.5,7.3,129.5z M7.1,128.5c0.4,0,0.7-0.1,0.8-0.2c0.2-0.1,0.3-0.3,0.3-0.4
		c0-0.2-0.1-0.4-0.2-0.6c-0.1-0.2-0.3-0.4-0.5-0.6c-0.2-0.2-0.4-0.3-0.7-0.5c-0.3-0.2-0.5-0.3-0.8-0.4c-0.3-0.1-0.6-0.2-0.8-0.3
		c-0.3-0.1-0.5-0.2-0.8-0.2L4,125.1c0,0.1-0.1,0.3-0.1,0.4c0,0.2,0,0.3,0,0.4c0,0.4,0.1,0.8,0.3,1.1c0.2,0.3,0.5,0.6,0.8,0.8
		c0.3,0.2,0.7,0.3,1.1,0.4C6.4,128.4,6.7,128.5,7.1,128.5z"/>
	<path fill="#FFFFFF" d="M3,131.4v-1.1l8.8,1.7v1.1L3,131.4z"/>
	<path fill="#FFFFFF" d="M3,134.5v-1.1l6,1.1v1.1L3,134.5z M10.9,136.1c-0.2,0-0.4-0.1-0.5-0.2c-0.1-0.1-0.2-0.3-0.2-0.5
		c0-0.2,0.1-0.4,0.2-0.5c0.1-0.1,0.3-0.2,0.5-0.2c0.2,0,0.4,0.1,0.5,0.2c0.1,0.1,0.2,0.3,0.2,0.5c0,0.2-0.1,0.4-0.2,0.5
		C11.3,136.1,11.1,136.1,10.9,136.1z"/>
	<path fill="#FFFFFF" d="M7.8,141.5c-1.3,0-2-1.3-2.1-3.9c-0.1,0-0.2,0-0.3,0c-0.1,0-0.3,0-0.4,0c-0.2,0-0.4,0-0.6,0.1
		c-0.1,0-0.3,0.1-0.4,0.2c-0.1,0.1-0.2,0.2-0.2,0.4c0,0.2-0.1,0.4-0.1,0.6c0,0.3,0,0.6,0.1,0.9c0.1,0.3,0.1,0.6,0.3,0.8l-0.8,0
		c-0.1-0.3-0.2-0.6-0.3-1c-0.1-0.3-0.1-0.7-0.1-1.1c0-0.7,0.2-1.2,0.5-1.5c0.3-0.3,0.8-0.5,1.5-0.5c0.6,0,1.1,0.1,1.6,0.2
		c0.5,0.2,1,0.4,1.4,0.7c0.4,0.3,0.7,0.6,0.9,1c0.2,0.4,0.3,0.8,0.3,1.3c0,0.3,0,0.6-0.1,0.8c-0.1,0.2-0.2,0.4-0.3,0.5
		c-0.1,0.1-0.3,0.2-0.4,0.3C8.1,141.4,7.9,141.5,7.8,141.5z M7.6,140.4c0.2,0,0.4-0.1,0.5-0.2c0.1-0.1,0.2-0.3,0.2-0.6
		c0-0.2,0-0.5-0.1-0.7c-0.1-0.2-0.2-0.4-0.4-0.5c-0.2-0.2-0.4-0.3-0.6-0.4c-0.2-0.1-0.5-0.2-0.7-0.3c0,0.9,0.2,1.6,0.3,2
		C7,140.2,7.3,140.4,7.6,140.4z"/>
	<path fill="#FFFFFF" d="M5.2,147c0,0-0.2,0-0.4-0.1c-0.2,0-0.4-0.1-0.7-0.1c-0.2,0-0.5-0.1-0.7-0.1c-0.2,0-0.3-0.1-0.4-0.1v-1.1
		c0.3,0,0.6,0.1,1,0.2c0.4,0.1,0.9,0.3,1.4,0.4l0,0c-0.2-0.1-0.5-0.2-0.8-0.4c-0.3-0.2-0.6-0.4-0.8-0.6c-0.3-0.2-0.5-0.5-0.7-0.8
		c-0.2-0.3-0.3-0.6-0.3-1c0-0.4,0.1-0.8,0.4-1c0.3-0.2,0.7-0.3,1.4-0.3c0.6,0,1.1,0.1,1.6,0.2c0.5,0.1,1,0.4,1.4,0.7
		c0.4,0.3,0.7,0.7,1,1.2c0.2,0.5,0.4,1,0.4,1.7c0,0.2,0,0.3,0,0.4c0,0.1,0,0.3-0.1,0.4l2.8,0.5v1.1L5.2,147z M8.2,146.2
		c0-0.1,0-0.3,0-0.5c0-0.4-0.1-0.8-0.3-1.1s-0.5-0.6-0.8-0.8c-0.3-0.2-0.7-0.3-1.1-0.4c-0.4-0.1-0.8-0.1-1.1-0.1
		c-0.4,0-0.7,0.1-0.8,0.2c-0.2,0.1-0.3,0.3-0.3,0.4c0,0.3,0.1,0.6,0.4,0.8c0.3,0.3,0.6,0.5,1,0.8c0.4,0.2,0.8,0.4,1.2,0.6
		c0.4,0.2,0.8,0.3,1.2,0.4l0.5,0.1C8.2,146.4,8.2,146.3,8.2,146.2z"/>
	<path fill="#FFFFFF" d="M10.2,156c0.1-0.2,0.1-0.4,0.1-0.6c0-0.2,0-0.4,0-0.5c0-0.3,0-0.6-0.1-0.8c-0.1-0.2-0.2-0.4-0.3-0.5
		c-0.1-0.1-0.3-0.2-0.4-0.3c-0.2-0.1-0.3-0.1-0.5-0.1c-0.2,0-0.5,0.1-0.6,0.2c-0.2,0.1-0.3,0.3-0.5,0.5c-0.1,0.2-0.3,0.4-0.4,0.6
		c-0.1,0.2-0.3,0.4-0.5,0.6c-0.2,0.2-0.4,0.3-0.6,0.5c-0.2,0.1-0.5,0.2-0.8,0.2c-0.4,0-0.7-0.1-1.1-0.2c-0.3-0.2-0.6-0.4-0.8-0.7
		c-0.2-0.3-0.4-0.6-0.6-1c-0.1-0.4-0.2-0.8-0.2-1.3c0-0.2,0-0.4,0-0.7c0-0.2,0.1-0.5,0.1-0.7l1.1,0.2c-0.1,0.2-0.1,0.4-0.2,0.6
		c-0.1,0.2-0.1,0.4-0.1,0.6c0,0.6,0.1,1.1,0.4,1.5c0.3,0.3,0.6,0.5,1.1,0.5c0.2,0,0.4-0.1,0.6-0.2c0.2-0.1,0.3-0.3,0.5-0.5
		c0.1-0.2,0.3-0.4,0.4-0.6c0.1-0.2,0.3-0.4,0.5-0.6c0.2-0.2,0.4-0.3,0.6-0.5c0.2-0.1,0.5-0.2,0.8-0.2c0.3,0,0.7,0.1,1,0.2
		c0.3,0.1,0.6,0.3,0.8,0.6c0.2,0.3,0.4,0.6,0.5,0.9c0.1,0.4,0.2,0.8,0.2,1.3c0,0.2,0,0.4,0,0.6c0,0.2,0,0.4-0.1,0.6L10.2,156z"/>
	<path fill="#FFFFFF" d="M8,161.1c0.1-0.2,0.1-0.3,0.2-0.5c0-0.2,0.1-0.4,0.1-0.6c0-0.4-0.1-0.7-0.3-1c-0.2-0.3-0.4-0.5-0.7-0.7
		c-0.3-0.2-0.6-0.3-1-0.4c-0.4-0.1-0.7-0.1-1-0.1c-0.2,0-0.3,0-0.5,0c-0.1,0-0.3,0.1-0.4,0.2c-0.1,0.1-0.2,0.2-0.3,0.4
		c-0.1,0.2-0.1,0.4-0.1,0.6c0,0.2,0,0.5,0.1,0.7c0,0.2,0.1,0.4,0.2,0.6H3.3c-0.1-0.2-0.2-0.5-0.2-0.7C3,159.4,3,159.1,3,158.8
		c0-0.4,0-0.7,0.1-1c0.1-0.3,0.2-0.5,0.4-0.6c0.2-0.2,0.4-0.3,0.6-0.3c0.2-0.1,0.5-0.1,0.8-0.1c0.6,0,1.1,0.1,1.6,0.2
		c0.5,0.2,1,0.4,1.3,0.7c0.4,0.3,0.7,0.7,0.9,1.1c0.2,0.4,0.3,0.9,0.3,1.4c0,0.2,0,0.5,0,0.7c0,0.2-0.1,0.4-0.1,0.6L8,161.1z"/>
	<path fill="#FFFFFF" d="M3,162.7v-1.1l6,1.1v1.1L3,162.7z M10.9,164.4c-0.2,0-0.4-0.1-0.5-0.2c-0.1-0.1-0.2-0.3-0.2-0.5
		c0-0.2,0.1-0.4,0.2-0.5c0.1-0.1,0.3-0.2,0.5-0.2c0.2,0,0.4,0.1,0.5,0.2c0.1,0.1,0.2,0.3,0.2,0.5c0,0.2-0.1,0.4-0.2,0.5
		C11.3,164.3,11.1,164.4,10.9,164.4z"/>
	<path fill="#FFFFFF" d="M7.8,169.7c-1.3,0-2-1.3-2.1-3.9c-0.1,0-0.2,0-0.3,0c-0.1,0-0.3,0-0.4,0c-0.2,0-0.4,0-0.6,0.1
		c-0.1,0-0.3,0.1-0.4,0.2c-0.1,0.1-0.2,0.2-0.2,0.4c0,0.2-0.1,0.4-0.1,0.6c0,0.3,0,0.6,0.1,0.9c0.1,0.3,0.1,0.6,0.3,0.8l-0.8,0
		c-0.1-0.3-0.2-0.6-0.3-1c-0.1-0.3-0.1-0.7-0.1-1.1c0-0.7,0.2-1.2,0.5-1.5c0.3-0.3,0.8-0.5,1.5-0.5c0.6,0,1.1,0.1,1.6,0.2
		c0.5,0.2,1,0.4,1.4,0.7c0.4,0.3,0.7,0.6,0.9,1c0.2,0.4,0.3,0.8,0.3,1.3c0,0.3,0,0.6-0.1,0.8c-0.1,0.2-0.2,0.4-0.3,0.5
		c-0.1,0.1-0.3,0.2-0.4,0.3C8.1,169.7,7.9,169.7,7.8,169.7z M7.6,168.6c0.2,0,0.4-0.1,0.5-0.2c0.1-0.1,0.2-0.3,0.2-0.6
		c0-0.2,0-0.5-0.1-0.7c-0.1-0.2-0.2-0.4-0.4-0.5c-0.2-0.2-0.4-0.3-0.6-0.4C7,166.1,6.7,166,6.5,166c0,0.9,0.2,1.6,0.3,2
		C7,168.4,7.3,168.6,7.6,168.6z"/>
	<path fill="#FFFFFF" d="M3,175.2v-1.1l3.8,0.7c0.5,0.1,0.8,0.1,1,0c0.2-0.1,0.3-0.3,0.3-0.5c0-0.3-0.1-0.6-0.4-0.8
		c-0.3-0.3-0.6-0.5-1-0.8c-0.4-0.2-0.8-0.4-1.2-0.6c-0.4-0.2-0.8-0.3-1.2-0.4L3,171.5v-1.1l3.1,0.6c0,0,0.1,0,0.3,0.1
		c0.1,0,0.3,0.1,0.5,0.1c0.2,0,0.4,0.1,0.6,0.1c0.2,0,0.4,0.1,0.6,0.1c0.2,0,0.4,0.1,0.5,0.1c0.1,0,0.2,0,0.3,0.1v1
		c-0.2,0-0.5-0.1-0.8-0.2c-0.4-0.1-0.9-0.2-1.5-0.5v0c0.3,0.1,0.6,0.3,0.9,0.5c0.3,0.2,0.6,0.4,0.8,0.6c0.2,0.2,0.4,0.5,0.6,0.8
		c0.1,0.3,0.2,0.6,0.2,0.9c0,0.6-0.2,0.9-0.5,1.1c-0.4,0.2-0.9,0.2-1.5,0.1L3,175.2z"/>
	<path fill="#FFFFFF" d="M8,181.6c0.1-0.2,0.1-0.3,0.2-0.5c0-0.2,0.1-0.4,0.1-0.6c0-0.4-0.1-0.7-0.3-1c-0.2-0.3-0.4-0.5-0.7-0.7
		c-0.3-0.2-0.6-0.3-1-0.4s-0.7-0.1-1-0.1c-0.2,0-0.3,0-0.5,0c-0.1,0-0.3,0.1-0.4,0.2c-0.1,0.1-0.2,0.2-0.3,0.4
		c-0.1,0.2-0.1,0.4-0.1,0.6c0,0.2,0,0.5,0.1,0.7c0,0.2,0.1,0.4,0.2,0.6H3.3c-0.1-0.2-0.2-0.5-0.2-0.7C3,179.8,3,179.5,3,179.2
		c0-0.4,0-0.7,0.1-1c0.1-0.3,0.2-0.5,0.4-0.6c0.2-0.2,0.4-0.3,0.6-0.3c0.2-0.1,0.5-0.1,0.8-0.1c0.6,0,1.1,0.1,1.6,0.2
		c0.5,0.2,1,0.4,1.3,0.7c0.4,0.3,0.7,0.7,0.9,1.1c0.2,0.4,0.3,0.9,0.3,1.4c0,0.2,0,0.5,0,0.7c0,0.2-0.1,0.4-0.1,0.6L8,181.6z"/>
	<path fill="#FFFFFF" d="M7.8,187.1c-1.3,0-2-1.3-2.1-3.9c-0.1,0-0.2,0-0.3,0c-0.1,0-0.3,0-0.4,0c-0.2,0-0.4,0-0.6,0.1
		c-0.1,0-0.3,0.1-0.4,0.2c-0.1,0.1-0.2,0.2-0.2,0.4c0,0.2-0.1,0.4-0.1,0.6c0,0.3,0,0.6,0.1,0.9c0.1,0.3,0.1,0.6,0.3,0.8l-0.8,0
		c-0.1-0.3-0.2-0.6-0.3-1c-0.1-0.3-0.1-0.7-0.1-1.1c0-0.7,0.2-1.2,0.5-1.5c0.3-0.3,0.8-0.5,1.5-0.5c0.6,0,1.1,0.1,1.6,0.2
		c0.5,0.2,1,0.4,1.4,0.7c0.4,0.3,0.7,0.6,0.9,1c0.2,0.4,0.3,0.8,0.3,1.3c0,0.3,0,0.6-0.1,0.8c-0.1,0.2-0.2,0.4-0.3,0.5
		c-0.1,0.1-0.3,0.2-0.4,0.3C8.1,187.1,7.9,187.1,7.8,187.1z M7.6,186.1c0.2,0,0.4-0.1,0.5-0.2c0.1-0.1,0.2-0.3,0.2-0.6
		c0-0.2,0-0.5-0.1-0.7c-0.1-0.2-0.2-0.4-0.4-0.5c-0.2-0.2-0.4-0.3-0.6-0.4c-0.2-0.1-0.5-0.2-0.7-0.3c0,0.9,0.2,1.6,0.3,2
		C7,185.8,7.3,186.1,7.6,186.1z"/>
	<path fill="#FFFFFF" d="M8.2,191.4c0.1-0.3,0.1-0.6,0.1-0.9c0-0.4-0.1-0.7-0.2-0.9c-0.2-0.2-0.4-0.3-0.6-0.3c-0.2,0-0.3,0-0.4,0.1
		c-0.1,0.1-0.2,0.2-0.4,0.3c-0.1,0.1-0.2,0.3-0.3,0.4c-0.1,0.2-0.2,0.3-0.4,0.4c-0.1,0.1-0.3,0.2-0.5,0.3c-0.2,0.1-0.4,0.1-0.6,0.1
		c-0.2,0-0.5-0.1-0.7-0.2c-0.2-0.1-0.4-0.3-0.6-0.5c-0.2-0.2-0.3-0.5-0.4-0.8c-0.1-0.3-0.2-0.7-0.2-1.1c0-0.4,0-0.7,0.1-1l1,0.2
		c-0.1,0.3-0.2,0.6-0.2,1c0,0.4,0.1,0.7,0.2,1c0.2,0.2,0.4,0.4,0.7,0.4c0.2,0,0.3,0,0.4-0.1c0.1-0.1,0.2-0.2,0.3-0.3
		c0.1-0.1,0.2-0.3,0.3-0.4c0.1-0.2,0.2-0.3,0.4-0.4c0.1-0.1,0.3-0.2,0.5-0.3c0.2-0.1,0.4-0.1,0.6-0.1c0.3,0,0.5,0,0.7,0.2
		c0.2,0.1,0.4,0.2,0.6,0.5c0.2,0.2,0.3,0.4,0.4,0.7c0.1,0.3,0.1,0.6,0.1,1c0,0.2,0,0.4,0,0.6c0,0.2,0,0.3-0.1,0.5L8.2,191.4z"/>
</g>
</svg>
